%TF.GenerationSoftware,KiCad,Pcbnew,8.0.4*%
%TF.CreationDate,2024-08-29T16:54:29+02:00*%
%TF.ProjectId,smartEggTimer,736d6172-7445-4676-9754-696d65722e6b,rev?*%
%TF.SameCoordinates,Original*%
%TF.FileFunction,Drillmap*%
%TF.FilePolarity,Positive*%
%FSLAX45Y45*%
G04 Gerber Fmt 4.5, Leading zero omitted, Abs format (unit mm)*
G04 Created by KiCad (PCBNEW 8.0.4) date 2024-08-29 16:54:29*
%MOMM*%
%LPD*%
G01*
G04 APERTURE LIST*
%ADD10C,0.050000*%
%ADD11C,0.200000*%
%ADD12C,0.110000*%
%ADD13C,0.430000*%
G04 APERTURE END LIST*
D10*
X13600000Y-10000000D02*
G75*
G02*
X6400000Y-10000000I-3600000J0D01*
G01*
X6400000Y-10000000D02*
G75*
G02*
X13600000Y-10000000I3600000J0D01*
G01*
D11*
D12*
X8620000Y-13157000D02*
X8730000Y-13267000D01*
X8730000Y-13157000D02*
X8620000Y-13267000D01*
X11270000Y-13157000D02*
X11380000Y-13267000D01*
X11380000Y-13157000D02*
X11270000Y-13267000D01*
D13*
X7965000Y-7750000D02*
G75*
G02*
X7535000Y-7750000I-215000J0D01*
G01*
X7535000Y-7750000D02*
G75*
G02*
X7965000Y-7750000I215000J0D01*
G01*
X7965000Y-12250000D02*
G75*
G02*
X7535000Y-12250000I-215000J0D01*
G01*
X7535000Y-12250000D02*
G75*
G02*
X7965000Y-12250000I215000J0D01*
G01*
X12465000Y-7750000D02*
G75*
G02*
X12035000Y-7750000I-215000J0D01*
G01*
X12035000Y-7750000D02*
G75*
G02*
X12465000Y-7750000I215000J0D01*
G01*
X12465000Y-12250000D02*
G75*
G02*
X12035000Y-12250000I-215000J0D01*
G01*
X12035000Y-12250000D02*
G75*
G02*
X12465000Y-12250000I215000J0D01*
G01*
D11*
X6658277Y-13913984D02*
X6658277Y-13713984D01*
X6658277Y-13713984D02*
X6705896Y-13713984D01*
X6705896Y-13713984D02*
X6734467Y-13723508D01*
X6734467Y-13723508D02*
X6753515Y-13742555D01*
X6753515Y-13742555D02*
X6763039Y-13761603D01*
X6763039Y-13761603D02*
X6772562Y-13799698D01*
X6772562Y-13799698D02*
X6772562Y-13828269D01*
X6772562Y-13828269D02*
X6763039Y-13866365D01*
X6763039Y-13866365D02*
X6753515Y-13885412D01*
X6753515Y-13885412D02*
X6734467Y-13904460D01*
X6734467Y-13904460D02*
X6705896Y-13913984D01*
X6705896Y-13913984D02*
X6658277Y-13913984D01*
X6858277Y-13913984D02*
X6858277Y-13780650D01*
X6858277Y-13818746D02*
X6867801Y-13799698D01*
X6867801Y-13799698D02*
X6877324Y-13790174D01*
X6877324Y-13790174D02*
X6896372Y-13780650D01*
X6896372Y-13780650D02*
X6915420Y-13780650D01*
X6982086Y-13913984D02*
X6982086Y-13780650D01*
X6982086Y-13713984D02*
X6972562Y-13723508D01*
X6972562Y-13723508D02*
X6982086Y-13733031D01*
X6982086Y-13733031D02*
X6991610Y-13723508D01*
X6991610Y-13723508D02*
X6982086Y-13713984D01*
X6982086Y-13713984D02*
X6982086Y-13733031D01*
X7105896Y-13913984D02*
X7086848Y-13904460D01*
X7086848Y-13904460D02*
X7077324Y-13885412D01*
X7077324Y-13885412D02*
X7077324Y-13713984D01*
X7210658Y-13913984D02*
X7191610Y-13904460D01*
X7191610Y-13904460D02*
X7182086Y-13885412D01*
X7182086Y-13885412D02*
X7182086Y-13713984D01*
X7439229Y-13913984D02*
X7439229Y-13713984D01*
X7439229Y-13713984D02*
X7505896Y-13856841D01*
X7505896Y-13856841D02*
X7572562Y-13713984D01*
X7572562Y-13713984D02*
X7572562Y-13913984D01*
X7753515Y-13913984D02*
X7753515Y-13809222D01*
X7753515Y-13809222D02*
X7743991Y-13790174D01*
X7743991Y-13790174D02*
X7724943Y-13780650D01*
X7724943Y-13780650D02*
X7686848Y-13780650D01*
X7686848Y-13780650D02*
X7667801Y-13790174D01*
X7753515Y-13904460D02*
X7734467Y-13913984D01*
X7734467Y-13913984D02*
X7686848Y-13913984D01*
X7686848Y-13913984D02*
X7667801Y-13904460D01*
X7667801Y-13904460D02*
X7658277Y-13885412D01*
X7658277Y-13885412D02*
X7658277Y-13866365D01*
X7658277Y-13866365D02*
X7667801Y-13847317D01*
X7667801Y-13847317D02*
X7686848Y-13837793D01*
X7686848Y-13837793D02*
X7734467Y-13837793D01*
X7734467Y-13837793D02*
X7753515Y-13828269D01*
X7848753Y-13780650D02*
X7848753Y-13980650D01*
X7848753Y-13790174D02*
X7867801Y-13780650D01*
X7867801Y-13780650D02*
X7905896Y-13780650D01*
X7905896Y-13780650D02*
X7924943Y-13790174D01*
X7924943Y-13790174D02*
X7934467Y-13799698D01*
X7934467Y-13799698D02*
X7943991Y-13818746D01*
X7943991Y-13818746D02*
X7943991Y-13875888D01*
X7943991Y-13875888D02*
X7934467Y-13894936D01*
X7934467Y-13894936D02*
X7924943Y-13904460D01*
X7924943Y-13904460D02*
X7905896Y-13913984D01*
X7905896Y-13913984D02*
X7867801Y-13913984D01*
X7867801Y-13913984D02*
X7848753Y-13904460D01*
X8029705Y-13894936D02*
X8039229Y-13904460D01*
X8039229Y-13904460D02*
X8029705Y-13913984D01*
X8029705Y-13913984D02*
X8020182Y-13904460D01*
X8020182Y-13904460D02*
X8029705Y-13894936D01*
X8029705Y-13894936D02*
X8029705Y-13913984D01*
X8029705Y-13790174D02*
X8039229Y-13799698D01*
X8039229Y-13799698D02*
X8029705Y-13809222D01*
X8029705Y-13809222D02*
X8020182Y-13799698D01*
X8020182Y-13799698D02*
X8029705Y-13790174D01*
X8029705Y-13790174D02*
X8029705Y-13809222D01*
D12*
X6287500Y-14187500D02*
X6397500Y-14297500D01*
X6397500Y-14187500D02*
X6287500Y-14297500D01*
D11*
X6763039Y-14333984D02*
X6648753Y-14333984D01*
X6705896Y-14333984D02*
X6705896Y-14133984D01*
X6705896Y-14133984D02*
X6686848Y-14162555D01*
X6686848Y-14162555D02*
X6667801Y-14181603D01*
X6667801Y-14181603D02*
X6648753Y-14191127D01*
X6848753Y-14314936D02*
X6858277Y-14324460D01*
X6858277Y-14324460D02*
X6848753Y-14333984D01*
X6848753Y-14333984D02*
X6839229Y-14324460D01*
X6839229Y-14324460D02*
X6848753Y-14314936D01*
X6848753Y-14314936D02*
X6848753Y-14333984D01*
X7048753Y-14333984D02*
X6934467Y-14333984D01*
X6991610Y-14333984D02*
X6991610Y-14133984D01*
X6991610Y-14133984D02*
X6972562Y-14162555D01*
X6972562Y-14162555D02*
X6953515Y-14181603D01*
X6953515Y-14181603D02*
X6934467Y-14191127D01*
X7172562Y-14133984D02*
X7191610Y-14133984D01*
X7191610Y-14133984D02*
X7210658Y-14143508D01*
X7210658Y-14143508D02*
X7220182Y-14153031D01*
X7220182Y-14153031D02*
X7229705Y-14172079D01*
X7229705Y-14172079D02*
X7239229Y-14210174D01*
X7239229Y-14210174D02*
X7239229Y-14257793D01*
X7239229Y-14257793D02*
X7229705Y-14295888D01*
X7229705Y-14295888D02*
X7220182Y-14314936D01*
X7220182Y-14314936D02*
X7210658Y-14324460D01*
X7210658Y-14324460D02*
X7191610Y-14333984D01*
X7191610Y-14333984D02*
X7172562Y-14333984D01*
X7172562Y-14333984D02*
X7153515Y-14324460D01*
X7153515Y-14324460D02*
X7143991Y-14314936D01*
X7143991Y-14314936D02*
X7134467Y-14295888D01*
X7134467Y-14295888D02*
X7124943Y-14257793D01*
X7124943Y-14257793D02*
X7124943Y-14210174D01*
X7124943Y-14210174D02*
X7134467Y-14172079D01*
X7134467Y-14172079D02*
X7143991Y-14153031D01*
X7143991Y-14153031D02*
X7153515Y-14143508D01*
X7153515Y-14143508D02*
X7172562Y-14133984D01*
X7363039Y-14133984D02*
X7382086Y-14133984D01*
X7382086Y-14133984D02*
X7401134Y-14143508D01*
X7401134Y-14143508D02*
X7410658Y-14153031D01*
X7410658Y-14153031D02*
X7420182Y-14172079D01*
X7420182Y-14172079D02*
X7429705Y-14210174D01*
X7429705Y-14210174D02*
X7429705Y-14257793D01*
X7429705Y-14257793D02*
X7420182Y-14295888D01*
X7420182Y-14295888D02*
X7410658Y-14314936D01*
X7410658Y-14314936D02*
X7401134Y-14324460D01*
X7401134Y-14324460D02*
X7382086Y-14333984D01*
X7382086Y-14333984D02*
X7363039Y-14333984D01*
X7363039Y-14333984D02*
X7343991Y-14324460D01*
X7343991Y-14324460D02*
X7334467Y-14314936D01*
X7334467Y-14314936D02*
X7324943Y-14295888D01*
X7324943Y-14295888D02*
X7315420Y-14257793D01*
X7315420Y-14257793D02*
X7315420Y-14210174D01*
X7315420Y-14210174D02*
X7324943Y-14172079D01*
X7324943Y-14172079D02*
X7334467Y-14153031D01*
X7334467Y-14153031D02*
X7343991Y-14143508D01*
X7343991Y-14143508D02*
X7363039Y-14133984D01*
X7515420Y-14333984D02*
X7515420Y-14200650D01*
X7515420Y-14219698D02*
X7524943Y-14210174D01*
X7524943Y-14210174D02*
X7543991Y-14200650D01*
X7543991Y-14200650D02*
X7572563Y-14200650D01*
X7572563Y-14200650D02*
X7591610Y-14210174D01*
X7591610Y-14210174D02*
X7601134Y-14229222D01*
X7601134Y-14229222D02*
X7601134Y-14333984D01*
X7601134Y-14229222D02*
X7610658Y-14210174D01*
X7610658Y-14210174D02*
X7629705Y-14200650D01*
X7629705Y-14200650D02*
X7658277Y-14200650D01*
X7658277Y-14200650D02*
X7677324Y-14210174D01*
X7677324Y-14210174D02*
X7686848Y-14229222D01*
X7686848Y-14229222D02*
X7686848Y-14333984D01*
X7782086Y-14333984D02*
X7782086Y-14200650D01*
X7782086Y-14219698D02*
X7791610Y-14210174D01*
X7791610Y-14210174D02*
X7810658Y-14200650D01*
X7810658Y-14200650D02*
X7839229Y-14200650D01*
X7839229Y-14200650D02*
X7858277Y-14210174D01*
X7858277Y-14210174D02*
X7867801Y-14229222D01*
X7867801Y-14229222D02*
X7867801Y-14333984D01*
X7867801Y-14229222D02*
X7877324Y-14210174D01*
X7877324Y-14210174D02*
X7896372Y-14200650D01*
X7896372Y-14200650D02*
X7924943Y-14200650D01*
X7924943Y-14200650D02*
X7943991Y-14210174D01*
X7943991Y-14210174D02*
X7953515Y-14229222D01*
X7953515Y-14229222D02*
X7953515Y-14333984D01*
X8343991Y-14124460D02*
X8172563Y-14381603D01*
X8601134Y-14133984D02*
X8620182Y-14133984D01*
X8620182Y-14133984D02*
X8639229Y-14143508D01*
X8639229Y-14143508D02*
X8648753Y-14153031D01*
X8648753Y-14153031D02*
X8658277Y-14172079D01*
X8658277Y-14172079D02*
X8667801Y-14210174D01*
X8667801Y-14210174D02*
X8667801Y-14257793D01*
X8667801Y-14257793D02*
X8658277Y-14295888D01*
X8658277Y-14295888D02*
X8648753Y-14314936D01*
X8648753Y-14314936D02*
X8639229Y-14324460D01*
X8639229Y-14324460D02*
X8620182Y-14333984D01*
X8620182Y-14333984D02*
X8601134Y-14333984D01*
X8601134Y-14333984D02*
X8582087Y-14324460D01*
X8582087Y-14324460D02*
X8572563Y-14314936D01*
X8572563Y-14314936D02*
X8563039Y-14295888D01*
X8563039Y-14295888D02*
X8553515Y-14257793D01*
X8553515Y-14257793D02*
X8553515Y-14210174D01*
X8553515Y-14210174D02*
X8563039Y-14172079D01*
X8563039Y-14172079D02*
X8572563Y-14153031D01*
X8572563Y-14153031D02*
X8582087Y-14143508D01*
X8582087Y-14143508D02*
X8601134Y-14133984D01*
X8753515Y-14314936D02*
X8763039Y-14324460D01*
X8763039Y-14324460D02*
X8753515Y-14333984D01*
X8753515Y-14333984D02*
X8743991Y-14324460D01*
X8743991Y-14324460D02*
X8753515Y-14314936D01*
X8753515Y-14314936D02*
X8753515Y-14333984D01*
X8886848Y-14133984D02*
X8905896Y-14133984D01*
X8905896Y-14133984D02*
X8924944Y-14143508D01*
X8924944Y-14143508D02*
X8934468Y-14153031D01*
X8934468Y-14153031D02*
X8943991Y-14172079D01*
X8943991Y-14172079D02*
X8953515Y-14210174D01*
X8953515Y-14210174D02*
X8953515Y-14257793D01*
X8953515Y-14257793D02*
X8943991Y-14295888D01*
X8943991Y-14295888D02*
X8934468Y-14314936D01*
X8934468Y-14314936D02*
X8924944Y-14324460D01*
X8924944Y-14324460D02*
X8905896Y-14333984D01*
X8905896Y-14333984D02*
X8886848Y-14333984D01*
X8886848Y-14333984D02*
X8867801Y-14324460D01*
X8867801Y-14324460D02*
X8858277Y-14314936D01*
X8858277Y-14314936D02*
X8848753Y-14295888D01*
X8848753Y-14295888D02*
X8839229Y-14257793D01*
X8839229Y-14257793D02*
X8839229Y-14210174D01*
X8839229Y-14210174D02*
X8848753Y-14172079D01*
X8848753Y-14172079D02*
X8858277Y-14153031D01*
X8858277Y-14153031D02*
X8867801Y-14143508D01*
X8867801Y-14143508D02*
X8886848Y-14133984D01*
X9124944Y-14200650D02*
X9124944Y-14333984D01*
X9077325Y-14124460D02*
X9029706Y-14267317D01*
X9029706Y-14267317D02*
X9153515Y-14267317D01*
X9210658Y-14133984D02*
X9334468Y-14133984D01*
X9334468Y-14133984D02*
X9267801Y-14210174D01*
X9267801Y-14210174D02*
X9296372Y-14210174D01*
X9296372Y-14210174D02*
X9315420Y-14219698D01*
X9315420Y-14219698D02*
X9324944Y-14229222D01*
X9324944Y-14229222D02*
X9334468Y-14248269D01*
X9334468Y-14248269D02*
X9334468Y-14295888D01*
X9334468Y-14295888D02*
X9324944Y-14314936D01*
X9324944Y-14314936D02*
X9315420Y-14324460D01*
X9315420Y-14324460D02*
X9296372Y-14333984D01*
X9296372Y-14333984D02*
X9239229Y-14333984D01*
X9239229Y-14333984D02*
X9220182Y-14324460D01*
X9220182Y-14324460D02*
X9210658Y-14314936D01*
X9401134Y-14133984D02*
X9524944Y-14133984D01*
X9524944Y-14133984D02*
X9458277Y-14210174D01*
X9458277Y-14210174D02*
X9486849Y-14210174D01*
X9486849Y-14210174D02*
X9505896Y-14219698D01*
X9505896Y-14219698D02*
X9515420Y-14229222D01*
X9515420Y-14229222D02*
X9524944Y-14248269D01*
X9524944Y-14248269D02*
X9524944Y-14295888D01*
X9524944Y-14295888D02*
X9515420Y-14314936D01*
X9515420Y-14314936D02*
X9505896Y-14324460D01*
X9505896Y-14324460D02*
X9486849Y-14333984D01*
X9486849Y-14333984D02*
X9429706Y-14333984D01*
X9429706Y-14333984D02*
X9410658Y-14324460D01*
X9410658Y-14324460D02*
X9401134Y-14314936D01*
X9601134Y-14133984D02*
X9601134Y-14172079D01*
X9677325Y-14133984D02*
X9677325Y-14172079D01*
X9972563Y-14410174D02*
X9963039Y-14400650D01*
X9963039Y-14400650D02*
X9943991Y-14372079D01*
X9943991Y-14372079D02*
X9934468Y-14353031D01*
X9934468Y-14353031D02*
X9924944Y-14324460D01*
X9924944Y-14324460D02*
X9915420Y-14276841D01*
X9915420Y-14276841D02*
X9915420Y-14238746D01*
X9915420Y-14238746D02*
X9924944Y-14191127D01*
X9924944Y-14191127D02*
X9934468Y-14162555D01*
X9934468Y-14162555D02*
X9943991Y-14143508D01*
X9943991Y-14143508D02*
X9963039Y-14114936D01*
X9963039Y-14114936D02*
X9972563Y-14105412D01*
X10039230Y-14153031D02*
X10048753Y-14143508D01*
X10048753Y-14143508D02*
X10067801Y-14133984D01*
X10067801Y-14133984D02*
X10115420Y-14133984D01*
X10115420Y-14133984D02*
X10134468Y-14143508D01*
X10134468Y-14143508D02*
X10143991Y-14153031D01*
X10143991Y-14153031D02*
X10153515Y-14172079D01*
X10153515Y-14172079D02*
X10153515Y-14191127D01*
X10153515Y-14191127D02*
X10143991Y-14219698D01*
X10143991Y-14219698D02*
X10029706Y-14333984D01*
X10029706Y-14333984D02*
X10153515Y-14333984D01*
X10391611Y-14333984D02*
X10391611Y-14133984D01*
X10477325Y-14333984D02*
X10477325Y-14229222D01*
X10477325Y-14229222D02*
X10467801Y-14210174D01*
X10467801Y-14210174D02*
X10448753Y-14200650D01*
X10448753Y-14200650D02*
X10420182Y-14200650D01*
X10420182Y-14200650D02*
X10401134Y-14210174D01*
X10401134Y-14210174D02*
X10391611Y-14219698D01*
X10601134Y-14333984D02*
X10582087Y-14324460D01*
X10582087Y-14324460D02*
X10572563Y-14314936D01*
X10572563Y-14314936D02*
X10563039Y-14295888D01*
X10563039Y-14295888D02*
X10563039Y-14238746D01*
X10563039Y-14238746D02*
X10572563Y-14219698D01*
X10572563Y-14219698D02*
X10582087Y-14210174D01*
X10582087Y-14210174D02*
X10601134Y-14200650D01*
X10601134Y-14200650D02*
X10629706Y-14200650D01*
X10629706Y-14200650D02*
X10648753Y-14210174D01*
X10648753Y-14210174D02*
X10658277Y-14219698D01*
X10658277Y-14219698D02*
X10667801Y-14238746D01*
X10667801Y-14238746D02*
X10667801Y-14295888D01*
X10667801Y-14295888D02*
X10658277Y-14314936D01*
X10658277Y-14314936D02*
X10648753Y-14324460D01*
X10648753Y-14324460D02*
X10629706Y-14333984D01*
X10629706Y-14333984D02*
X10601134Y-14333984D01*
X10782087Y-14333984D02*
X10763039Y-14324460D01*
X10763039Y-14324460D02*
X10753515Y-14305412D01*
X10753515Y-14305412D02*
X10753515Y-14133984D01*
X10934468Y-14324460D02*
X10915420Y-14333984D01*
X10915420Y-14333984D02*
X10877325Y-14333984D01*
X10877325Y-14333984D02*
X10858277Y-14324460D01*
X10858277Y-14324460D02*
X10848753Y-14305412D01*
X10848753Y-14305412D02*
X10848753Y-14229222D01*
X10848753Y-14229222D02*
X10858277Y-14210174D01*
X10858277Y-14210174D02*
X10877325Y-14200650D01*
X10877325Y-14200650D02*
X10915420Y-14200650D01*
X10915420Y-14200650D02*
X10934468Y-14210174D01*
X10934468Y-14210174D02*
X10943992Y-14229222D01*
X10943992Y-14229222D02*
X10943992Y-14248269D01*
X10943992Y-14248269D02*
X10848753Y-14267317D01*
X11020182Y-14324460D02*
X11039230Y-14333984D01*
X11039230Y-14333984D02*
X11077325Y-14333984D01*
X11077325Y-14333984D02*
X11096373Y-14324460D01*
X11096373Y-14324460D02*
X11105896Y-14305412D01*
X11105896Y-14305412D02*
X11105896Y-14295888D01*
X11105896Y-14295888D02*
X11096373Y-14276841D01*
X11096373Y-14276841D02*
X11077325Y-14267317D01*
X11077325Y-14267317D02*
X11048753Y-14267317D01*
X11048753Y-14267317D02*
X11029706Y-14257793D01*
X11029706Y-14257793D02*
X11020182Y-14238746D01*
X11020182Y-14238746D02*
X11020182Y-14229222D01*
X11020182Y-14229222D02*
X11029706Y-14210174D01*
X11029706Y-14210174D02*
X11048753Y-14200650D01*
X11048753Y-14200650D02*
X11077325Y-14200650D01*
X11077325Y-14200650D02*
X11096373Y-14210174D01*
X11172563Y-14410174D02*
X11182087Y-14400650D01*
X11182087Y-14400650D02*
X11201134Y-14372079D01*
X11201134Y-14372079D02*
X11210658Y-14353031D01*
X11210658Y-14353031D02*
X11220182Y-14324460D01*
X11220182Y-14324460D02*
X11229706Y-14276841D01*
X11229706Y-14276841D02*
X11229706Y-14238746D01*
X11229706Y-14238746D02*
X11220182Y-14191127D01*
X11220182Y-14191127D02*
X11210658Y-14162555D01*
X11210658Y-14162555D02*
X11201134Y-14143508D01*
X11201134Y-14143508D02*
X11182087Y-14114936D01*
X11182087Y-14114936D02*
X11172563Y-14105412D01*
X11534468Y-14410174D02*
X11524944Y-14400650D01*
X11524944Y-14400650D02*
X11505896Y-14372079D01*
X11505896Y-14372079D02*
X11496372Y-14353031D01*
X11496372Y-14353031D02*
X11486849Y-14324460D01*
X11486849Y-14324460D02*
X11477325Y-14276841D01*
X11477325Y-14276841D02*
X11477325Y-14238746D01*
X11477325Y-14238746D02*
X11486849Y-14191127D01*
X11486849Y-14191127D02*
X11496372Y-14162555D01*
X11496372Y-14162555D02*
X11505896Y-14143508D01*
X11505896Y-14143508D02*
X11524944Y-14114936D01*
X11524944Y-14114936D02*
X11534468Y-14105412D01*
X11610658Y-14200650D02*
X11610658Y-14333984D01*
X11610658Y-14219698D02*
X11620182Y-14210174D01*
X11620182Y-14210174D02*
X11639230Y-14200650D01*
X11639230Y-14200650D02*
X11667801Y-14200650D01*
X11667801Y-14200650D02*
X11686849Y-14210174D01*
X11686849Y-14210174D02*
X11696372Y-14229222D01*
X11696372Y-14229222D02*
X11696372Y-14333984D01*
X11820182Y-14333984D02*
X11801134Y-14324460D01*
X11801134Y-14324460D02*
X11791611Y-14314936D01*
X11791611Y-14314936D02*
X11782087Y-14295888D01*
X11782087Y-14295888D02*
X11782087Y-14238746D01*
X11782087Y-14238746D02*
X11791611Y-14219698D01*
X11791611Y-14219698D02*
X11801134Y-14210174D01*
X11801134Y-14210174D02*
X11820182Y-14200650D01*
X11820182Y-14200650D02*
X11848753Y-14200650D01*
X11848753Y-14200650D02*
X11867801Y-14210174D01*
X11867801Y-14210174D02*
X11877325Y-14219698D01*
X11877325Y-14219698D02*
X11886849Y-14238746D01*
X11886849Y-14238746D02*
X11886849Y-14295888D01*
X11886849Y-14295888D02*
X11877325Y-14314936D01*
X11877325Y-14314936D02*
X11867801Y-14324460D01*
X11867801Y-14324460D02*
X11848753Y-14333984D01*
X11848753Y-14333984D02*
X11820182Y-14333984D01*
X11943992Y-14200650D02*
X12020182Y-14200650D01*
X11972563Y-14133984D02*
X11972563Y-14305412D01*
X11972563Y-14305412D02*
X11982087Y-14324460D01*
X11982087Y-14324460D02*
X12001134Y-14333984D01*
X12001134Y-14333984D02*
X12020182Y-14333984D01*
X12239230Y-14200650D02*
X12239230Y-14400650D01*
X12239230Y-14210174D02*
X12258277Y-14200650D01*
X12258277Y-14200650D02*
X12296373Y-14200650D01*
X12296373Y-14200650D02*
X12315420Y-14210174D01*
X12315420Y-14210174D02*
X12324944Y-14219698D01*
X12324944Y-14219698D02*
X12334468Y-14238746D01*
X12334468Y-14238746D02*
X12334468Y-14295888D01*
X12334468Y-14295888D02*
X12324944Y-14314936D01*
X12324944Y-14314936D02*
X12315420Y-14324460D01*
X12315420Y-14324460D02*
X12296373Y-14333984D01*
X12296373Y-14333984D02*
X12258277Y-14333984D01*
X12258277Y-14333984D02*
X12239230Y-14324460D01*
X12448753Y-14333984D02*
X12429706Y-14324460D01*
X12429706Y-14324460D02*
X12420182Y-14305412D01*
X12420182Y-14305412D02*
X12420182Y-14133984D01*
X12610658Y-14333984D02*
X12610658Y-14229222D01*
X12610658Y-14229222D02*
X12601134Y-14210174D01*
X12601134Y-14210174D02*
X12582087Y-14200650D01*
X12582087Y-14200650D02*
X12543992Y-14200650D01*
X12543992Y-14200650D02*
X12524944Y-14210174D01*
X12610658Y-14324460D02*
X12591611Y-14333984D01*
X12591611Y-14333984D02*
X12543992Y-14333984D01*
X12543992Y-14333984D02*
X12524944Y-14324460D01*
X12524944Y-14324460D02*
X12515420Y-14305412D01*
X12515420Y-14305412D02*
X12515420Y-14286365D01*
X12515420Y-14286365D02*
X12524944Y-14267317D01*
X12524944Y-14267317D02*
X12543992Y-14257793D01*
X12543992Y-14257793D02*
X12591611Y-14257793D01*
X12591611Y-14257793D02*
X12610658Y-14248269D01*
X12677325Y-14200650D02*
X12753515Y-14200650D01*
X12705896Y-14133984D02*
X12705896Y-14305412D01*
X12705896Y-14305412D02*
X12715420Y-14324460D01*
X12715420Y-14324460D02*
X12734468Y-14333984D01*
X12734468Y-14333984D02*
X12753515Y-14333984D01*
X12896373Y-14324460D02*
X12877325Y-14333984D01*
X12877325Y-14333984D02*
X12839230Y-14333984D01*
X12839230Y-14333984D02*
X12820182Y-14324460D01*
X12820182Y-14324460D02*
X12810658Y-14305412D01*
X12810658Y-14305412D02*
X12810658Y-14229222D01*
X12810658Y-14229222D02*
X12820182Y-14210174D01*
X12820182Y-14210174D02*
X12839230Y-14200650D01*
X12839230Y-14200650D02*
X12877325Y-14200650D01*
X12877325Y-14200650D02*
X12896373Y-14210174D01*
X12896373Y-14210174D02*
X12905896Y-14229222D01*
X12905896Y-14229222D02*
X12905896Y-14248269D01*
X12905896Y-14248269D02*
X12810658Y-14267317D01*
X13077325Y-14333984D02*
X13077325Y-14133984D01*
X13077325Y-14324460D02*
X13058277Y-14333984D01*
X13058277Y-14333984D02*
X13020182Y-14333984D01*
X13020182Y-14333984D02*
X13001134Y-14324460D01*
X13001134Y-14324460D02*
X12991611Y-14314936D01*
X12991611Y-14314936D02*
X12982087Y-14295888D01*
X12982087Y-14295888D02*
X12982087Y-14238746D01*
X12982087Y-14238746D02*
X12991611Y-14219698D01*
X12991611Y-14219698D02*
X13001134Y-14210174D01*
X13001134Y-14210174D02*
X13020182Y-14200650D01*
X13020182Y-14200650D02*
X13058277Y-14200650D01*
X13058277Y-14200650D02*
X13077325Y-14210174D01*
X13153515Y-14410174D02*
X13163039Y-14400650D01*
X13163039Y-14400650D02*
X13182087Y-14372079D01*
X13182087Y-14372079D02*
X13191611Y-14353031D01*
X13191611Y-14353031D02*
X13201134Y-14324460D01*
X13201134Y-14324460D02*
X13210658Y-14276841D01*
X13210658Y-14276841D02*
X13210658Y-14238746D01*
X13210658Y-14238746D02*
X13201134Y-14191127D01*
X13201134Y-14191127D02*
X13191611Y-14162555D01*
X13191611Y-14162555D02*
X13182087Y-14143508D01*
X13182087Y-14143508D02*
X13163039Y-14114936D01*
X13163039Y-14114936D02*
X13153515Y-14105412D01*
X6397500Y-14506500D02*
G75*
G02*
X6197500Y-14506500I-100000J0D01*
G01*
X6197500Y-14506500D02*
G75*
G02*
X6397500Y-14506500I100000J0D01*
G01*
X6743991Y-14464650D02*
X6743991Y-14597984D01*
X6696372Y-14388460D02*
X6648753Y-14531317D01*
X6648753Y-14531317D02*
X6772562Y-14531317D01*
X6848753Y-14578936D02*
X6858277Y-14588460D01*
X6858277Y-14588460D02*
X6848753Y-14597984D01*
X6848753Y-14597984D02*
X6839229Y-14588460D01*
X6839229Y-14588460D02*
X6848753Y-14578936D01*
X6848753Y-14578936D02*
X6848753Y-14597984D01*
X6924943Y-14397984D02*
X7048753Y-14397984D01*
X7048753Y-14397984D02*
X6982086Y-14474174D01*
X6982086Y-14474174D02*
X7010658Y-14474174D01*
X7010658Y-14474174D02*
X7029705Y-14483698D01*
X7029705Y-14483698D02*
X7039229Y-14493222D01*
X7039229Y-14493222D02*
X7048753Y-14512269D01*
X7048753Y-14512269D02*
X7048753Y-14559888D01*
X7048753Y-14559888D02*
X7039229Y-14578936D01*
X7039229Y-14578936D02*
X7029705Y-14588460D01*
X7029705Y-14588460D02*
X7010658Y-14597984D01*
X7010658Y-14597984D02*
X6953515Y-14597984D01*
X6953515Y-14597984D02*
X6934467Y-14588460D01*
X6934467Y-14588460D02*
X6924943Y-14578936D01*
X7172562Y-14397984D02*
X7191610Y-14397984D01*
X7191610Y-14397984D02*
X7210658Y-14407508D01*
X7210658Y-14407508D02*
X7220182Y-14417031D01*
X7220182Y-14417031D02*
X7229705Y-14436079D01*
X7229705Y-14436079D02*
X7239229Y-14474174D01*
X7239229Y-14474174D02*
X7239229Y-14521793D01*
X7239229Y-14521793D02*
X7229705Y-14559888D01*
X7229705Y-14559888D02*
X7220182Y-14578936D01*
X7220182Y-14578936D02*
X7210658Y-14588460D01*
X7210658Y-14588460D02*
X7191610Y-14597984D01*
X7191610Y-14597984D02*
X7172562Y-14597984D01*
X7172562Y-14597984D02*
X7153515Y-14588460D01*
X7153515Y-14588460D02*
X7143991Y-14578936D01*
X7143991Y-14578936D02*
X7134467Y-14559888D01*
X7134467Y-14559888D02*
X7124943Y-14521793D01*
X7124943Y-14521793D02*
X7124943Y-14474174D01*
X7124943Y-14474174D02*
X7134467Y-14436079D01*
X7134467Y-14436079D02*
X7143991Y-14417031D01*
X7143991Y-14417031D02*
X7153515Y-14407508D01*
X7153515Y-14407508D02*
X7172562Y-14397984D01*
X7363039Y-14397984D02*
X7382086Y-14397984D01*
X7382086Y-14397984D02*
X7401134Y-14407508D01*
X7401134Y-14407508D02*
X7410658Y-14417031D01*
X7410658Y-14417031D02*
X7420182Y-14436079D01*
X7420182Y-14436079D02*
X7429705Y-14474174D01*
X7429705Y-14474174D02*
X7429705Y-14521793D01*
X7429705Y-14521793D02*
X7420182Y-14559888D01*
X7420182Y-14559888D02*
X7410658Y-14578936D01*
X7410658Y-14578936D02*
X7401134Y-14588460D01*
X7401134Y-14588460D02*
X7382086Y-14597984D01*
X7382086Y-14597984D02*
X7363039Y-14597984D01*
X7363039Y-14597984D02*
X7343991Y-14588460D01*
X7343991Y-14588460D02*
X7334467Y-14578936D01*
X7334467Y-14578936D02*
X7324943Y-14559888D01*
X7324943Y-14559888D02*
X7315420Y-14521793D01*
X7315420Y-14521793D02*
X7315420Y-14474174D01*
X7315420Y-14474174D02*
X7324943Y-14436079D01*
X7324943Y-14436079D02*
X7334467Y-14417031D01*
X7334467Y-14417031D02*
X7343991Y-14407508D01*
X7343991Y-14407508D02*
X7363039Y-14397984D01*
X7515420Y-14597984D02*
X7515420Y-14464650D01*
X7515420Y-14483698D02*
X7524943Y-14474174D01*
X7524943Y-14474174D02*
X7543991Y-14464650D01*
X7543991Y-14464650D02*
X7572563Y-14464650D01*
X7572563Y-14464650D02*
X7591610Y-14474174D01*
X7591610Y-14474174D02*
X7601134Y-14493222D01*
X7601134Y-14493222D02*
X7601134Y-14597984D01*
X7601134Y-14493222D02*
X7610658Y-14474174D01*
X7610658Y-14474174D02*
X7629705Y-14464650D01*
X7629705Y-14464650D02*
X7658277Y-14464650D01*
X7658277Y-14464650D02*
X7677324Y-14474174D01*
X7677324Y-14474174D02*
X7686848Y-14493222D01*
X7686848Y-14493222D02*
X7686848Y-14597984D01*
X7782086Y-14597984D02*
X7782086Y-14464650D01*
X7782086Y-14483698D02*
X7791610Y-14474174D01*
X7791610Y-14474174D02*
X7810658Y-14464650D01*
X7810658Y-14464650D02*
X7839229Y-14464650D01*
X7839229Y-14464650D02*
X7858277Y-14474174D01*
X7858277Y-14474174D02*
X7867801Y-14493222D01*
X7867801Y-14493222D02*
X7867801Y-14597984D01*
X7867801Y-14493222D02*
X7877324Y-14474174D01*
X7877324Y-14474174D02*
X7896372Y-14464650D01*
X7896372Y-14464650D02*
X7924943Y-14464650D01*
X7924943Y-14464650D02*
X7943991Y-14474174D01*
X7943991Y-14474174D02*
X7953515Y-14493222D01*
X7953515Y-14493222D02*
X7953515Y-14597984D01*
X8343991Y-14388460D02*
X8172563Y-14645603D01*
X8601134Y-14397984D02*
X8620182Y-14397984D01*
X8620182Y-14397984D02*
X8639229Y-14407508D01*
X8639229Y-14407508D02*
X8648753Y-14417031D01*
X8648753Y-14417031D02*
X8658277Y-14436079D01*
X8658277Y-14436079D02*
X8667801Y-14474174D01*
X8667801Y-14474174D02*
X8667801Y-14521793D01*
X8667801Y-14521793D02*
X8658277Y-14559888D01*
X8658277Y-14559888D02*
X8648753Y-14578936D01*
X8648753Y-14578936D02*
X8639229Y-14588460D01*
X8639229Y-14588460D02*
X8620182Y-14597984D01*
X8620182Y-14597984D02*
X8601134Y-14597984D01*
X8601134Y-14597984D02*
X8582087Y-14588460D01*
X8582087Y-14588460D02*
X8572563Y-14578936D01*
X8572563Y-14578936D02*
X8563039Y-14559888D01*
X8563039Y-14559888D02*
X8553515Y-14521793D01*
X8553515Y-14521793D02*
X8553515Y-14474174D01*
X8553515Y-14474174D02*
X8563039Y-14436079D01*
X8563039Y-14436079D02*
X8572563Y-14417031D01*
X8572563Y-14417031D02*
X8582087Y-14407508D01*
X8582087Y-14407508D02*
X8601134Y-14397984D01*
X8753515Y-14578936D02*
X8763039Y-14588460D01*
X8763039Y-14588460D02*
X8753515Y-14597984D01*
X8753515Y-14597984D02*
X8743991Y-14588460D01*
X8743991Y-14588460D02*
X8753515Y-14578936D01*
X8753515Y-14578936D02*
X8753515Y-14597984D01*
X8953515Y-14597984D02*
X8839229Y-14597984D01*
X8896372Y-14597984D02*
X8896372Y-14397984D01*
X8896372Y-14397984D02*
X8877325Y-14426555D01*
X8877325Y-14426555D02*
X8858277Y-14445603D01*
X8858277Y-14445603D02*
X8839229Y-14455127D01*
X9124944Y-14397984D02*
X9086848Y-14397984D01*
X9086848Y-14397984D02*
X9067801Y-14407508D01*
X9067801Y-14407508D02*
X9058277Y-14417031D01*
X9058277Y-14417031D02*
X9039229Y-14445603D01*
X9039229Y-14445603D02*
X9029706Y-14483698D01*
X9029706Y-14483698D02*
X9029706Y-14559888D01*
X9029706Y-14559888D02*
X9039229Y-14578936D01*
X9039229Y-14578936D02*
X9048753Y-14588460D01*
X9048753Y-14588460D02*
X9067801Y-14597984D01*
X9067801Y-14597984D02*
X9105896Y-14597984D01*
X9105896Y-14597984D02*
X9124944Y-14588460D01*
X9124944Y-14588460D02*
X9134468Y-14578936D01*
X9134468Y-14578936D02*
X9143991Y-14559888D01*
X9143991Y-14559888D02*
X9143991Y-14512269D01*
X9143991Y-14512269D02*
X9134468Y-14493222D01*
X9134468Y-14493222D02*
X9124944Y-14483698D01*
X9124944Y-14483698D02*
X9105896Y-14474174D01*
X9105896Y-14474174D02*
X9067801Y-14474174D01*
X9067801Y-14474174D02*
X9048753Y-14483698D01*
X9048753Y-14483698D02*
X9039229Y-14493222D01*
X9039229Y-14493222D02*
X9029706Y-14512269D01*
X9239229Y-14597984D02*
X9277325Y-14597984D01*
X9277325Y-14597984D02*
X9296372Y-14588460D01*
X9296372Y-14588460D02*
X9305896Y-14578936D01*
X9305896Y-14578936D02*
X9324944Y-14550365D01*
X9324944Y-14550365D02*
X9334468Y-14512269D01*
X9334468Y-14512269D02*
X9334468Y-14436079D01*
X9334468Y-14436079D02*
X9324944Y-14417031D01*
X9324944Y-14417031D02*
X9315420Y-14407508D01*
X9315420Y-14407508D02*
X9296372Y-14397984D01*
X9296372Y-14397984D02*
X9258277Y-14397984D01*
X9258277Y-14397984D02*
X9239229Y-14407508D01*
X9239229Y-14407508D02*
X9229706Y-14417031D01*
X9229706Y-14417031D02*
X9220182Y-14436079D01*
X9220182Y-14436079D02*
X9220182Y-14483698D01*
X9220182Y-14483698D02*
X9229706Y-14502746D01*
X9229706Y-14502746D02*
X9239229Y-14512269D01*
X9239229Y-14512269D02*
X9258277Y-14521793D01*
X9258277Y-14521793D02*
X9296372Y-14521793D01*
X9296372Y-14521793D02*
X9315420Y-14512269D01*
X9315420Y-14512269D02*
X9324944Y-14502746D01*
X9324944Y-14502746D02*
X9334468Y-14483698D01*
X9401134Y-14397984D02*
X9524944Y-14397984D01*
X9524944Y-14397984D02*
X9458277Y-14474174D01*
X9458277Y-14474174D02*
X9486849Y-14474174D01*
X9486849Y-14474174D02*
X9505896Y-14483698D01*
X9505896Y-14483698D02*
X9515420Y-14493222D01*
X9515420Y-14493222D02*
X9524944Y-14512269D01*
X9524944Y-14512269D02*
X9524944Y-14559888D01*
X9524944Y-14559888D02*
X9515420Y-14578936D01*
X9515420Y-14578936D02*
X9505896Y-14588460D01*
X9505896Y-14588460D02*
X9486849Y-14597984D01*
X9486849Y-14597984D02*
X9429706Y-14597984D01*
X9429706Y-14597984D02*
X9410658Y-14588460D01*
X9410658Y-14588460D02*
X9401134Y-14578936D01*
X9601134Y-14397984D02*
X9601134Y-14436079D01*
X9677325Y-14397984D02*
X9677325Y-14436079D01*
X9972563Y-14674174D02*
X9963039Y-14664650D01*
X9963039Y-14664650D02*
X9943991Y-14636079D01*
X9943991Y-14636079D02*
X9934468Y-14617031D01*
X9934468Y-14617031D02*
X9924944Y-14588460D01*
X9924944Y-14588460D02*
X9915420Y-14540841D01*
X9915420Y-14540841D02*
X9915420Y-14502746D01*
X9915420Y-14502746D02*
X9924944Y-14455127D01*
X9924944Y-14455127D02*
X9934468Y-14426555D01*
X9934468Y-14426555D02*
X9943991Y-14407508D01*
X9943991Y-14407508D02*
X9963039Y-14378936D01*
X9963039Y-14378936D02*
X9972563Y-14369412D01*
X10134468Y-14464650D02*
X10134468Y-14597984D01*
X10086849Y-14388460D02*
X10039230Y-14531317D01*
X10039230Y-14531317D02*
X10163039Y-14531317D01*
X10391611Y-14597984D02*
X10391611Y-14397984D01*
X10477325Y-14597984D02*
X10477325Y-14493222D01*
X10477325Y-14493222D02*
X10467801Y-14474174D01*
X10467801Y-14474174D02*
X10448753Y-14464650D01*
X10448753Y-14464650D02*
X10420182Y-14464650D01*
X10420182Y-14464650D02*
X10401134Y-14474174D01*
X10401134Y-14474174D02*
X10391611Y-14483698D01*
X10601134Y-14597984D02*
X10582087Y-14588460D01*
X10582087Y-14588460D02*
X10572563Y-14578936D01*
X10572563Y-14578936D02*
X10563039Y-14559888D01*
X10563039Y-14559888D02*
X10563039Y-14502746D01*
X10563039Y-14502746D02*
X10572563Y-14483698D01*
X10572563Y-14483698D02*
X10582087Y-14474174D01*
X10582087Y-14474174D02*
X10601134Y-14464650D01*
X10601134Y-14464650D02*
X10629706Y-14464650D01*
X10629706Y-14464650D02*
X10648753Y-14474174D01*
X10648753Y-14474174D02*
X10658277Y-14483698D01*
X10658277Y-14483698D02*
X10667801Y-14502746D01*
X10667801Y-14502746D02*
X10667801Y-14559888D01*
X10667801Y-14559888D02*
X10658277Y-14578936D01*
X10658277Y-14578936D02*
X10648753Y-14588460D01*
X10648753Y-14588460D02*
X10629706Y-14597984D01*
X10629706Y-14597984D02*
X10601134Y-14597984D01*
X10782087Y-14597984D02*
X10763039Y-14588460D01*
X10763039Y-14588460D02*
X10753515Y-14569412D01*
X10753515Y-14569412D02*
X10753515Y-14397984D01*
X10934468Y-14588460D02*
X10915420Y-14597984D01*
X10915420Y-14597984D02*
X10877325Y-14597984D01*
X10877325Y-14597984D02*
X10858277Y-14588460D01*
X10858277Y-14588460D02*
X10848753Y-14569412D01*
X10848753Y-14569412D02*
X10848753Y-14493222D01*
X10848753Y-14493222D02*
X10858277Y-14474174D01*
X10858277Y-14474174D02*
X10877325Y-14464650D01*
X10877325Y-14464650D02*
X10915420Y-14464650D01*
X10915420Y-14464650D02*
X10934468Y-14474174D01*
X10934468Y-14474174D02*
X10943992Y-14493222D01*
X10943992Y-14493222D02*
X10943992Y-14512269D01*
X10943992Y-14512269D02*
X10848753Y-14531317D01*
X11020182Y-14588460D02*
X11039230Y-14597984D01*
X11039230Y-14597984D02*
X11077325Y-14597984D01*
X11077325Y-14597984D02*
X11096373Y-14588460D01*
X11096373Y-14588460D02*
X11105896Y-14569412D01*
X11105896Y-14569412D02*
X11105896Y-14559888D01*
X11105896Y-14559888D02*
X11096373Y-14540841D01*
X11096373Y-14540841D02*
X11077325Y-14531317D01*
X11077325Y-14531317D02*
X11048753Y-14531317D01*
X11048753Y-14531317D02*
X11029706Y-14521793D01*
X11029706Y-14521793D02*
X11020182Y-14502746D01*
X11020182Y-14502746D02*
X11020182Y-14493222D01*
X11020182Y-14493222D02*
X11029706Y-14474174D01*
X11029706Y-14474174D02*
X11048753Y-14464650D01*
X11048753Y-14464650D02*
X11077325Y-14464650D01*
X11077325Y-14464650D02*
X11096373Y-14474174D01*
X11172563Y-14674174D02*
X11182087Y-14664650D01*
X11182087Y-14664650D02*
X11201134Y-14636079D01*
X11201134Y-14636079D02*
X11210658Y-14617031D01*
X11210658Y-14617031D02*
X11220182Y-14588460D01*
X11220182Y-14588460D02*
X11229706Y-14540841D01*
X11229706Y-14540841D02*
X11229706Y-14502746D01*
X11229706Y-14502746D02*
X11220182Y-14455127D01*
X11220182Y-14455127D02*
X11210658Y-14426555D01*
X11210658Y-14426555D02*
X11201134Y-14407508D01*
X11201134Y-14407508D02*
X11182087Y-14378936D01*
X11182087Y-14378936D02*
X11172563Y-14369412D01*
X11534468Y-14674174D02*
X11524944Y-14664650D01*
X11524944Y-14664650D02*
X11505896Y-14636079D01*
X11505896Y-14636079D02*
X11496372Y-14617031D01*
X11496372Y-14617031D02*
X11486849Y-14588460D01*
X11486849Y-14588460D02*
X11477325Y-14540841D01*
X11477325Y-14540841D02*
X11477325Y-14502746D01*
X11477325Y-14502746D02*
X11486849Y-14455127D01*
X11486849Y-14455127D02*
X11496372Y-14426555D01*
X11496372Y-14426555D02*
X11505896Y-14407508D01*
X11505896Y-14407508D02*
X11524944Y-14378936D01*
X11524944Y-14378936D02*
X11534468Y-14369412D01*
X11610658Y-14464650D02*
X11610658Y-14597984D01*
X11610658Y-14483698D02*
X11620182Y-14474174D01*
X11620182Y-14474174D02*
X11639230Y-14464650D01*
X11639230Y-14464650D02*
X11667801Y-14464650D01*
X11667801Y-14464650D02*
X11686849Y-14474174D01*
X11686849Y-14474174D02*
X11696372Y-14493222D01*
X11696372Y-14493222D02*
X11696372Y-14597984D01*
X11820182Y-14597984D02*
X11801134Y-14588460D01*
X11801134Y-14588460D02*
X11791611Y-14578936D01*
X11791611Y-14578936D02*
X11782087Y-14559888D01*
X11782087Y-14559888D02*
X11782087Y-14502746D01*
X11782087Y-14502746D02*
X11791611Y-14483698D01*
X11791611Y-14483698D02*
X11801134Y-14474174D01*
X11801134Y-14474174D02*
X11820182Y-14464650D01*
X11820182Y-14464650D02*
X11848753Y-14464650D01*
X11848753Y-14464650D02*
X11867801Y-14474174D01*
X11867801Y-14474174D02*
X11877325Y-14483698D01*
X11877325Y-14483698D02*
X11886849Y-14502746D01*
X11886849Y-14502746D02*
X11886849Y-14559888D01*
X11886849Y-14559888D02*
X11877325Y-14578936D01*
X11877325Y-14578936D02*
X11867801Y-14588460D01*
X11867801Y-14588460D02*
X11848753Y-14597984D01*
X11848753Y-14597984D02*
X11820182Y-14597984D01*
X11943992Y-14464650D02*
X12020182Y-14464650D01*
X11972563Y-14397984D02*
X11972563Y-14569412D01*
X11972563Y-14569412D02*
X11982087Y-14588460D01*
X11982087Y-14588460D02*
X12001134Y-14597984D01*
X12001134Y-14597984D02*
X12020182Y-14597984D01*
X12239230Y-14464650D02*
X12239230Y-14664650D01*
X12239230Y-14474174D02*
X12258277Y-14464650D01*
X12258277Y-14464650D02*
X12296373Y-14464650D01*
X12296373Y-14464650D02*
X12315420Y-14474174D01*
X12315420Y-14474174D02*
X12324944Y-14483698D01*
X12324944Y-14483698D02*
X12334468Y-14502746D01*
X12334468Y-14502746D02*
X12334468Y-14559888D01*
X12334468Y-14559888D02*
X12324944Y-14578936D01*
X12324944Y-14578936D02*
X12315420Y-14588460D01*
X12315420Y-14588460D02*
X12296373Y-14597984D01*
X12296373Y-14597984D02*
X12258277Y-14597984D01*
X12258277Y-14597984D02*
X12239230Y-14588460D01*
X12448753Y-14597984D02*
X12429706Y-14588460D01*
X12429706Y-14588460D02*
X12420182Y-14569412D01*
X12420182Y-14569412D02*
X12420182Y-14397984D01*
X12610658Y-14597984D02*
X12610658Y-14493222D01*
X12610658Y-14493222D02*
X12601134Y-14474174D01*
X12601134Y-14474174D02*
X12582087Y-14464650D01*
X12582087Y-14464650D02*
X12543992Y-14464650D01*
X12543992Y-14464650D02*
X12524944Y-14474174D01*
X12610658Y-14588460D02*
X12591611Y-14597984D01*
X12591611Y-14597984D02*
X12543992Y-14597984D01*
X12543992Y-14597984D02*
X12524944Y-14588460D01*
X12524944Y-14588460D02*
X12515420Y-14569412D01*
X12515420Y-14569412D02*
X12515420Y-14550365D01*
X12515420Y-14550365D02*
X12524944Y-14531317D01*
X12524944Y-14531317D02*
X12543992Y-14521793D01*
X12543992Y-14521793D02*
X12591611Y-14521793D01*
X12591611Y-14521793D02*
X12610658Y-14512269D01*
X12677325Y-14464650D02*
X12753515Y-14464650D01*
X12705896Y-14397984D02*
X12705896Y-14569412D01*
X12705896Y-14569412D02*
X12715420Y-14588460D01*
X12715420Y-14588460D02*
X12734468Y-14597984D01*
X12734468Y-14597984D02*
X12753515Y-14597984D01*
X12896373Y-14588460D02*
X12877325Y-14597984D01*
X12877325Y-14597984D02*
X12839230Y-14597984D01*
X12839230Y-14597984D02*
X12820182Y-14588460D01*
X12820182Y-14588460D02*
X12810658Y-14569412D01*
X12810658Y-14569412D02*
X12810658Y-14493222D01*
X12810658Y-14493222D02*
X12820182Y-14474174D01*
X12820182Y-14474174D02*
X12839230Y-14464650D01*
X12839230Y-14464650D02*
X12877325Y-14464650D01*
X12877325Y-14464650D02*
X12896373Y-14474174D01*
X12896373Y-14474174D02*
X12905896Y-14493222D01*
X12905896Y-14493222D02*
X12905896Y-14512269D01*
X12905896Y-14512269D02*
X12810658Y-14531317D01*
X13077325Y-14597984D02*
X13077325Y-14397984D01*
X13077325Y-14588460D02*
X13058277Y-14597984D01*
X13058277Y-14597984D02*
X13020182Y-14597984D01*
X13020182Y-14597984D02*
X13001134Y-14588460D01*
X13001134Y-14588460D02*
X12991611Y-14578936D01*
X12991611Y-14578936D02*
X12982087Y-14559888D01*
X12982087Y-14559888D02*
X12982087Y-14502746D01*
X12982087Y-14502746D02*
X12991611Y-14483698D01*
X12991611Y-14483698D02*
X13001134Y-14474174D01*
X13001134Y-14474174D02*
X13020182Y-14464650D01*
X13020182Y-14464650D02*
X13058277Y-14464650D01*
X13058277Y-14464650D02*
X13077325Y-14474174D01*
X13153515Y-14674174D02*
X13163039Y-14664650D01*
X13163039Y-14664650D02*
X13182087Y-14636079D01*
X13182087Y-14636079D02*
X13191611Y-14617031D01*
X13191611Y-14617031D02*
X13201134Y-14588460D01*
X13201134Y-14588460D02*
X13210658Y-14540841D01*
X13210658Y-14540841D02*
X13210658Y-14502746D01*
X13210658Y-14502746D02*
X13201134Y-14455127D01*
X13201134Y-14455127D02*
X13191611Y-14426555D01*
X13191611Y-14426555D02*
X13182087Y-14407508D01*
X13182087Y-14407508D02*
X13163039Y-14378936D01*
X13163039Y-14378936D02*
X13153515Y-14369412D01*
M02*
