%TF.GenerationSoftware,KiCad,Pcbnew,8.0.4*%
%TF.CreationDate,2024-08-29T16:54:05+02:00*%
%TF.ProjectId,smartEggTimer,736d6172-7445-4676-9754-696d65722e6b,rev?*%
%TF.SameCoordinates,Original*%
%TF.FileFunction,Copper,L2,Bot*%
%TF.FilePolarity,Positive*%
%FSLAX46Y46*%
G04 Gerber Fmt 4.6, Leading zero omitted, Abs format (unit mm)*
G04 Created by KiCad (PCBNEW 8.0.4) date 2024-08-29 16:54:05*
%MOMM*%
%LPD*%
G01*
G04 APERTURE LIST*
G04 Aperture macros list*
%AMHorizOval*
0 Thick line with rounded ends*
0 $1 width*
0 $2 $3 position (X,Y) of the first rounded end (center of the circle)*
0 $4 $5 position (X,Y) of the second rounded end (center of the circle)*
0 Add line between two ends*
20,1,$1,$2,$3,$4,$5,0*
0 Add two circle primitives to create the rounded ends*
1,1,$1,$2,$3*
1,1,$1,$4,$5*%
%AMRotRect*
0 Rectangle, with rotation*
0 The origin of the aperture is its center*
0 $1 length*
0 $2 width*
0 $3 Rotation angle, in degrees counterclockwise*
0 Add horizontal line*
21,1,$1,$2,0,0,$3*%
G04 Aperture macros list end*
%TA.AperFunction,ComponentPad*%
%ADD10C,1.800000*%
%TD*%
%TA.AperFunction,ComponentPad*%
%ADD11O,3.500000X3.300000*%
%TD*%
%TA.AperFunction,ComponentPad*%
%ADD12C,2.000000*%
%TD*%
%TA.AperFunction,ComponentPad*%
%ADD13R,1.700000X1.700000*%
%TD*%
%TA.AperFunction,ComponentPad*%
%ADD14O,1.700000X1.700000*%
%TD*%
%TA.AperFunction,ComponentPad*%
%ADD15C,1.524000*%
%TD*%
%TA.AperFunction,ComponentPad*%
%ADD16RotRect,1.700000X1.700000X60.000000*%
%TD*%
%TA.AperFunction,ComponentPad*%
%ADD17HorizOval,1.700000X0.000000X0.000000X0.000000X0.000000X0*%
%TD*%
%TA.AperFunction,ComponentPad*%
%ADD18RotRect,1.700000X1.700000X211.000000*%
%TD*%
%TA.AperFunction,ComponentPad*%
%ADD19HorizOval,1.700000X0.000000X0.000000X0.000000X0.000000X0*%
%TD*%
%TA.AperFunction,ComponentPad*%
%ADD20R,2.000000X1.905000*%
%TD*%
%TA.AperFunction,ComponentPad*%
%ADD21O,2.000000X1.905000*%
%TD*%
%TA.AperFunction,ComponentPad*%
%ADD22RotRect,1.700000X1.700000X75.000000*%
%TD*%
%TA.AperFunction,ComponentPad*%
%ADD23HorizOval,1.700000X0.000000X0.000000X0.000000X0.000000X0*%
%TD*%
%TA.AperFunction,ComponentPad*%
%ADD24O,2.200000X3.500000*%
%TD*%
%TA.AperFunction,ComponentPad*%
%ADD25R,1.500000X2.500000*%
%TD*%
%TA.AperFunction,ComponentPad*%
%ADD26O,1.500000X2.500000*%
%TD*%
%TA.AperFunction,ViaPad*%
%ADD27C,1.000000*%
%TD*%
%TA.AperFunction,ViaPad*%
%ADD28C,0.700000*%
%TD*%
%TA.AperFunction,Conductor*%
%ADD29C,0.300000*%
%TD*%
%TA.AperFunction,Conductor*%
%ADD30C,0.500000*%
%TD*%
%TA.AperFunction,Conductor*%
%ADD31C,0.200000*%
%TD*%
G04 APERTURE END LIST*
D10*
%TO.P,SW2,A,A*%
%TO.N,Net-(R8-Pad2)*%
X122489000Y-97460000D03*
%TO.P,SW2,B,B*%
%TO.N,Net-(R10-Pad1)*%
X122489000Y-102540000D03*
D11*
%TO.P,SW2,C,C*%
%TO.N,GND*%
X129989000Y-94400000D03*
D10*
X122489000Y-100000000D03*
D11*
X129989000Y-105600000D03*
%TD*%
D12*
%TO.P,SW6,1,1*%
%TO.N,GND*%
X106750000Y-132120000D03*
%TO.P,SW6,2,2*%
%TO.N,Net-(R20-Pad1)*%
X113250000Y-127620000D03*
X106750000Y-127620000D03*
%TD*%
D13*
%TO.P,J7,1,Pin_1*%
%TO.N,GND*%
X77600000Y-93520000D03*
D14*
%TO.P,J7,2,Pin_2*%
%TO.N,+3.3V*%
X77600000Y-96060000D03*
%TO.P,J7,3,Pin_3*%
%TO.N,/LED*%
X77600000Y-98600000D03*
%TD*%
D13*
%TO.P,J2,1,Pin_1*%
%TO.N,/JTAG_SWD*%
X104425000Y-118725000D03*
D14*
%TO.P,J2,2,Pin_2*%
%TO.N,/JTAG_SWCLK*%
X106965000Y-118725000D03*
%TO.P,J2,3,Pin_3*%
%TO.N,GND*%
X109505000Y-118725000D03*
%TD*%
D12*
%TO.P,SW4,1,1*%
%TO.N,GND*%
X103250000Y-133750000D03*
X96750000Y-133750000D03*
%TO.P,SW4,2,2*%
%TO.N,Net-(R16-Pad1)*%
X103250000Y-129250000D03*
X96750000Y-129250000D03*
%TD*%
%TO.P,SW3,1,1*%
%TO.N,GND*%
X65500000Y-103250000D03*
X65500000Y-96750000D03*
%TO.P,SW3,2,2*%
%TO.N,Net-(R14-Pad1)*%
X70000000Y-103250000D03*
X70000000Y-96750000D03*
%TD*%
D15*
%TO.P,DFPlayerMini1,16,BUSY*%
%TO.N,unconnected-(DFPlayerMini1-BUSY-Pad16)*%
X91740000Y-72525000D03*
%TO.P,DFPlayerMini1,15,USB-*%
%TO.N,unconnected-(DFPlayerMini1-USB--Pad15)*%
X94280000Y-72525000D03*
%TO.P,DFPlayerMini1,14,USB+*%
%TO.N,unconnected-(DFPlayerMini1-USB+-Pad14)*%
X96820000Y-72525000D03*
%TO.P,DFPlayerMini1,13,ADKEY_2*%
%TO.N,unconnected-(DFPlayerMini1-ADKEY_2-Pad13)*%
X99360000Y-72525000D03*
%TO.P,DFPlayerMini1,12,ADKEY_1*%
%TO.N,unconnected-(DFPlayerMini1-ADKEY_1-Pad12)*%
X101900000Y-72525000D03*
%TO.P,DFPlayerMini1,11,IO_2*%
%TO.N,unconnected-(DFPlayerMini1-IO_2-Pad11)*%
X104440000Y-72525000D03*
%TO.P,DFPlayerMini1,10,GND*%
%TO.N,/DFPlayer-Minus*%
X106980000Y-72525000D03*
%TO.P,DFPlayerMini1,9,IO_1*%
%TO.N,unconnected-(DFPlayerMini1-IO_1-Pad9)*%
X109520000Y-72525000D03*
%TO.P,DFPlayerMini1,8,SPK_2*%
%TO.N,/SPK-*%
X109520000Y-90559000D03*
%TO.P,DFPlayerMini1,7,GND*%
%TO.N,/DFPlayer-Minus*%
X106980000Y-90559000D03*
%TO.P,DFPlayerMini1,6,SPK_1*%
%TO.N,/SPK+*%
X104440000Y-90559000D03*
%TO.P,DFPlayerMini1,5,DAC_L*%
%TO.N,/DAC_L*%
X101900000Y-90559000D03*
%TO.P,DFPlayerMini1,4,DAC_R*%
%TO.N,/DAC_R*%
X99360000Y-90559000D03*
%TO.P,DFPlayerMini1,3,TX*%
%TO.N,/USART2_RX*%
X96820000Y-90559000D03*
%TO.P,DFPlayerMini1,2,RX*%
%TO.N,/USART2_TX*%
X94280000Y-90559000D03*
%TO.P,DFPlayerMini1,1,VCC*%
%TO.N,/Battery-SW*%
X91740000Y-90559000D03*
%TD*%
D12*
%TO.P,SW5,1,1*%
%TO.N,GND*%
X93250000Y-132120000D03*
%TO.P,SW5,2,2*%
%TO.N,Net-(R18-Pad1)*%
X93250000Y-127620000D03*
X86750000Y-127620000D03*
%TD*%
D13*
%TO.P,J1,1,Pin_1*%
%TO.N,+3.3V*%
X105600000Y-99840000D03*
D14*
%TO.P,J1,2,Pin_2*%
%TO.N,/I2C1_SDA*%
X105600000Y-102380000D03*
%TO.P,J1,3,Pin_3*%
%TO.N,/I2C1_SCL*%
X105600000Y-104920000D03*
%TO.P,J1,4,Pin_4*%
%TO.N,unconnected-(J1-Pin_4-Pad4)*%
X105600000Y-107460000D03*
%TO.P,J1,5,Pin_5*%
%TO.N,GND*%
X105600000Y-110000000D03*
%TD*%
D16*
%TO.P,J5,1,Pin_1*%
%TO.N,/SPK-*%
X115200000Y-70530000D03*
D17*
%TO.P,J5,2,Pin_2*%
%TO.N,/SPK+*%
X117399705Y-71800000D03*
%TD*%
D18*
%TO.P,J8,1,Pin_1*%
%TO.N,/DAC_R*%
X130108197Y-86577205D03*
D19*
%TO.P,J8,2,Pin_2*%
%TO.N,/DAC_L*%
X128800000Y-84400000D03*
%TO.P,J8,3,Pin_3*%
%TO.N,GND*%
X127491804Y-82222795D03*
%TD*%
D13*
%TO.P,J3,1,Pin_1*%
%TO.N,/USART3_TX*%
X84925000Y-114400000D03*
D14*
%TO.P,J3,2,Pin_2*%
%TO.N,/USART3_RX*%
X82385000Y-114400000D03*
%TO.P,J3,3,Pin_3*%
%TO.N,GND*%
X79845000Y-114400000D03*
%TD*%
D13*
%TO.P,J4,1,Pin_1*%
%TO.N,+3.3V*%
X114475000Y-97260000D03*
D14*
%TO.P,J4,2,Pin_2*%
X114475000Y-99800000D03*
%TO.P,J4,3,Pin_3*%
%TO.N,/I2C1_SDA*%
X114475000Y-102340000D03*
%TO.P,J4,4,Pin_4*%
%TO.N,/I2C1_SCL*%
X114475000Y-104880000D03*
%TO.P,J4,5,Pin_5*%
%TO.N,+3.3V*%
X114475000Y-107420000D03*
%TO.P,J4,6,Pin_6*%
%TO.N,GND*%
X114475000Y-109960000D03*
%TD*%
D20*
%TO.P,Q1,1,G*%
%TO.N,Net-(Q1-G)*%
X115550000Y-79310000D03*
D21*
%TO.P,Q1,2,D*%
%TO.N,/DFPlayer-Minus*%
X115550000Y-81850000D03*
%TO.P,Q1,3,S*%
%TO.N,GND*%
X115550000Y-84390000D03*
%TD*%
D13*
%TO.P,OLED-15W-C1,1,VCC*%
%TO.N,+3.3V*%
X119640000Y-115000000D03*
D14*
%TO.P,OLED-15W-C1,2,GND*%
%TO.N,GND*%
X117100000Y-115000000D03*
%TO.P,OLED-15W-C1,3,DIN*%
%TO.N,/I2C1_SDA*%
X114560000Y-115000000D03*
%TO.P,OLED-15W-C1,4,CLK*%
%TO.N,/I2C1_SCL*%
X112020000Y-115000000D03*
%TO.P,OLED-15W-C1,5,CS*%
%TO.N,unconnected-(OLED-15W-C1-CS-Pad5)*%
X109480000Y-115000000D03*
%TO.P,OLED-15W-C1,6,D/C*%
%TO.N,unconnected-(OLED-15W-C1-D{slash}C-Pad6)*%
X106940000Y-115000000D03*
%TO.P,OLED-15W-C1,7,RES*%
%TO.N,/display_reset*%
X104400000Y-115000000D03*
%TD*%
D22*
%TO.P,J6,1,Pin_1*%
%TO.N,/Bat+*%
X108200000Y-68000000D03*
D23*
%TO.P,J6,2,Pin_2*%
%TO.N,GND*%
X110653452Y-68657400D03*
%TD*%
D24*
%TO.P,SW7,*%
%TO.N,*%
X95900000Y-68890001D03*
X104100002Y-68889999D03*
D25*
%TO.P,SW7,1,A*%
%TO.N,/Battery-SW*%
X98000001Y-68890000D03*
D26*
%TO.P,SW7,2,B*%
%TO.N,/Bat+*%
X100000000Y-68890000D03*
%TO.P,SW7,3,C*%
%TO.N,unconnected-(SW7-C-Pad3)*%
X102000002Y-68890000D03*
%TD*%
D12*
%TO.P,SW1,1,1*%
%TO.N,GND*%
X87925000Y-75304165D03*
X84675000Y-69675000D03*
%TO.P,SW1,2,2*%
%TO.N,/NRST*%
X84027886Y-77554166D03*
X80777885Y-71925000D03*
%TD*%
D27*
%TO.N,+3.3V*%
X95250000Y-85125000D03*
X99125000Y-117525000D03*
X101575000Y-104300000D03*
X94925000Y-121575000D03*
X100925000Y-124125000D03*
X88725000Y-82400000D03*
X95900000Y-94625000D03*
X102475000Y-100300000D03*
X101175000Y-95975000D03*
X100575000Y-87300000D03*
X80150000Y-103825000D03*
X100925000Y-126125000D03*
X73500000Y-92050000D03*
X82300000Y-103125000D03*
X77450000Y-109950000D03*
X71525000Y-92050000D03*
X97925000Y-122650000D03*
D28*
%TO.N,GND*%
X105000000Y-125800000D03*
X98025000Y-79050000D03*
X103800000Y-78575000D03*
X91225000Y-97325000D03*
X95000000Y-128200000D03*
X103800000Y-79575000D03*
X100600000Y-101200000D03*
X79800000Y-108800000D03*
X83000000Y-101200000D03*
X85215000Y-83985000D03*
X84800000Y-125800000D03*
X101675000Y-79200000D03*
X103800000Y-80575000D03*
X101675000Y-80000000D03*
X109125000Y-79125000D03*
X88200000Y-93600000D03*
X93200000Y-97000000D03*
X88815000Y-89185000D03*
X87600000Y-96800000D03*
X94800000Y-113600000D03*
X98025000Y-80150000D03*
%TO.N,/USART2_RX*%
X84000000Y-92800000D03*
X87200000Y-92800000D03*
%TO.N,/I2C1_SDA*%
X111075000Y-103625000D03*
X111075000Y-106475000D03*
%TO.N,/USART3_TX*%
X89300000Y-108625000D03*
X86400000Y-111600000D03*
%TO.N,/LED*%
X83400000Y-98600000D03*
X79750000Y-98600000D03*
%TO.N,/NRST*%
X83800000Y-105450000D03*
X87700000Y-104425000D03*
%TO.N,Net-(Q1-G)*%
X113400000Y-77500000D03*
X110200000Y-79600000D03*
%TD*%
D29*
%TO.N,/USART3_TX*%
X86400000Y-111600000D02*
X86400000Y-111525000D01*
X86400000Y-111525000D02*
X89300000Y-108625000D01*
D30*
%TO.N,+3.3V*%
X100575000Y-87300000D02*
X100575000Y-93250000D01*
X96850000Y-121575000D02*
X99125000Y-119300000D01*
X101575000Y-104300000D02*
X101575000Y-101200000D01*
X77450000Y-106525000D02*
X77450000Y-109950000D01*
X81600000Y-103825000D02*
X80150000Y-103825000D01*
X73500000Y-92050000D02*
X71525000Y-92050000D01*
X96850000Y-121575000D02*
X97925000Y-122650000D01*
X100575000Y-93250000D02*
X100575000Y-95325000D01*
X82300000Y-103125000D02*
X81600000Y-103825000D01*
X101575000Y-101200000D02*
X102475000Y-100300000D01*
X98025000Y-122750000D02*
X97925000Y-122650000D01*
X94925000Y-121575000D02*
X96850000Y-121575000D01*
X97275000Y-93250000D02*
X95900000Y-94625000D01*
X80150000Y-103825000D02*
X77450000Y-106525000D01*
X91450000Y-85125000D02*
X88725000Y-82400000D01*
X101225000Y-95975000D02*
X101175000Y-95975000D01*
X100925000Y-124125000D02*
X100925000Y-126125000D01*
X95250000Y-85125000D02*
X91450000Y-85125000D01*
X100575000Y-95325000D02*
X101225000Y-95975000D01*
X99125000Y-119300000D02*
X99125000Y-117525000D01*
X100575000Y-93250000D02*
X97275000Y-93250000D01*
D29*
%TO.N,/USART2_RX*%
X84000000Y-92800000D02*
X87200000Y-92800000D01*
%TO.N,/I2C1_SDA*%
X111075000Y-103625000D02*
X111075000Y-106475000D01*
%TO.N,/LED*%
X83400000Y-98600000D02*
X79750000Y-98600000D01*
D31*
X83400000Y-98600000D02*
X79800000Y-98600000D01*
D29*
%TO.N,Net-(Q1-G)*%
X110200000Y-79600000D02*
X112300000Y-77500000D01*
X112300000Y-77500000D02*
X113400000Y-77500000D01*
%TO.N,/NRST*%
X86675000Y-105450000D02*
X87700000Y-104425000D01*
X83800000Y-105450000D02*
X86675000Y-105450000D01*
%TD*%
%TA.AperFunction,Conductor*%
%TO.N,GND*%
G36*
X101194218Y-64220458D02*
G01*
X101198287Y-64220594D01*
X102389101Y-64280342D01*
X102393191Y-64280616D01*
X103581296Y-64380117D01*
X103585403Y-64380530D01*
X104769590Y-64519684D01*
X104773651Y-64520230D01*
X105952477Y-64698870D01*
X105956514Y-64699551D01*
X107128759Y-64917489D01*
X107132720Y-64918293D01*
X108297057Y-65175287D01*
X108301036Y-65176236D01*
X109456093Y-65471981D01*
X109460020Y-65473057D01*
X110604573Y-65807240D01*
X110608454Y-65808444D01*
X111741145Y-66180668D01*
X111745060Y-66182027D01*
X112864681Y-66591891D01*
X112868514Y-66593367D01*
X113653073Y-66910688D01*
X113973827Y-67040420D01*
X113977642Y-67042038D01*
X115067375Y-67525765D01*
X115071134Y-67527510D01*
X116144067Y-68047366D01*
X116147766Y-68049235D01*
X117202772Y-68604675D01*
X117206347Y-68606634D01*
X118242230Y-69197033D01*
X118245786Y-69199140D01*
X119019423Y-69675005D01*
X119261317Y-69823794D01*
X119264802Y-69826019D01*
X119489240Y-69974631D01*
X120258881Y-70484251D01*
X120262298Y-70486596D01*
X121233849Y-71177694D01*
X121237185Y-71180152D01*
X122185105Y-71903330D01*
X122188357Y-71905899D01*
X122591739Y-72235538D01*
X123041196Y-72602830D01*
X123111534Y-72660309D01*
X123114699Y-72662984D01*
X124012208Y-73447870D01*
X124015281Y-73450650D01*
X124886026Y-74265055D01*
X124889005Y-74267936D01*
X125732063Y-75110994D01*
X125734944Y-75113973D01*
X126549349Y-75984718D01*
X126552129Y-75987791D01*
X127337015Y-76885300D01*
X127339690Y-76888465D01*
X128094100Y-77811642D01*
X128096669Y-77814894D01*
X128819847Y-78762814D01*
X128822305Y-78766150D01*
X129513403Y-79737701D01*
X129515748Y-79741118D01*
X130173975Y-80735189D01*
X130176205Y-80738682D01*
X130800854Y-81754204D01*
X130802966Y-81757769D01*
X130970759Y-82052170D01*
X131339331Y-82698847D01*
X131393349Y-82793623D01*
X131395335Y-82797249D01*
X131480298Y-82958626D01*
X131950764Y-83852233D01*
X131952633Y-83855932D01*
X132472489Y-84928865D01*
X132474234Y-84932624D01*
X132957961Y-86022357D01*
X132959579Y-86026172D01*
X133406625Y-87131468D01*
X133408114Y-87135335D01*
X133817972Y-88254939D01*
X133819331Y-88258854D01*
X134191543Y-89391507D01*
X134192771Y-89395465D01*
X134526932Y-90539944D01*
X134528027Y-90543941D01*
X134823757Y-91698937D01*
X134824718Y-91702968D01*
X134963574Y-92332071D01*
X135080825Y-92863290D01*
X135081695Y-92867229D01*
X135082520Y-92871290D01*
X135300444Y-94043461D01*
X135301133Y-94047547D01*
X135479765Y-95226325D01*
X135480318Y-95230432D01*
X135619468Y-96414588D01*
X135619882Y-96418711D01*
X135719381Y-97606786D01*
X135719658Y-97610921D01*
X135779403Y-98801675D01*
X135779542Y-98805817D01*
X135799465Y-99997928D01*
X135799465Y-100002072D01*
X135779542Y-101194182D01*
X135779403Y-101198324D01*
X135719658Y-102389078D01*
X135719381Y-102393213D01*
X135619882Y-103581288D01*
X135619468Y-103585411D01*
X135480318Y-104769567D01*
X135479765Y-104773674D01*
X135301133Y-105952452D01*
X135300444Y-105956538D01*
X135082520Y-107128709D01*
X135081695Y-107132770D01*
X134824718Y-108297031D01*
X134823757Y-108301062D01*
X134528027Y-109456058D01*
X134526932Y-109460055D01*
X134192771Y-110604534D01*
X134191543Y-110608492D01*
X133819331Y-111741145D01*
X133817972Y-111745060D01*
X133408114Y-112864664D01*
X133406625Y-112868531D01*
X132959579Y-113973827D01*
X132957961Y-113977642D01*
X132474234Y-115067375D01*
X132472489Y-115071134D01*
X131952633Y-116144067D01*
X131950764Y-116147766D01*
X131395340Y-117202742D01*
X131393349Y-117206376D01*
X130802966Y-118242230D01*
X130800854Y-118245795D01*
X130176205Y-119261317D01*
X130173975Y-119264810D01*
X129515748Y-120258881D01*
X129513403Y-120262298D01*
X128822305Y-121233849D01*
X128819847Y-121237185D01*
X128096669Y-122185105D01*
X128094100Y-122188357D01*
X127339690Y-123111534D01*
X127337015Y-123114699D01*
X126552129Y-124012208D01*
X126549349Y-124015281D01*
X125734944Y-124886026D01*
X125732063Y-124889005D01*
X124889005Y-125732063D01*
X124886026Y-125734944D01*
X124015281Y-126549349D01*
X124012208Y-126552129D01*
X123114699Y-127337015D01*
X123111534Y-127339690D01*
X122188357Y-128094100D01*
X122185105Y-128096669D01*
X121237185Y-128819847D01*
X121233849Y-128822305D01*
X120262298Y-129513403D01*
X120258881Y-129515748D01*
X119264810Y-130173975D01*
X119261317Y-130176205D01*
X118245795Y-130800854D01*
X118242230Y-130802966D01*
X117206376Y-131393349D01*
X117202742Y-131395340D01*
X116147766Y-131950764D01*
X116144067Y-131952633D01*
X115071134Y-132472489D01*
X115067375Y-132474234D01*
X113977642Y-132957961D01*
X113973827Y-132959579D01*
X112868531Y-133406625D01*
X112864664Y-133408114D01*
X111745060Y-133817972D01*
X111741145Y-133819331D01*
X110608492Y-134191543D01*
X110604534Y-134192771D01*
X109460055Y-134526932D01*
X109456058Y-134528027D01*
X108301062Y-134823757D01*
X108297031Y-134824718D01*
X107132770Y-135081695D01*
X107128709Y-135082520D01*
X105956538Y-135300444D01*
X105952452Y-135301133D01*
X104773674Y-135479765D01*
X104769567Y-135480318D01*
X103585411Y-135619468D01*
X103581288Y-135619882D01*
X102393213Y-135719381D01*
X102389078Y-135719658D01*
X101198324Y-135779403D01*
X101194182Y-135779542D01*
X100002072Y-135799465D01*
X99997928Y-135799465D01*
X98805817Y-135779542D01*
X98801675Y-135779403D01*
X97610921Y-135719658D01*
X97606786Y-135719381D01*
X96418711Y-135619882D01*
X96414588Y-135619468D01*
X95230432Y-135480318D01*
X95226325Y-135479765D01*
X94047547Y-135301133D01*
X94043461Y-135300444D01*
X92871290Y-135082520D01*
X92867229Y-135081695D01*
X91702968Y-134824718D01*
X91698937Y-134823757D01*
X90543941Y-134528027D01*
X90539944Y-134526932D01*
X89395465Y-134192771D01*
X89391507Y-134191543D01*
X88258854Y-133819331D01*
X88254939Y-133817972D01*
X88069244Y-133749994D01*
X95244859Y-133749994D01*
X95244859Y-133750005D01*
X95265385Y-133997729D01*
X95265387Y-133997738D01*
X95326412Y-134238717D01*
X95426266Y-134466364D01*
X95526564Y-134619882D01*
X96226212Y-133920234D01*
X96237482Y-133962292D01*
X96309890Y-134087708D01*
X96412292Y-134190110D01*
X96537708Y-134262518D01*
X96579765Y-134273787D01*
X95879942Y-134973609D01*
X95926768Y-135010055D01*
X95926770Y-135010056D01*
X96145385Y-135128364D01*
X96145396Y-135128369D01*
X96380506Y-135209083D01*
X96625707Y-135250000D01*
X96874293Y-135250000D01*
X97119493Y-135209083D01*
X97354603Y-135128369D01*
X97354614Y-135128364D01*
X97573228Y-135010057D01*
X97573231Y-135010055D01*
X97620056Y-134973609D01*
X96920234Y-134273787D01*
X96962292Y-134262518D01*
X97087708Y-134190110D01*
X97190110Y-134087708D01*
X97262518Y-133962292D01*
X97273787Y-133920234D01*
X97973434Y-134619882D01*
X98073731Y-134466369D01*
X98173587Y-134238717D01*
X98234612Y-133997738D01*
X98234614Y-133997729D01*
X98255141Y-133750005D01*
X98255141Y-133749994D01*
X101744859Y-133749994D01*
X101744859Y-133750005D01*
X101765385Y-133997729D01*
X101765387Y-133997738D01*
X101826412Y-134238717D01*
X101926266Y-134466364D01*
X102026564Y-134619882D01*
X102726212Y-133920234D01*
X102737482Y-133962292D01*
X102809890Y-134087708D01*
X102912292Y-134190110D01*
X103037708Y-134262518D01*
X103079765Y-134273787D01*
X102379942Y-134973609D01*
X102426768Y-135010055D01*
X102426770Y-135010056D01*
X102645385Y-135128364D01*
X102645396Y-135128369D01*
X102880506Y-135209083D01*
X103125707Y-135250000D01*
X103374293Y-135250000D01*
X103619493Y-135209083D01*
X103854603Y-135128369D01*
X103854614Y-135128364D01*
X104073228Y-135010057D01*
X104073231Y-135010055D01*
X104120056Y-134973609D01*
X103420234Y-134273787D01*
X103462292Y-134262518D01*
X103587708Y-134190110D01*
X103690110Y-134087708D01*
X103762518Y-133962292D01*
X103773787Y-133920235D01*
X104473434Y-134619882D01*
X104573731Y-134466369D01*
X104673587Y-134238717D01*
X104734612Y-133997738D01*
X104734614Y-133997729D01*
X104755141Y-133750005D01*
X104755141Y-133749994D01*
X104734614Y-133502270D01*
X104734612Y-133502261D01*
X104673587Y-133261282D01*
X104573731Y-133033630D01*
X104473434Y-132880116D01*
X103773787Y-133579764D01*
X103762518Y-133537708D01*
X103690110Y-133412292D01*
X103587708Y-133309890D01*
X103462292Y-133237482D01*
X103420235Y-133226212D01*
X104120057Y-132526390D01*
X104120056Y-132526389D01*
X104073229Y-132489943D01*
X103854614Y-132371635D01*
X103854603Y-132371630D01*
X103619493Y-132290916D01*
X103374293Y-132250000D01*
X103125707Y-132250000D01*
X102880506Y-132290916D01*
X102645396Y-132371630D01*
X102645390Y-132371632D01*
X102426761Y-132489949D01*
X102379942Y-132526388D01*
X102379942Y-132526390D01*
X103079765Y-133226212D01*
X103037708Y-133237482D01*
X102912292Y-133309890D01*
X102809890Y-133412292D01*
X102737482Y-133537708D01*
X102726212Y-133579764D01*
X102026564Y-132880116D01*
X101926267Y-133033632D01*
X101826412Y-133261282D01*
X101765387Y-133502261D01*
X101765385Y-133502270D01*
X101744859Y-133749994D01*
X98255141Y-133749994D01*
X98234614Y-133502270D01*
X98234612Y-133502261D01*
X98173587Y-133261282D01*
X98073731Y-133033630D01*
X97973434Y-132880116D01*
X97273787Y-133579764D01*
X97262518Y-133537708D01*
X97190110Y-133412292D01*
X97087708Y-133309890D01*
X96962292Y-133237482D01*
X96920235Y-133226212D01*
X97620057Y-132526390D01*
X97620056Y-132526389D01*
X97573229Y-132489943D01*
X97354614Y-132371635D01*
X97354603Y-132371630D01*
X97119493Y-132290916D01*
X96874293Y-132250000D01*
X96625707Y-132250000D01*
X96380506Y-132290916D01*
X96145396Y-132371630D01*
X96145390Y-132371632D01*
X95926761Y-132489949D01*
X95879942Y-132526388D01*
X95879942Y-132526390D01*
X96579765Y-133226212D01*
X96537708Y-133237482D01*
X96412292Y-133309890D01*
X96309890Y-133412292D01*
X96237482Y-133537708D01*
X96226212Y-133579764D01*
X95526564Y-132880116D01*
X95426267Y-133033632D01*
X95326412Y-133261282D01*
X95265387Y-133502261D01*
X95265385Y-133502270D01*
X95244859Y-133749994D01*
X88069244Y-133749994D01*
X87135335Y-133408114D01*
X87131468Y-133406625D01*
X86026172Y-132959579D01*
X86022357Y-132957961D01*
X84932624Y-132474234D01*
X84928865Y-132472489D01*
X84038629Y-132041153D01*
X85949500Y-132041153D01*
X85949500Y-132198846D01*
X85980261Y-132353489D01*
X85980264Y-132353501D01*
X86040602Y-132499172D01*
X86040609Y-132499185D01*
X86128210Y-132630288D01*
X86128213Y-132630292D01*
X86239707Y-132741786D01*
X86239711Y-132741789D01*
X86370814Y-132829390D01*
X86370827Y-132829397D01*
X86516498Y-132889735D01*
X86516503Y-132889737D01*
X86671153Y-132920499D01*
X86671156Y-132920500D01*
X86671158Y-132920500D01*
X86828844Y-132920500D01*
X86828845Y-132920499D01*
X86983497Y-132889737D01*
X87129179Y-132829394D01*
X87260289Y-132741789D01*
X87371789Y-132630289D01*
X87459394Y-132499179D01*
X87469727Y-132474234D01*
X87519735Y-132353501D01*
X87519737Y-132353497D01*
X87550500Y-132198842D01*
X87550500Y-132119994D01*
X91744859Y-132119994D01*
X91744859Y-132120005D01*
X91765385Y-132367729D01*
X91765387Y-132367738D01*
X91826412Y-132608717D01*
X91926266Y-132836364D01*
X92026564Y-132989882D01*
X92726212Y-132290234D01*
X92737482Y-132332292D01*
X92809890Y-132457708D01*
X92912292Y-132560110D01*
X93037708Y-132632518D01*
X93079765Y-132643787D01*
X92379942Y-133343609D01*
X92426768Y-133380055D01*
X92426770Y-133380056D01*
X92645385Y-133498364D01*
X92645396Y-133498369D01*
X92880506Y-133579083D01*
X93125707Y-133620000D01*
X93374293Y-133620000D01*
X93619493Y-133579083D01*
X93854603Y-133498369D01*
X93854614Y-133498364D01*
X94073228Y-133380057D01*
X94073231Y-133380055D01*
X94120056Y-133343609D01*
X93420234Y-132643787D01*
X93462292Y-132632518D01*
X93587708Y-132560110D01*
X93690110Y-132457708D01*
X93762518Y-132332292D01*
X93773787Y-132290235D01*
X94473434Y-132989882D01*
X94573731Y-132836369D01*
X94673587Y-132608717D01*
X94734612Y-132367738D01*
X94734614Y-132367729D01*
X94755141Y-132120005D01*
X94755141Y-132119994D01*
X105244859Y-132119994D01*
X105244859Y-132120005D01*
X105265385Y-132367729D01*
X105265387Y-132367738D01*
X105326412Y-132608717D01*
X105426266Y-132836364D01*
X105526564Y-132989882D01*
X106226212Y-132290234D01*
X106237482Y-132332292D01*
X106309890Y-132457708D01*
X106412292Y-132560110D01*
X106537708Y-132632518D01*
X106579765Y-132643787D01*
X105879942Y-133343609D01*
X105926768Y-133380055D01*
X105926770Y-133380056D01*
X106145385Y-133498364D01*
X106145396Y-133498369D01*
X106380506Y-133579083D01*
X106625707Y-133620000D01*
X106874293Y-133620000D01*
X107119493Y-133579083D01*
X107354603Y-133498369D01*
X107354614Y-133498364D01*
X107573228Y-133380057D01*
X107573231Y-133380055D01*
X107620056Y-133343609D01*
X106920234Y-132643787D01*
X106962292Y-132632518D01*
X107087708Y-132560110D01*
X107190110Y-132457708D01*
X107262518Y-132332292D01*
X107273787Y-132290234D01*
X107973434Y-132989882D01*
X108073731Y-132836369D01*
X108173587Y-132608717D01*
X108234612Y-132367738D01*
X108234614Y-132367729D01*
X108255141Y-132120005D01*
X108255141Y-132119994D01*
X108248608Y-132041153D01*
X112449500Y-132041153D01*
X112449500Y-132198846D01*
X112480261Y-132353489D01*
X112480264Y-132353501D01*
X112540602Y-132499172D01*
X112540609Y-132499185D01*
X112628210Y-132630288D01*
X112628213Y-132630292D01*
X112739707Y-132741786D01*
X112739711Y-132741789D01*
X112870814Y-132829390D01*
X112870827Y-132829397D01*
X113016498Y-132889735D01*
X113016503Y-132889737D01*
X113171153Y-132920499D01*
X113171156Y-132920500D01*
X113171158Y-132920500D01*
X113328844Y-132920500D01*
X113328845Y-132920499D01*
X113483497Y-132889737D01*
X113629179Y-132829394D01*
X113760289Y-132741789D01*
X113871789Y-132630289D01*
X113959394Y-132499179D01*
X113969727Y-132474234D01*
X114019735Y-132353501D01*
X114019737Y-132353497D01*
X114050500Y-132198842D01*
X114050500Y-132041158D01*
X114050500Y-132041155D01*
X114050499Y-132041153D01*
X114019738Y-131886510D01*
X114019737Y-131886503D01*
X113970009Y-131766447D01*
X113959397Y-131740827D01*
X113959390Y-131740814D01*
X113871789Y-131609711D01*
X113871786Y-131609707D01*
X113760292Y-131498213D01*
X113760288Y-131498210D01*
X113629185Y-131410609D01*
X113629172Y-131410602D01*
X113483501Y-131350264D01*
X113483489Y-131350261D01*
X113328845Y-131319500D01*
X113328842Y-131319500D01*
X113171158Y-131319500D01*
X113171155Y-131319500D01*
X113016510Y-131350261D01*
X113016498Y-131350264D01*
X112870827Y-131410602D01*
X112870814Y-131410609D01*
X112739711Y-131498210D01*
X112739707Y-131498213D01*
X112628213Y-131609707D01*
X112628210Y-131609711D01*
X112540609Y-131740814D01*
X112540602Y-131740827D01*
X112480264Y-131886498D01*
X112480261Y-131886510D01*
X112449500Y-132041153D01*
X108248608Y-132041153D01*
X108234614Y-131872270D01*
X108234612Y-131872261D01*
X108173587Y-131631282D01*
X108073731Y-131403630D01*
X107973434Y-131250116D01*
X107273787Y-131949764D01*
X107262518Y-131907708D01*
X107190110Y-131782292D01*
X107087708Y-131679890D01*
X106962292Y-131607482D01*
X106920235Y-131596212D01*
X107620057Y-130896390D01*
X107620056Y-130896389D01*
X107573229Y-130859943D01*
X107354614Y-130741635D01*
X107354603Y-130741630D01*
X107119493Y-130660916D01*
X106874293Y-130620000D01*
X106625707Y-130620000D01*
X106380506Y-130660916D01*
X106145396Y-130741630D01*
X106145390Y-130741632D01*
X105926761Y-130859949D01*
X105879942Y-130896388D01*
X105879942Y-130896390D01*
X106579765Y-131596212D01*
X106537708Y-131607482D01*
X106412292Y-131679890D01*
X106309890Y-131782292D01*
X106237482Y-131907708D01*
X106226212Y-131949764D01*
X105526564Y-131250116D01*
X105426267Y-131403632D01*
X105326412Y-131631282D01*
X105265387Y-131872261D01*
X105265385Y-131872270D01*
X105244859Y-132119994D01*
X94755141Y-132119994D01*
X94734614Y-131872270D01*
X94734612Y-131872261D01*
X94673587Y-131631282D01*
X94573731Y-131403630D01*
X94473434Y-131250116D01*
X93773787Y-131949764D01*
X93762518Y-131907708D01*
X93690110Y-131782292D01*
X93587708Y-131679890D01*
X93462292Y-131607482D01*
X93420235Y-131596212D01*
X94120057Y-130896390D01*
X94120056Y-130896389D01*
X94073229Y-130859943D01*
X93854614Y-130741635D01*
X93854603Y-130741630D01*
X93619493Y-130660916D01*
X93374293Y-130620000D01*
X93125707Y-130620000D01*
X92880506Y-130660916D01*
X92645396Y-130741630D01*
X92645390Y-130741632D01*
X92426761Y-130859949D01*
X92379942Y-130896388D01*
X92379942Y-130896390D01*
X93079765Y-131596212D01*
X93037708Y-131607482D01*
X92912292Y-131679890D01*
X92809890Y-131782292D01*
X92737482Y-131907708D01*
X92726212Y-131949764D01*
X92026564Y-131250116D01*
X91926267Y-131403632D01*
X91826412Y-131631282D01*
X91765387Y-131872261D01*
X91765385Y-131872270D01*
X91744859Y-132119994D01*
X87550500Y-132119994D01*
X87550500Y-132041158D01*
X87550500Y-132041155D01*
X87550499Y-132041153D01*
X87519738Y-131886510D01*
X87519737Y-131886503D01*
X87470009Y-131766447D01*
X87459397Y-131740827D01*
X87459390Y-131740814D01*
X87371789Y-131609711D01*
X87371786Y-131609707D01*
X87260292Y-131498213D01*
X87260288Y-131498210D01*
X87129185Y-131410609D01*
X87129172Y-131410602D01*
X86983501Y-131350264D01*
X86983489Y-131350261D01*
X86828845Y-131319500D01*
X86828842Y-131319500D01*
X86671158Y-131319500D01*
X86671155Y-131319500D01*
X86516510Y-131350261D01*
X86516498Y-131350264D01*
X86370827Y-131410602D01*
X86370814Y-131410609D01*
X86239711Y-131498210D01*
X86239707Y-131498213D01*
X86128213Y-131609707D01*
X86128210Y-131609711D01*
X86040609Y-131740814D01*
X86040602Y-131740827D01*
X85980264Y-131886498D01*
X85980261Y-131886510D01*
X85949500Y-132041153D01*
X84038629Y-132041153D01*
X83855932Y-131952633D01*
X83852233Y-131950764D01*
X82826259Y-131410609D01*
X82797249Y-131395335D01*
X82793623Y-131393349D01*
X82718028Y-131350264D01*
X82012508Y-130948154D01*
X81757769Y-130802966D01*
X81754204Y-130800854D01*
X80738682Y-130176205D01*
X80735189Y-130173975D01*
X79741118Y-129515748D01*
X79737701Y-129513403D01*
X79367406Y-129249999D01*
X95394341Y-129249999D01*
X95394341Y-129250000D01*
X95414936Y-129485403D01*
X95414938Y-129485413D01*
X95476094Y-129713655D01*
X95476096Y-129713659D01*
X95476097Y-129713663D01*
X95575965Y-129927830D01*
X95575967Y-129927834D01*
X95684281Y-130082521D01*
X95711505Y-130121401D01*
X95878599Y-130288495D01*
X95975384Y-130356265D01*
X96072165Y-130424032D01*
X96072167Y-130424033D01*
X96072170Y-130424035D01*
X96286337Y-130523903D01*
X96514592Y-130585063D01*
X96702918Y-130601539D01*
X96749999Y-130605659D01*
X96750000Y-130605659D01*
X96750001Y-130605659D01*
X96789234Y-130602226D01*
X96985408Y-130585063D01*
X97213663Y-130523903D01*
X97427830Y-130424035D01*
X97621401Y-130288495D01*
X97788495Y-130121401D01*
X97924035Y-129927830D01*
X98023903Y-129713663D01*
X98085063Y-129485408D01*
X98105659Y-129250000D01*
X98105659Y-129249999D01*
X101894341Y-129249999D01*
X101894341Y-129250000D01*
X101914936Y-129485403D01*
X101914938Y-129485413D01*
X101976094Y-129713655D01*
X101976096Y-129713659D01*
X101976097Y-129713663D01*
X102075965Y-129927830D01*
X102075967Y-129927834D01*
X102184281Y-130082521D01*
X102211505Y-130121401D01*
X102378599Y-130288495D01*
X102475384Y-130356265D01*
X102572165Y-130424032D01*
X102572167Y-130424033D01*
X102572170Y-130424035D01*
X102786337Y-130523903D01*
X103014592Y-130585063D01*
X103202918Y-130601539D01*
X103249999Y-130605659D01*
X103250000Y-130605659D01*
X103250001Y-130605659D01*
X103289234Y-130602226D01*
X103485408Y-130585063D01*
X103713663Y-130523903D01*
X103927830Y-130424035D01*
X104121401Y-130288495D01*
X104288495Y-130121401D01*
X104424035Y-129927830D01*
X104523903Y-129713663D01*
X104585063Y-129485408D01*
X104605659Y-129250000D01*
X104585063Y-129014592D01*
X104538626Y-128841285D01*
X104523905Y-128786344D01*
X104523904Y-128786343D01*
X104523903Y-128786337D01*
X104424035Y-128572171D01*
X104367481Y-128491402D01*
X104288494Y-128378597D01*
X104121402Y-128211506D01*
X104121395Y-128211501D01*
X103927834Y-128075967D01*
X103927830Y-128075965D01*
X103927828Y-128075964D01*
X103713663Y-127976097D01*
X103713659Y-127976096D01*
X103713655Y-127976094D01*
X103485413Y-127914938D01*
X103485403Y-127914936D01*
X103250001Y-127894341D01*
X103249999Y-127894341D01*
X103014596Y-127914936D01*
X103014586Y-127914938D01*
X102786344Y-127976094D01*
X102786335Y-127976098D01*
X102572171Y-128075964D01*
X102572169Y-128075965D01*
X102378597Y-128211505D01*
X102211505Y-128378597D01*
X102075965Y-128572169D01*
X102075964Y-128572171D01*
X101976098Y-128786335D01*
X101976094Y-128786344D01*
X101914938Y-129014586D01*
X101914936Y-129014596D01*
X101894341Y-129249999D01*
X98105659Y-129249999D01*
X98085063Y-129014592D01*
X98038626Y-128841285D01*
X98023905Y-128786344D01*
X98023904Y-128786343D01*
X98023903Y-128786337D01*
X97924035Y-128572171D01*
X97867481Y-128491402D01*
X97788494Y-128378597D01*
X97621402Y-128211506D01*
X97621395Y-128211501D01*
X97427834Y-128075967D01*
X97427830Y-128075965D01*
X97427828Y-128075964D01*
X97213663Y-127976097D01*
X97213659Y-127976096D01*
X97213655Y-127976094D01*
X96985413Y-127914938D01*
X96985403Y-127914936D01*
X96750001Y-127894341D01*
X96749999Y-127894341D01*
X96514596Y-127914936D01*
X96514586Y-127914938D01*
X96286344Y-127976094D01*
X96286335Y-127976098D01*
X96072171Y-128075964D01*
X96072169Y-128075965D01*
X95878597Y-128211505D01*
X95711505Y-128378597D01*
X95575965Y-128572169D01*
X95575964Y-128572171D01*
X95476098Y-128786335D01*
X95476094Y-128786344D01*
X95414938Y-129014586D01*
X95414936Y-129014596D01*
X95394341Y-129249999D01*
X79367406Y-129249999D01*
X78766150Y-128822305D01*
X78762814Y-128819847D01*
X77814894Y-128096669D01*
X77811642Y-128094100D01*
X77231481Y-127619999D01*
X85394341Y-127619999D01*
X85394341Y-127620000D01*
X85414936Y-127855403D01*
X85414938Y-127855413D01*
X85476094Y-128083655D01*
X85476096Y-128083659D01*
X85476097Y-128083663D01*
X85575965Y-128297830D01*
X85575967Y-128297834D01*
X85632520Y-128378599D01*
X85711505Y-128491401D01*
X85878599Y-128658495D01*
X85975384Y-128726265D01*
X86072165Y-128794032D01*
X86072167Y-128794033D01*
X86072170Y-128794035D01*
X86286337Y-128893903D01*
X86514592Y-128955063D01*
X86702918Y-128971539D01*
X86749999Y-128975659D01*
X86750000Y-128975659D01*
X86750001Y-128975659D01*
X86789234Y-128972226D01*
X86985408Y-128955063D01*
X87213663Y-128893903D01*
X87427830Y-128794035D01*
X87621401Y-128658495D01*
X87788495Y-128491401D01*
X87924035Y-128297830D01*
X88023903Y-128083663D01*
X88085063Y-127855408D01*
X88105659Y-127620000D01*
X88105659Y-127619999D01*
X91894341Y-127619999D01*
X91894341Y-127620000D01*
X91914936Y-127855403D01*
X91914938Y-127855413D01*
X91976094Y-128083655D01*
X91976096Y-128083659D01*
X91976097Y-128083663D01*
X92075965Y-128297830D01*
X92075967Y-128297834D01*
X92132520Y-128378599D01*
X92211505Y-128491401D01*
X92378599Y-128658495D01*
X92475384Y-128726265D01*
X92572165Y-128794032D01*
X92572167Y-128794033D01*
X92572170Y-128794035D01*
X92786337Y-128893903D01*
X93014592Y-128955063D01*
X93202918Y-128971539D01*
X93249999Y-128975659D01*
X93250000Y-128975659D01*
X93250001Y-128975659D01*
X93289234Y-128972226D01*
X93485408Y-128955063D01*
X93713663Y-128893903D01*
X93927830Y-128794035D01*
X94121401Y-128658495D01*
X94288495Y-128491401D01*
X94424035Y-128297830D01*
X94523903Y-128083663D01*
X94585063Y-127855408D01*
X94605659Y-127620000D01*
X94605659Y-127619999D01*
X105394341Y-127619999D01*
X105394341Y-127620000D01*
X105414936Y-127855403D01*
X105414938Y-127855413D01*
X105476094Y-128083655D01*
X105476096Y-128083659D01*
X105476097Y-128083663D01*
X105575965Y-128297830D01*
X105575967Y-128297834D01*
X105632520Y-128378599D01*
X105711505Y-128491401D01*
X105878599Y-128658495D01*
X105975384Y-128726265D01*
X106072165Y-128794032D01*
X106072167Y-128794033D01*
X106072170Y-128794035D01*
X106286337Y-128893903D01*
X106514592Y-128955063D01*
X106702918Y-128971539D01*
X106749999Y-128975659D01*
X106750000Y-128975659D01*
X106750001Y-128975659D01*
X106789234Y-128972226D01*
X106985408Y-128955063D01*
X107213663Y-128893903D01*
X107427830Y-128794035D01*
X107621401Y-128658495D01*
X107788495Y-128491401D01*
X107924035Y-128297830D01*
X108023903Y-128083663D01*
X108085063Y-127855408D01*
X108105659Y-127620000D01*
X108105659Y-127619999D01*
X111894341Y-127619999D01*
X111894341Y-127620000D01*
X111914936Y-127855403D01*
X111914938Y-127855413D01*
X111976094Y-128083655D01*
X111976096Y-128083659D01*
X111976097Y-128083663D01*
X112075965Y-128297830D01*
X112075967Y-128297834D01*
X112132520Y-128378599D01*
X112211505Y-128491401D01*
X112378599Y-128658495D01*
X112475384Y-128726265D01*
X112572165Y-128794032D01*
X112572167Y-128794033D01*
X112572170Y-128794035D01*
X112786337Y-128893903D01*
X113014592Y-128955063D01*
X113202918Y-128971539D01*
X113249999Y-128975659D01*
X113250000Y-128975659D01*
X113250001Y-128975659D01*
X113289234Y-128972226D01*
X113485408Y-128955063D01*
X113713663Y-128893903D01*
X113927830Y-128794035D01*
X114121401Y-128658495D01*
X114288495Y-128491401D01*
X114424035Y-128297830D01*
X114523903Y-128083663D01*
X114585063Y-127855408D01*
X114605659Y-127620000D01*
X114585063Y-127384592D01*
X114523903Y-127156337D01*
X114424035Y-126942171D01*
X114296847Y-126760526D01*
X114288494Y-126748597D01*
X114121402Y-126581506D01*
X114121395Y-126581501D01*
X113927834Y-126445967D01*
X113927830Y-126445965D01*
X113927828Y-126445964D01*
X113713663Y-126346097D01*
X113713659Y-126346096D01*
X113713655Y-126346094D01*
X113485413Y-126284938D01*
X113485403Y-126284936D01*
X113250001Y-126264341D01*
X113249999Y-126264341D01*
X113014596Y-126284936D01*
X113014586Y-126284938D01*
X112786344Y-126346094D01*
X112786335Y-126346098D01*
X112572171Y-126445964D01*
X112572169Y-126445965D01*
X112378597Y-126581505D01*
X112211505Y-126748597D01*
X112075965Y-126942169D01*
X112075964Y-126942171D01*
X111976098Y-127156335D01*
X111976094Y-127156344D01*
X111914938Y-127384586D01*
X111914936Y-127384596D01*
X111894341Y-127619999D01*
X108105659Y-127619999D01*
X108085063Y-127384592D01*
X108023903Y-127156337D01*
X107924035Y-126942171D01*
X107796847Y-126760526D01*
X107788494Y-126748597D01*
X107621402Y-126581506D01*
X107621395Y-126581501D01*
X107427834Y-126445967D01*
X107427830Y-126445965D01*
X107427828Y-126445964D01*
X107213663Y-126346097D01*
X107213659Y-126346096D01*
X107213655Y-126346094D01*
X106985413Y-126284938D01*
X106985403Y-126284936D01*
X106750001Y-126264341D01*
X106749999Y-126264341D01*
X106514596Y-126284936D01*
X106514586Y-126284938D01*
X106286344Y-126346094D01*
X106286335Y-126346098D01*
X106072171Y-126445964D01*
X106072169Y-126445965D01*
X105878597Y-126581505D01*
X105711505Y-126748597D01*
X105575965Y-126942169D01*
X105575964Y-126942171D01*
X105476098Y-127156335D01*
X105476094Y-127156344D01*
X105414938Y-127384586D01*
X105414936Y-127384596D01*
X105394341Y-127619999D01*
X94605659Y-127619999D01*
X94585063Y-127384592D01*
X94523903Y-127156337D01*
X94424035Y-126942171D01*
X94296847Y-126760526D01*
X94288494Y-126748597D01*
X94121402Y-126581506D01*
X94121395Y-126581501D01*
X93927834Y-126445967D01*
X93927830Y-126445965D01*
X93927828Y-126445964D01*
X93713663Y-126346097D01*
X93713659Y-126346096D01*
X93713655Y-126346094D01*
X93485413Y-126284938D01*
X93485403Y-126284936D01*
X93250001Y-126264341D01*
X93249999Y-126264341D01*
X93014596Y-126284936D01*
X93014586Y-126284938D01*
X92786344Y-126346094D01*
X92786335Y-126346098D01*
X92572171Y-126445964D01*
X92572169Y-126445965D01*
X92378597Y-126581505D01*
X92211505Y-126748597D01*
X92075965Y-126942169D01*
X92075964Y-126942171D01*
X91976098Y-127156335D01*
X91976094Y-127156344D01*
X91914938Y-127384586D01*
X91914936Y-127384596D01*
X91894341Y-127619999D01*
X88105659Y-127619999D01*
X88085063Y-127384592D01*
X88023903Y-127156337D01*
X87924035Y-126942171D01*
X87796847Y-126760526D01*
X87788494Y-126748597D01*
X87621402Y-126581506D01*
X87621395Y-126581501D01*
X87427834Y-126445967D01*
X87427830Y-126445965D01*
X87427828Y-126445964D01*
X87213663Y-126346097D01*
X87213659Y-126346096D01*
X87213655Y-126346094D01*
X86985413Y-126284938D01*
X86985403Y-126284936D01*
X86750001Y-126264341D01*
X86749999Y-126264341D01*
X86514596Y-126284936D01*
X86514586Y-126284938D01*
X86286344Y-126346094D01*
X86286335Y-126346098D01*
X86072171Y-126445964D01*
X86072169Y-126445965D01*
X85878597Y-126581505D01*
X85711505Y-126748597D01*
X85575965Y-126942169D01*
X85575964Y-126942171D01*
X85476098Y-127156335D01*
X85476094Y-127156344D01*
X85414938Y-127384586D01*
X85414936Y-127384596D01*
X85394341Y-127619999D01*
X77231481Y-127619999D01*
X76888465Y-127339690D01*
X76885300Y-127337015D01*
X75987791Y-126552129D01*
X75984718Y-126549349D01*
X75113973Y-125734944D01*
X75110994Y-125732063D01*
X74267936Y-124889005D01*
X74265055Y-124886026D01*
X73450650Y-124015281D01*
X73447870Y-124012208D01*
X72711650Y-123170348D01*
X72662980Y-123114694D01*
X72660309Y-123111534D01*
X72567395Y-122997835D01*
X72302455Y-122673625D01*
X72050402Y-122365186D01*
X75099500Y-122365186D01*
X75099500Y-122634813D01*
X75129686Y-122902719D01*
X75129688Y-122902731D01*
X75189684Y-123165594D01*
X75189687Y-123165602D01*
X75278734Y-123420082D01*
X75395714Y-123662994D01*
X75395716Y-123662997D01*
X75539162Y-123891289D01*
X75583743Y-123947192D01*
X75687670Y-124077513D01*
X75707266Y-124102085D01*
X75897915Y-124292734D01*
X76108711Y-124460838D01*
X76337003Y-124604284D01*
X76579921Y-124721267D01*
X76738420Y-124776728D01*
X76834397Y-124810312D01*
X76834405Y-124810315D01*
X76834408Y-124810315D01*
X76834409Y-124810316D01*
X77097268Y-124870312D01*
X77365187Y-124900499D01*
X77365188Y-124900500D01*
X77365191Y-124900500D01*
X77634812Y-124900500D01*
X77634812Y-124900499D01*
X77902732Y-124870312D01*
X78165591Y-124810316D01*
X78420079Y-124721267D01*
X78662997Y-124604284D01*
X78891289Y-124460838D01*
X79102085Y-124292734D01*
X79269819Y-124125000D01*
X100069815Y-124125000D01*
X100088503Y-124302805D01*
X100088504Y-124302807D01*
X100143747Y-124472829D01*
X100143750Y-124472835D01*
X100233141Y-124627665D01*
X100292650Y-124693756D01*
X100322880Y-124756747D01*
X100324500Y-124776728D01*
X100324500Y-125473270D01*
X100304815Y-125540309D01*
X100292650Y-125556242D01*
X100233144Y-125622329D01*
X100233139Y-125622336D01*
X100143750Y-125777164D01*
X100143747Y-125777170D01*
X100088504Y-125947192D01*
X100088503Y-125947194D01*
X100069815Y-126125000D01*
X100088503Y-126302805D01*
X100088504Y-126302807D01*
X100143747Y-126472829D01*
X100143750Y-126472835D01*
X100233141Y-126627665D01*
X100274812Y-126673946D01*
X100352764Y-126760521D01*
X100352767Y-126760523D01*
X100352770Y-126760526D01*
X100497407Y-126865612D01*
X100660733Y-126938329D01*
X100835609Y-126975500D01*
X100835610Y-126975500D01*
X101014389Y-126975500D01*
X101014391Y-126975500D01*
X101189267Y-126938329D01*
X101352593Y-126865612D01*
X101497230Y-126760526D01*
X101616859Y-126627665D01*
X101706250Y-126472835D01*
X101761497Y-126302803D01*
X101780185Y-126125000D01*
X101761497Y-125947197D01*
X101706250Y-125777165D01*
X101616859Y-125622335D01*
X101616855Y-125622329D01*
X101557350Y-125556242D01*
X101527120Y-125493250D01*
X101525500Y-125473270D01*
X101525500Y-124776728D01*
X101545185Y-124709689D01*
X101557350Y-124693756D01*
X101616859Y-124627665D01*
X101706250Y-124472835D01*
X101761497Y-124302803D01*
X101780185Y-124125000D01*
X101761497Y-123947197D01*
X101706250Y-123777165D01*
X101616859Y-123622335D01*
X101570003Y-123570296D01*
X101497235Y-123489478D01*
X101497232Y-123489476D01*
X101497231Y-123489475D01*
X101497230Y-123489474D01*
X101352593Y-123384388D01*
X101189267Y-123311671D01*
X101189265Y-123311670D01*
X101061594Y-123284533D01*
X101014391Y-123274500D01*
X100835609Y-123274500D01*
X100804954Y-123281015D01*
X100660733Y-123311670D01*
X100660728Y-123311672D01*
X100497408Y-123384387D01*
X100352768Y-123489475D01*
X100233140Y-123622336D01*
X100143750Y-123777164D01*
X100143747Y-123777170D01*
X100088504Y-123947192D01*
X100088503Y-123947194D01*
X100069815Y-124125000D01*
X79269819Y-124125000D01*
X79292734Y-124102085D01*
X79460838Y-123891289D01*
X79604284Y-123662997D01*
X79721267Y-123420079D01*
X79810316Y-123165591D01*
X79870312Y-122902732D01*
X79900500Y-122634809D01*
X79900500Y-122365191D01*
X79870312Y-122097268D01*
X79810316Y-121834409D01*
X79721267Y-121579921D01*
X79718897Y-121575000D01*
X94069815Y-121575000D01*
X94088503Y-121752805D01*
X94088504Y-121752807D01*
X94143747Y-121922829D01*
X94143750Y-121922835D01*
X94233141Y-122077665D01*
X94274812Y-122123946D01*
X94352764Y-122210521D01*
X94352767Y-122210523D01*
X94352770Y-122210526D01*
X94497407Y-122315612D01*
X94660733Y-122388329D01*
X94835609Y-122425500D01*
X94835610Y-122425500D01*
X95014389Y-122425500D01*
X95014391Y-122425500D01*
X95189267Y-122388329D01*
X95352593Y-122315612D01*
X95497230Y-122210526D01*
X95497238Y-122210517D01*
X95500755Y-122207351D01*
X95563747Y-122177121D01*
X95583729Y-122175500D01*
X96549903Y-122175500D01*
X96616942Y-122195185D01*
X96637584Y-122211819D01*
X97038066Y-122612302D01*
X97071551Y-122673625D01*
X97073706Y-122687021D01*
X97088503Y-122827804D01*
X97088504Y-122827807D01*
X97143747Y-122997829D01*
X97143750Y-122997835D01*
X97233141Y-123152665D01*
X97244790Y-123165602D01*
X97352764Y-123285521D01*
X97352767Y-123285523D01*
X97352770Y-123285526D01*
X97497407Y-123390612D01*
X97660733Y-123463329D01*
X97835609Y-123500500D01*
X97835610Y-123500500D01*
X98014389Y-123500500D01*
X98014391Y-123500500D01*
X98189267Y-123463329D01*
X98352593Y-123390612D01*
X98497230Y-123285526D01*
X98616859Y-123152665D01*
X98706250Y-122997835D01*
X98761497Y-122827803D01*
X98780185Y-122650000D01*
X98761497Y-122472197D01*
X98733873Y-122387181D01*
X98726727Y-122365186D01*
X120099500Y-122365186D01*
X120099500Y-122634813D01*
X120129686Y-122902719D01*
X120129688Y-122902731D01*
X120189684Y-123165594D01*
X120189687Y-123165602D01*
X120278734Y-123420082D01*
X120395714Y-123662994D01*
X120395716Y-123662997D01*
X120539162Y-123891289D01*
X120583743Y-123947192D01*
X120687670Y-124077513D01*
X120707266Y-124102085D01*
X120897915Y-124292734D01*
X121108711Y-124460838D01*
X121337003Y-124604284D01*
X121579921Y-124721267D01*
X121738420Y-124776728D01*
X121834397Y-124810312D01*
X121834405Y-124810315D01*
X121834408Y-124810315D01*
X121834409Y-124810316D01*
X122097268Y-124870312D01*
X122365187Y-124900499D01*
X122365188Y-124900500D01*
X122365191Y-124900500D01*
X122634812Y-124900500D01*
X122634812Y-124900499D01*
X122902732Y-124870312D01*
X123165591Y-124810316D01*
X123420079Y-124721267D01*
X123662997Y-124604284D01*
X123891289Y-124460838D01*
X124102085Y-124292734D01*
X124292734Y-124102085D01*
X124460838Y-123891289D01*
X124604284Y-123662997D01*
X124721267Y-123420079D01*
X124810316Y-123165591D01*
X124870312Y-122902732D01*
X124900500Y-122634809D01*
X124900500Y-122365191D01*
X124870312Y-122097268D01*
X124810316Y-121834409D01*
X124721267Y-121579921D01*
X124604284Y-121337003D01*
X124460838Y-121108711D01*
X124292734Y-120897915D01*
X124102085Y-120707266D01*
X123891289Y-120539162D01*
X123662997Y-120395716D01*
X123662994Y-120395714D01*
X123420082Y-120278734D01*
X123165602Y-120189687D01*
X123165594Y-120189684D01*
X122968446Y-120144687D01*
X122902732Y-120129688D01*
X122902728Y-120129687D01*
X122902719Y-120129686D01*
X122634813Y-120099500D01*
X122634809Y-120099500D01*
X122365191Y-120099500D01*
X122365186Y-120099500D01*
X122097280Y-120129686D01*
X122097268Y-120129688D01*
X121834405Y-120189684D01*
X121834397Y-120189687D01*
X121579917Y-120278734D01*
X121337005Y-120395714D01*
X121108712Y-120539161D01*
X120897915Y-120707265D01*
X120707265Y-120897915D01*
X120539161Y-121108712D01*
X120395714Y-121337005D01*
X120278734Y-121579917D01*
X120189687Y-121834397D01*
X120189684Y-121834405D01*
X120129688Y-122097268D01*
X120129686Y-122097280D01*
X120099500Y-122365186D01*
X98726727Y-122365186D01*
X98706252Y-122302170D01*
X98706249Y-122302164D01*
X98669116Y-122237847D01*
X98616859Y-122147335D01*
X98554126Y-122077663D01*
X98497235Y-122014478D01*
X98497232Y-122014476D01*
X98497231Y-122014475D01*
X98497230Y-122014474D01*
X98352593Y-121909388D01*
X98189267Y-121836671D01*
X98189265Y-121836670D01*
X98061594Y-121809533D01*
X98014391Y-121799500D01*
X98014390Y-121799500D01*
X97975098Y-121799500D01*
X97908059Y-121779815D01*
X97887417Y-121763181D01*
X97786916Y-121662680D01*
X97753431Y-121601357D01*
X97758415Y-121531665D01*
X97786916Y-121487318D01*
X98566969Y-120707265D01*
X99483506Y-119790728D01*
X99483511Y-119790724D01*
X99493714Y-119780520D01*
X99493716Y-119780520D01*
X99605520Y-119668716D01*
X99678207Y-119542818D01*
X99678208Y-119542817D01*
X99680792Y-119538340D01*
X99684577Y-119531785D01*
X99725501Y-119379057D01*
X99725501Y-119220943D01*
X99725501Y-119213348D01*
X99725500Y-119213330D01*
X99725500Y-118176728D01*
X99745185Y-118109689D01*
X99757350Y-118093756D01*
X99816859Y-118027665D01*
X99906250Y-117872835D01*
X99916354Y-117841739D01*
X103224500Y-117841739D01*
X103224500Y-119608260D01*
X103234426Y-119676391D01*
X103285803Y-119781485D01*
X103368514Y-119864196D01*
X103368515Y-119864196D01*
X103368517Y-119864198D01*
X103473607Y-119915573D01*
X103507673Y-119920536D01*
X103541739Y-119925500D01*
X103541740Y-119925500D01*
X105308261Y-119925500D01*
X105330971Y-119922191D01*
X105376393Y-119915573D01*
X105481483Y-119864198D01*
X105564198Y-119781483D01*
X105615573Y-119676393D01*
X105625500Y-119608260D01*
X105625500Y-119255421D01*
X105645185Y-119188382D01*
X105697989Y-119142627D01*
X105767147Y-119132683D01*
X105830703Y-119161708D01*
X105860500Y-119200149D01*
X105939938Y-119359683D01*
X105939943Y-119359691D01*
X106074020Y-119537238D01*
X106238437Y-119687123D01*
X106238439Y-119687125D01*
X106427595Y-119804245D01*
X106427596Y-119804245D01*
X106427599Y-119804247D01*
X106635060Y-119884618D01*
X106853757Y-119925500D01*
X106853759Y-119925500D01*
X107076241Y-119925500D01*
X107076243Y-119925500D01*
X107294940Y-119884618D01*
X107502401Y-119804247D01*
X107691562Y-119687124D01*
X107855981Y-119537236D01*
X107990058Y-119359689D01*
X108020451Y-119298653D01*
X108041335Y-119256712D01*
X108088837Y-119205475D01*
X108156500Y-119188053D01*
X108222841Y-119209978D01*
X108264717Y-119259578D01*
X108331399Y-119402578D01*
X108466894Y-119596082D01*
X108633917Y-119763105D01*
X108827421Y-119898600D01*
X109041507Y-119998429D01*
X109041516Y-119998433D01*
X109255000Y-120055634D01*
X109255000Y-119158012D01*
X109312007Y-119190925D01*
X109439174Y-119225000D01*
X109570826Y-119225000D01*
X109697993Y-119190925D01*
X109755000Y-119158012D01*
X109755000Y-120055633D01*
X109968483Y-119998433D01*
X109968492Y-119998429D01*
X110182578Y-119898600D01*
X110376082Y-119763105D01*
X110543105Y-119596082D01*
X110678600Y-119402578D01*
X110778429Y-119188492D01*
X110778432Y-119188486D01*
X110835636Y-118975000D01*
X109938012Y-118975000D01*
X109970925Y-118917993D01*
X110005000Y-118790826D01*
X110005000Y-118659174D01*
X109970925Y-118532007D01*
X109938012Y-118475000D01*
X110835636Y-118475000D01*
X110835635Y-118474999D01*
X110778432Y-118261513D01*
X110778429Y-118261507D01*
X110678600Y-118047422D01*
X110678599Y-118047420D01*
X110543113Y-117853926D01*
X110543108Y-117853920D01*
X110376082Y-117686894D01*
X110182578Y-117551399D01*
X109968492Y-117451570D01*
X109968486Y-117451567D01*
X109755000Y-117394364D01*
X109755000Y-118291988D01*
X109697993Y-118259075D01*
X109570826Y-118225000D01*
X109439174Y-118225000D01*
X109312007Y-118259075D01*
X109255000Y-118291988D01*
X109255000Y-117394364D01*
X109254999Y-117394364D01*
X109041513Y-117451567D01*
X109041507Y-117451570D01*
X108827422Y-117551399D01*
X108827420Y-117551400D01*
X108633926Y-117686886D01*
X108633920Y-117686891D01*
X108466891Y-117853920D01*
X108466886Y-117853926D01*
X108331400Y-118047420D01*
X108331399Y-118047422D01*
X108264717Y-118190421D01*
X108218544Y-118242860D01*
X108151350Y-118262012D01*
X108084469Y-118241796D01*
X108041335Y-118193288D01*
X107990061Y-118090316D01*
X107990056Y-118090308D01*
X107855979Y-117912761D01*
X107691562Y-117762876D01*
X107691560Y-117762874D01*
X107502404Y-117645754D01*
X107502398Y-117645752D01*
X107294940Y-117565382D01*
X107076243Y-117524500D01*
X106853757Y-117524500D01*
X106635060Y-117565382D01*
X106503864Y-117616207D01*
X106427601Y-117645752D01*
X106427595Y-117645754D01*
X106238439Y-117762874D01*
X106238437Y-117762876D01*
X106074020Y-117912761D01*
X105939943Y-118090308D01*
X105939938Y-118090316D01*
X105860500Y-118249850D01*
X105812997Y-118301087D01*
X105745334Y-118318508D01*
X105678994Y-118296582D01*
X105635039Y-118242271D01*
X105625500Y-118194578D01*
X105625500Y-117841739D01*
X105615573Y-117773608D01*
X105615573Y-117773607D01*
X105564198Y-117668517D01*
X105564196Y-117668515D01*
X105564196Y-117668514D01*
X105481485Y-117585803D01*
X105376391Y-117534426D01*
X105308261Y-117524500D01*
X105308260Y-117524500D01*
X103541740Y-117524500D01*
X103541739Y-117524500D01*
X103473608Y-117534426D01*
X103368514Y-117585803D01*
X103285803Y-117668514D01*
X103234426Y-117773608D01*
X103224500Y-117841739D01*
X99916354Y-117841739D01*
X99961497Y-117702803D01*
X99980185Y-117525000D01*
X99961497Y-117347197D01*
X99924031Y-117231889D01*
X99906252Y-117177170D01*
X99906249Y-117177164D01*
X99816859Y-117022335D01*
X99770003Y-116970296D01*
X99697235Y-116889478D01*
X99697232Y-116889476D01*
X99697231Y-116889475D01*
X99697230Y-116889474D01*
X99552593Y-116784388D01*
X99389267Y-116711671D01*
X99389265Y-116711670D01*
X99261594Y-116684533D01*
X99214391Y-116674500D01*
X99035609Y-116674500D01*
X99004954Y-116681015D01*
X98860733Y-116711670D01*
X98860728Y-116711672D01*
X98697408Y-116784387D01*
X98552768Y-116889475D01*
X98433140Y-117022336D01*
X98343750Y-117177164D01*
X98343747Y-117177170D01*
X98288504Y-117347192D01*
X98288503Y-117347194D01*
X98269815Y-117525000D01*
X98288503Y-117702805D01*
X98288504Y-117702807D01*
X98343747Y-117872829D01*
X98343750Y-117872835D01*
X98433141Y-118027665D01*
X98492650Y-118093756D01*
X98522880Y-118156747D01*
X98524500Y-118176728D01*
X98524500Y-118999903D01*
X98504815Y-119066942D01*
X98488181Y-119087584D01*
X96637584Y-120938181D01*
X96576261Y-120971666D01*
X96549903Y-120974500D01*
X95583729Y-120974500D01*
X95516690Y-120954815D01*
X95500755Y-120942649D01*
X95497233Y-120939477D01*
X95497230Y-120939474D01*
X95352593Y-120834388D01*
X95189267Y-120761671D01*
X95189265Y-120761670D01*
X95061594Y-120734533D01*
X95014391Y-120724500D01*
X94835609Y-120724500D01*
X94804954Y-120731015D01*
X94660733Y-120761670D01*
X94660728Y-120761672D01*
X94497408Y-120834387D01*
X94352768Y-120939475D01*
X94233140Y-121072336D01*
X94143750Y-121227164D01*
X94143747Y-121227170D01*
X94088504Y-121397192D01*
X94088503Y-121397194D01*
X94069815Y-121575000D01*
X79718897Y-121575000D01*
X79604284Y-121337003D01*
X79460838Y-121108711D01*
X79292734Y-120897915D01*
X79102085Y-120707266D01*
X78891289Y-120539162D01*
X78662997Y-120395716D01*
X78662994Y-120395714D01*
X78420082Y-120278734D01*
X78165602Y-120189687D01*
X78165594Y-120189684D01*
X77968446Y-120144687D01*
X77902732Y-120129688D01*
X77902728Y-120129687D01*
X77902719Y-120129686D01*
X77634813Y-120099500D01*
X77634809Y-120099500D01*
X77365191Y-120099500D01*
X77365186Y-120099500D01*
X77097280Y-120129686D01*
X77097268Y-120129688D01*
X76834405Y-120189684D01*
X76834397Y-120189687D01*
X76579917Y-120278734D01*
X76337005Y-120395714D01*
X76108712Y-120539161D01*
X75897915Y-120707265D01*
X75707265Y-120897915D01*
X75539161Y-121108712D01*
X75395714Y-121337005D01*
X75278734Y-121579917D01*
X75189687Y-121834397D01*
X75189684Y-121834405D01*
X75129688Y-122097268D01*
X75129686Y-122097280D01*
X75099500Y-122365186D01*
X72050402Y-122365186D01*
X71905899Y-122188357D01*
X71903330Y-122185105D01*
X71180152Y-121237185D01*
X71177694Y-121233849D01*
X70486596Y-120262298D01*
X70484251Y-120258881D01*
X70002802Y-119531785D01*
X69826019Y-119264802D01*
X69823794Y-119261317D01*
X69822724Y-119259578D01*
X69199140Y-118245786D01*
X69197033Y-118242230D01*
X69167505Y-118190421D01*
X68606634Y-117206347D01*
X68604675Y-117202772D01*
X68049235Y-116147766D01*
X68047366Y-116144067D01*
X67527510Y-115071134D01*
X67525765Y-115067375D01*
X67118546Y-114149999D01*
X78514364Y-114149999D01*
X78514364Y-114150000D01*
X79411988Y-114150000D01*
X79379075Y-114207007D01*
X79345000Y-114334174D01*
X79345000Y-114465826D01*
X79379075Y-114592993D01*
X79411988Y-114650000D01*
X78514364Y-114650000D01*
X78571567Y-114863486D01*
X78571570Y-114863492D01*
X78671399Y-115077578D01*
X78806894Y-115271082D01*
X78973917Y-115438105D01*
X79167421Y-115573600D01*
X79381507Y-115673429D01*
X79381516Y-115673433D01*
X79595000Y-115730634D01*
X79595000Y-114833012D01*
X79652007Y-114865925D01*
X79779174Y-114900000D01*
X79910826Y-114900000D01*
X80037993Y-114865925D01*
X80095000Y-114833012D01*
X80095000Y-115730633D01*
X80308483Y-115673433D01*
X80308492Y-115673429D01*
X80522578Y-115573600D01*
X80716082Y-115438105D01*
X80883105Y-115271082D01*
X81018600Y-115077578D01*
X81085282Y-114934578D01*
X81131454Y-114882139D01*
X81198648Y-114862987D01*
X81265529Y-114883203D01*
X81308664Y-114931711D01*
X81359938Y-115034683D01*
X81359943Y-115034691D01*
X81494020Y-115212238D01*
X81658437Y-115362123D01*
X81658439Y-115362125D01*
X81847595Y-115479245D01*
X81847596Y-115479245D01*
X81847599Y-115479247D01*
X82055060Y-115559618D01*
X82273757Y-115600500D01*
X82273759Y-115600500D01*
X82496241Y-115600500D01*
X82496243Y-115600500D01*
X82714940Y-115559618D01*
X82922401Y-115479247D01*
X83111562Y-115362124D01*
X83265778Y-115221537D01*
X83275979Y-115212238D01*
X83290513Y-115192993D01*
X83410058Y-115034689D01*
X83489500Y-114875149D01*
X83537003Y-114823912D01*
X83604666Y-114806491D01*
X83671006Y-114828417D01*
X83714961Y-114882728D01*
X83724500Y-114930421D01*
X83724500Y-115283260D01*
X83734426Y-115351391D01*
X83785803Y-115456485D01*
X83868514Y-115539196D01*
X83868515Y-115539196D01*
X83868517Y-115539198D01*
X83973607Y-115590573D01*
X84007673Y-115595536D01*
X84041739Y-115600500D01*
X84041740Y-115600500D01*
X85808261Y-115600500D01*
X85830971Y-115597191D01*
X85876393Y-115590573D01*
X85981483Y-115539198D01*
X86064198Y-115456483D01*
X86115573Y-115351393D01*
X86125500Y-115283260D01*
X86125500Y-114999999D01*
X103194357Y-114999999D01*
X103194357Y-115000000D01*
X103214884Y-115221535D01*
X103214885Y-115221537D01*
X103275769Y-115435523D01*
X103275775Y-115435538D01*
X103374938Y-115634683D01*
X103374943Y-115634691D01*
X103509020Y-115812238D01*
X103673437Y-115962123D01*
X103673439Y-115962125D01*
X103862595Y-116079245D01*
X103862596Y-116079245D01*
X103862599Y-116079247D01*
X104070060Y-116159618D01*
X104288757Y-116200500D01*
X104288759Y-116200500D01*
X104511241Y-116200500D01*
X104511243Y-116200500D01*
X104729940Y-116159618D01*
X104937401Y-116079247D01*
X105126562Y-115962124D01*
X105290981Y-115812236D01*
X105425058Y-115634689D01*
X105524229Y-115435528D01*
X105550734Y-115342371D01*
X105588013Y-115283278D01*
X105651323Y-115253721D01*
X105720562Y-115263083D01*
X105773749Y-115308393D01*
X105789266Y-115342372D01*
X105815769Y-115435523D01*
X105815775Y-115435538D01*
X105914938Y-115634683D01*
X105914943Y-115634691D01*
X106049020Y-115812238D01*
X106213437Y-115962123D01*
X106213439Y-115962125D01*
X106402595Y-116079245D01*
X106402596Y-116079245D01*
X106402599Y-116079247D01*
X106610060Y-116159618D01*
X106828757Y-116200500D01*
X106828759Y-116200500D01*
X107051241Y-116200500D01*
X107051243Y-116200500D01*
X107269940Y-116159618D01*
X107477401Y-116079247D01*
X107666562Y-115962124D01*
X107830981Y-115812236D01*
X107965058Y-115634689D01*
X108064229Y-115435528D01*
X108090734Y-115342371D01*
X108128013Y-115283278D01*
X108191323Y-115253721D01*
X108260562Y-115263083D01*
X108313749Y-115308393D01*
X108329266Y-115342372D01*
X108355769Y-115435523D01*
X108355775Y-115435538D01*
X108454938Y-115634683D01*
X108454943Y-115634691D01*
X108589020Y-115812238D01*
X108753437Y-115962123D01*
X108753439Y-115962125D01*
X108942595Y-116079245D01*
X108942596Y-116079245D01*
X108942599Y-116079247D01*
X109150060Y-116159618D01*
X109368757Y-116200500D01*
X109368759Y-116200500D01*
X109591241Y-116200500D01*
X109591243Y-116200500D01*
X109809940Y-116159618D01*
X110017401Y-116079247D01*
X110206562Y-115962124D01*
X110370981Y-115812236D01*
X110505058Y-115634689D01*
X110604229Y-115435528D01*
X110630734Y-115342371D01*
X110668013Y-115283278D01*
X110731323Y-115253721D01*
X110800562Y-115263083D01*
X110853749Y-115308393D01*
X110869266Y-115342372D01*
X110895769Y-115435523D01*
X110895775Y-115435538D01*
X110994938Y-115634683D01*
X110994943Y-115634691D01*
X111129020Y-115812238D01*
X111293437Y-115962123D01*
X111293439Y-115962125D01*
X111482595Y-116079245D01*
X111482596Y-116079245D01*
X111482599Y-116079247D01*
X111690060Y-116159618D01*
X111908757Y-116200500D01*
X111908759Y-116200500D01*
X112131241Y-116200500D01*
X112131243Y-116200500D01*
X112349940Y-116159618D01*
X112557401Y-116079247D01*
X112746562Y-115962124D01*
X112910981Y-115812236D01*
X113045058Y-115634689D01*
X113144229Y-115435528D01*
X113170734Y-115342371D01*
X113208013Y-115283278D01*
X113271323Y-115253721D01*
X113340562Y-115263083D01*
X113393749Y-115308393D01*
X113409266Y-115342372D01*
X113435769Y-115435523D01*
X113435775Y-115435538D01*
X113534938Y-115634683D01*
X113534943Y-115634691D01*
X113669020Y-115812238D01*
X113833437Y-115962123D01*
X113833439Y-115962125D01*
X114022595Y-116079245D01*
X114022596Y-116079245D01*
X114022599Y-116079247D01*
X114230060Y-116159618D01*
X114448757Y-116200500D01*
X114448759Y-116200500D01*
X114671241Y-116200500D01*
X114671243Y-116200500D01*
X114889940Y-116159618D01*
X115097401Y-116079247D01*
X115286562Y-115962124D01*
X115450981Y-115812236D01*
X115585058Y-115634689D01*
X115636335Y-115531712D01*
X115683837Y-115480475D01*
X115751500Y-115463053D01*
X115817841Y-115484978D01*
X115859717Y-115534578D01*
X115926399Y-115677578D01*
X116061894Y-115871082D01*
X116228917Y-116038105D01*
X116422421Y-116173600D01*
X116636507Y-116273429D01*
X116636516Y-116273433D01*
X116850000Y-116330634D01*
X116850000Y-115433012D01*
X116907007Y-115465925D01*
X117034174Y-115500000D01*
X117165826Y-115500000D01*
X117292993Y-115465925D01*
X117350000Y-115433012D01*
X117350000Y-116330633D01*
X117563483Y-116273433D01*
X117563492Y-116273429D01*
X117777578Y-116173600D01*
X117971082Y-116038105D01*
X118138105Y-115871082D01*
X118213925Y-115762802D01*
X118268502Y-115719177D01*
X118338001Y-115711985D01*
X118400355Y-115743507D01*
X118435769Y-115803737D01*
X118439500Y-115833926D01*
X118439500Y-115883260D01*
X118449426Y-115951391D01*
X118500803Y-116056485D01*
X118583514Y-116139196D01*
X118583515Y-116139196D01*
X118583517Y-116139198D01*
X118688607Y-116190573D01*
X118722673Y-116195536D01*
X118756739Y-116200500D01*
X118756740Y-116200500D01*
X120523261Y-116200500D01*
X120545971Y-116197191D01*
X120591393Y-116190573D01*
X120696483Y-116139198D01*
X120779198Y-116056483D01*
X120830573Y-115951393D01*
X120840500Y-115883260D01*
X120840500Y-114116740D01*
X120830573Y-114048607D01*
X120779198Y-113943517D01*
X120779196Y-113943515D01*
X120779196Y-113943514D01*
X120696485Y-113860803D01*
X120591391Y-113809426D01*
X120523261Y-113799500D01*
X120523260Y-113799500D01*
X118756740Y-113799500D01*
X118756739Y-113799500D01*
X118688608Y-113809426D01*
X118583514Y-113860803D01*
X118500803Y-113943514D01*
X118449426Y-114048608D01*
X118439500Y-114116739D01*
X118439500Y-114166073D01*
X118419815Y-114233112D01*
X118367011Y-114278867D01*
X118297853Y-114288811D01*
X118234297Y-114259786D01*
X118213925Y-114237197D01*
X118138109Y-114128922D01*
X118138108Y-114128920D01*
X117971082Y-113961894D01*
X117777578Y-113826399D01*
X117563492Y-113726570D01*
X117563486Y-113726567D01*
X117350000Y-113669364D01*
X117350000Y-114566988D01*
X117292993Y-114534075D01*
X117165826Y-114500000D01*
X117034174Y-114500000D01*
X116907007Y-114534075D01*
X116850000Y-114566988D01*
X116850000Y-113669364D01*
X116849999Y-113669364D01*
X116636513Y-113726567D01*
X116636507Y-113726570D01*
X116422422Y-113826399D01*
X116422420Y-113826400D01*
X116228926Y-113961886D01*
X116228920Y-113961891D01*
X116061891Y-114128920D01*
X116061886Y-114128926D01*
X115926400Y-114322420D01*
X115926399Y-114322422D01*
X115859717Y-114465421D01*
X115813544Y-114517860D01*
X115746350Y-114537012D01*
X115679469Y-114516796D01*
X115636335Y-114468288D01*
X115585061Y-114365316D01*
X115585056Y-114365308D01*
X115450979Y-114187761D01*
X115286562Y-114037876D01*
X115286560Y-114037874D01*
X115097404Y-113920754D01*
X115097398Y-113920752D01*
X115082602Y-113915020D01*
X114889940Y-113840382D01*
X114671243Y-113799500D01*
X114448757Y-113799500D01*
X114230060Y-113840382D01*
X114154697Y-113869578D01*
X114022601Y-113920752D01*
X114022595Y-113920754D01*
X113833439Y-114037874D01*
X113833437Y-114037876D01*
X113669020Y-114187761D01*
X113534943Y-114365308D01*
X113534938Y-114365316D01*
X113435775Y-114564461D01*
X113435769Y-114564476D01*
X113409266Y-114657627D01*
X113371987Y-114716721D01*
X113308677Y-114746278D01*
X113239438Y-114736916D01*
X113186251Y-114691606D01*
X113170734Y-114657627D01*
X113144230Y-114564476D01*
X113144229Y-114564472D01*
X113144224Y-114564461D01*
X113045061Y-114365316D01*
X113045056Y-114365308D01*
X112910979Y-114187761D01*
X112746562Y-114037876D01*
X112746560Y-114037874D01*
X112557404Y-113920754D01*
X112557398Y-113920752D01*
X112542602Y-113915020D01*
X112349940Y-113840382D01*
X112131243Y-113799500D01*
X111908757Y-113799500D01*
X111690060Y-113840382D01*
X111614697Y-113869578D01*
X111482601Y-113920752D01*
X111482595Y-113920754D01*
X111293439Y-114037874D01*
X111293437Y-114037876D01*
X111129020Y-114187761D01*
X110994943Y-114365308D01*
X110994938Y-114365316D01*
X110895775Y-114564461D01*
X110895769Y-114564476D01*
X110869266Y-114657627D01*
X110831987Y-114716721D01*
X110768677Y-114746278D01*
X110699438Y-114736916D01*
X110646251Y-114691606D01*
X110630734Y-114657627D01*
X110604230Y-114564476D01*
X110604229Y-114564472D01*
X110604224Y-114564461D01*
X110505061Y-114365316D01*
X110505056Y-114365308D01*
X110370979Y-114187761D01*
X110206562Y-114037876D01*
X110206560Y-114037874D01*
X110017404Y-113920754D01*
X110017398Y-113920752D01*
X110002602Y-113915020D01*
X109809940Y-113840382D01*
X109591243Y-113799500D01*
X109368757Y-113799500D01*
X109150060Y-113840382D01*
X109074697Y-113869578D01*
X108942601Y-113920752D01*
X108942595Y-113920754D01*
X108753439Y-114037874D01*
X108753437Y-114037876D01*
X108589020Y-114187761D01*
X108454943Y-114365308D01*
X108454938Y-114365316D01*
X108355775Y-114564461D01*
X108355769Y-114564476D01*
X108329266Y-114657627D01*
X108291987Y-114716721D01*
X108228677Y-114746278D01*
X108159438Y-114736916D01*
X108106251Y-114691606D01*
X108090734Y-114657627D01*
X108064230Y-114564476D01*
X108064229Y-114564472D01*
X108064224Y-114564461D01*
X107965061Y-114365316D01*
X107965056Y-114365308D01*
X107830979Y-114187761D01*
X107666562Y-114037876D01*
X107666560Y-114037874D01*
X107477404Y-113920754D01*
X107477398Y-113920752D01*
X107462602Y-113915020D01*
X107269940Y-113840382D01*
X107051243Y-113799500D01*
X106828757Y-113799500D01*
X106610060Y-113840382D01*
X106534697Y-113869578D01*
X106402601Y-113920752D01*
X106402595Y-113920754D01*
X106213439Y-114037874D01*
X106213437Y-114037876D01*
X106049020Y-114187761D01*
X105914943Y-114365308D01*
X105914938Y-114365316D01*
X105815775Y-114564461D01*
X105815769Y-114564476D01*
X105789266Y-114657627D01*
X105751987Y-114716721D01*
X105688677Y-114746278D01*
X105619438Y-114736916D01*
X105566251Y-114691606D01*
X105550734Y-114657627D01*
X105524230Y-114564476D01*
X105524229Y-114564472D01*
X105524224Y-114564461D01*
X105425061Y-114365316D01*
X105425056Y-114365308D01*
X105290979Y-114187761D01*
X105126562Y-114037876D01*
X105126560Y-114037874D01*
X104937404Y-113920754D01*
X104937398Y-113920752D01*
X104922602Y-113915020D01*
X104729940Y-113840382D01*
X104511243Y-113799500D01*
X104288757Y-113799500D01*
X104070060Y-113840382D01*
X103994697Y-113869578D01*
X103862601Y-113920752D01*
X103862595Y-113920754D01*
X103673439Y-114037874D01*
X103673437Y-114037876D01*
X103509020Y-114187761D01*
X103374943Y-114365308D01*
X103374938Y-114365316D01*
X103275775Y-114564461D01*
X103275769Y-114564476D01*
X103214885Y-114778462D01*
X103214884Y-114778464D01*
X103194357Y-114999999D01*
X86125500Y-114999999D01*
X86125500Y-113516740D01*
X86115573Y-113448607D01*
X86064198Y-113343517D01*
X86064196Y-113343515D01*
X86064196Y-113343514D01*
X85981485Y-113260803D01*
X85876391Y-113209426D01*
X85808261Y-113199500D01*
X85808260Y-113199500D01*
X84041740Y-113199500D01*
X84041739Y-113199500D01*
X83973608Y-113209426D01*
X83868514Y-113260803D01*
X83785803Y-113343514D01*
X83734426Y-113448608D01*
X83724500Y-113516739D01*
X83724500Y-113869578D01*
X83704815Y-113936617D01*
X83652011Y-113982372D01*
X83582853Y-113992316D01*
X83519297Y-113963291D01*
X83489500Y-113924850D01*
X83410061Y-113765316D01*
X83410056Y-113765308D01*
X83275979Y-113587761D01*
X83111562Y-113437876D01*
X83111560Y-113437874D01*
X82922404Y-113320754D01*
X82922398Y-113320752D01*
X82714940Y-113240382D01*
X82496243Y-113199500D01*
X82273757Y-113199500D01*
X82055060Y-113240382D01*
X81923864Y-113291207D01*
X81847601Y-113320752D01*
X81847595Y-113320754D01*
X81658439Y-113437874D01*
X81658437Y-113437876D01*
X81494020Y-113587761D01*
X81359943Y-113765308D01*
X81359938Y-113765316D01*
X81308664Y-113868288D01*
X81261160Y-113919525D01*
X81193497Y-113936946D01*
X81127157Y-113915020D01*
X81085282Y-113865421D01*
X81018600Y-113722422D01*
X81018599Y-113722420D01*
X80883113Y-113528926D01*
X80883108Y-113528920D01*
X80716082Y-113361894D01*
X80522578Y-113226399D01*
X80308492Y-113126570D01*
X80308486Y-113126567D01*
X80095000Y-113069364D01*
X80095000Y-113966988D01*
X80037993Y-113934075D01*
X79910826Y-113900000D01*
X79779174Y-113900000D01*
X79652007Y-113934075D01*
X79595000Y-113966988D01*
X79595000Y-113069364D01*
X79594999Y-113069364D01*
X79381513Y-113126567D01*
X79381507Y-113126570D01*
X79167422Y-113226399D01*
X79167420Y-113226400D01*
X78973926Y-113361886D01*
X78973920Y-113361891D01*
X78806891Y-113528920D01*
X78806886Y-113528926D01*
X78671400Y-113722420D01*
X78671399Y-113722422D01*
X78571570Y-113936507D01*
X78571567Y-113936513D01*
X78514364Y-114149999D01*
X67118546Y-114149999D01*
X67042038Y-113977642D01*
X67040420Y-113973827D01*
X66827991Y-113448608D01*
X66593367Y-112868514D01*
X66591885Y-112864664D01*
X66182027Y-111745060D01*
X66180668Y-111741145D01*
X66134285Y-111600000D01*
X85694355Y-111600000D01*
X85714859Y-111768869D01*
X85714860Y-111768874D01*
X85775182Y-111927931D01*
X85837475Y-112018177D01*
X85871817Y-112067929D01*
X85977505Y-112161560D01*
X85999150Y-112180736D01*
X86149773Y-112259789D01*
X86149775Y-112259790D01*
X86314944Y-112300500D01*
X86485056Y-112300500D01*
X86650225Y-112259790D01*
X86729692Y-112218081D01*
X86800849Y-112180736D01*
X86800850Y-112180734D01*
X86800852Y-112180734D01*
X86928183Y-112067929D01*
X87024818Y-111927930D01*
X87085140Y-111768872D01*
X87105645Y-111600000D01*
X87105037Y-111594992D01*
X87116495Y-111526069D01*
X87140448Y-111492364D01*
X88882814Y-109749999D01*
X104269364Y-109749999D01*
X104269364Y-109750000D01*
X105166988Y-109750000D01*
X105134075Y-109807007D01*
X105100000Y-109934174D01*
X105100000Y-110065826D01*
X105134075Y-110192993D01*
X105166988Y-110250000D01*
X104269364Y-110250000D01*
X104326567Y-110463486D01*
X104326570Y-110463492D01*
X104426399Y-110677578D01*
X104561894Y-110871082D01*
X104728917Y-111038105D01*
X104922421Y-111173600D01*
X105136507Y-111273429D01*
X105136516Y-111273433D01*
X105350000Y-111330634D01*
X105350000Y-110433012D01*
X105407007Y-110465925D01*
X105534174Y-110500000D01*
X105665826Y-110500000D01*
X105792993Y-110465925D01*
X105850000Y-110433012D01*
X105850000Y-111330633D01*
X106063483Y-111273433D01*
X106063492Y-111273429D01*
X106277578Y-111173600D01*
X106471082Y-111038105D01*
X106638105Y-110871082D01*
X106773600Y-110677578D01*
X106873429Y-110463492D01*
X106873432Y-110463486D01*
X106930636Y-110250000D01*
X106033012Y-110250000D01*
X106065925Y-110192993D01*
X106100000Y-110065826D01*
X106100000Y-109934174D01*
X106065925Y-109807007D01*
X106033012Y-109750000D01*
X106930636Y-109750000D01*
X106930635Y-109749999D01*
X106919917Y-109709999D01*
X113144364Y-109709999D01*
X113144364Y-109710000D01*
X114041988Y-109710000D01*
X114009075Y-109767007D01*
X113975000Y-109894174D01*
X113975000Y-110025826D01*
X114009075Y-110152993D01*
X114041988Y-110210000D01*
X113144364Y-110210000D01*
X113201567Y-110423486D01*
X113201570Y-110423492D01*
X113301399Y-110637578D01*
X113436894Y-110831082D01*
X113603917Y-110998105D01*
X113797421Y-111133600D01*
X114011507Y-111233429D01*
X114011516Y-111233433D01*
X114225000Y-111290634D01*
X114225000Y-110393012D01*
X114282007Y-110425925D01*
X114409174Y-110460000D01*
X114540826Y-110460000D01*
X114667993Y-110425925D01*
X114725000Y-110393012D01*
X114725000Y-111290633D01*
X114938483Y-111233433D01*
X114938492Y-111233429D01*
X115152578Y-111133600D01*
X115346082Y-110998105D01*
X115513105Y-110831082D01*
X115648600Y-110637578D01*
X115748429Y-110423492D01*
X115748432Y-110423486D01*
X115805636Y-110210000D01*
X114908012Y-110210000D01*
X114940925Y-110152993D01*
X114975000Y-110025826D01*
X114975000Y-109894174D01*
X114940925Y-109767007D01*
X114908012Y-109710000D01*
X115805636Y-109710000D01*
X115805635Y-109709999D01*
X115748432Y-109496513D01*
X115748429Y-109496507D01*
X115648600Y-109282422D01*
X115648599Y-109282420D01*
X115513113Y-109088926D01*
X115513108Y-109088920D01*
X115346082Y-108921894D01*
X115152578Y-108786399D01*
X115015535Y-108722495D01*
X114963096Y-108676322D01*
X114943944Y-108609129D01*
X114964160Y-108542248D01*
X115008096Y-108503184D01*
X115007527Y-108502265D01*
X115201560Y-108382125D01*
X115201559Y-108382125D01*
X115201562Y-108382124D01*
X115365981Y-108232236D01*
X115500058Y-108054689D01*
X115599229Y-107855528D01*
X115660115Y-107641536D01*
X115680643Y-107420000D01*
X115663821Y-107238464D01*
X115660115Y-107198464D01*
X115660114Y-107198462D01*
X115599230Y-106984476D01*
X115599229Y-106984472D01*
X115578542Y-106942927D01*
X115500061Y-106785316D01*
X115500056Y-106785308D01*
X115365979Y-106607761D01*
X115201562Y-106457876D01*
X115201560Y-106457874D01*
X115012404Y-106340754D01*
X115012395Y-106340750D01*
X114918956Y-106304552D01*
X114818475Y-106265625D01*
X114763075Y-106223054D01*
X114739484Y-106157288D01*
X114755195Y-106089207D01*
X114805219Y-106040428D01*
X114818466Y-106034377D01*
X115012401Y-105959247D01*
X115201562Y-105842124D01*
X115365981Y-105692236D01*
X115500058Y-105514689D01*
X115582064Y-105350000D01*
X127753360Y-105350000D01*
X128765261Y-105350000D01*
X128740000Y-105509493D01*
X128740000Y-105690507D01*
X128765261Y-105850000D01*
X127753361Y-105850000D01*
X127775786Y-106020340D01*
X127848733Y-106292582D01*
X127956584Y-106552957D01*
X127956589Y-106552968D01*
X128097500Y-106797031D01*
X128097511Y-106797047D01*
X128269074Y-107020633D01*
X128269080Y-107020640D01*
X128468359Y-107219919D01*
X128468366Y-107219925D01*
X128691952Y-107391488D01*
X128691968Y-107391499D01*
X128936031Y-107532410D01*
X128936042Y-107532415D01*
X129196417Y-107640266D01*
X129468659Y-107713213D01*
X129738999Y-107748804D01*
X129739000Y-107748804D01*
X129739000Y-106740418D01*
X129799493Y-106750000D01*
X130178507Y-106750000D01*
X130239000Y-106740418D01*
X130239000Y-107748804D01*
X130509340Y-107713213D01*
X130781582Y-107640266D01*
X131041957Y-107532415D01*
X131041968Y-107532410D01*
X131286031Y-107391499D01*
X131286047Y-107391488D01*
X131509633Y-107219925D01*
X131509640Y-107219919D01*
X131708919Y-107020640D01*
X131708925Y-107020633D01*
X131880488Y-106797047D01*
X131880499Y-106797031D01*
X132021410Y-106552968D01*
X132021415Y-106552957D01*
X132129266Y-106292582D01*
X132202213Y-106020340D01*
X132224639Y-105850000D01*
X131212739Y-105850000D01*
X131238000Y-105690507D01*
X131238000Y-105509493D01*
X131212739Y-105350000D01*
X132224639Y-105350000D01*
X132202213Y-105179659D01*
X132129266Y-104907417D01*
X132021415Y-104647042D01*
X132021410Y-104647031D01*
X131880499Y-104402968D01*
X131880488Y-104402952D01*
X131708925Y-104179366D01*
X131708919Y-104179359D01*
X131509640Y-103980080D01*
X131509633Y-103980074D01*
X131286047Y-103808511D01*
X131286031Y-103808500D01*
X131041968Y-103667589D01*
X131041957Y-103667584D01*
X130781582Y-103559733D01*
X130509340Y-103486786D01*
X130239000Y-103451194D01*
X130239000Y-104459581D01*
X130178507Y-104450000D01*
X129799493Y-104450000D01*
X129739000Y-104459581D01*
X129739000Y-103451194D01*
X129468659Y-103486786D01*
X129196417Y-103559733D01*
X128936042Y-103667584D01*
X128936031Y-103667589D01*
X128691968Y-103808500D01*
X128691952Y-103808511D01*
X128468366Y-103980074D01*
X128468359Y-103980080D01*
X128269080Y-104179359D01*
X128269074Y-104179366D01*
X128097511Y-104402952D01*
X128097500Y-104402968D01*
X127956589Y-104647031D01*
X127956584Y-104647042D01*
X127848733Y-104907417D01*
X127775786Y-105179659D01*
X127753360Y-105350000D01*
X115582064Y-105350000D01*
X115599229Y-105315528D01*
X115660115Y-105101536D01*
X115680643Y-104880000D01*
X115663821Y-104698464D01*
X115660115Y-104658464D01*
X115660114Y-104658462D01*
X115657090Y-104647835D01*
X115599229Y-104444472D01*
X115599110Y-104444233D01*
X115500061Y-104245316D01*
X115500056Y-104245308D01*
X115365979Y-104067761D01*
X115201562Y-103917876D01*
X115201560Y-103917874D01*
X115012404Y-103800754D01*
X115012395Y-103800750D01*
X114908563Y-103760526D01*
X114818475Y-103725625D01*
X114763075Y-103683054D01*
X114739484Y-103617288D01*
X114755195Y-103549207D01*
X114805219Y-103500428D01*
X114818466Y-103494377D01*
X115012401Y-103419247D01*
X115201562Y-103302124D01*
X115365981Y-103152236D01*
X115500058Y-102974689D01*
X115599229Y-102775528D01*
X115660115Y-102561536D01*
X115680643Y-102340000D01*
X115668736Y-102211506D01*
X115660115Y-102118464D01*
X115660114Y-102118462D01*
X115657896Y-102110668D01*
X115599229Y-101904472D01*
X115599224Y-101904461D01*
X115500061Y-101705316D01*
X115500056Y-101705308D01*
X115365979Y-101527761D01*
X115201562Y-101377876D01*
X115201560Y-101377874D01*
X115012404Y-101260754D01*
X115012395Y-101260750D01*
X114918956Y-101224552D01*
X114818475Y-101185625D01*
X114763075Y-101143054D01*
X114739484Y-101077288D01*
X114755195Y-101009207D01*
X114805219Y-100960428D01*
X114818466Y-100954377D01*
X114967910Y-100896483D01*
X115012399Y-100879248D01*
X115012403Y-100879246D01*
X115201562Y-100762124D01*
X115365981Y-100612236D01*
X115500058Y-100434689D01*
X115599229Y-100235528D01*
X115660115Y-100021536D01*
X115680643Y-99800000D01*
X115676010Y-99750000D01*
X121108117Y-99750000D01*
X121940518Y-99750000D01*
X121929889Y-99768409D01*
X121889000Y-99921009D01*
X121889000Y-100078991D01*
X121929889Y-100231591D01*
X121940518Y-100250000D01*
X121108117Y-100250000D01*
X121160317Y-100456135D01*
X121253516Y-100668609D01*
X121380414Y-100862842D01*
X121537558Y-101033545D01*
X121537562Y-101033548D01*
X121720644Y-101176047D01*
X121720648Y-101176050D01*
X121846532Y-101244175D01*
X121896122Y-101293395D01*
X121911230Y-101361611D01*
X121887060Y-101427167D01*
X121858638Y-101454805D01*
X121682118Y-101578405D01*
X121527402Y-101733121D01*
X121401900Y-101912357D01*
X121401898Y-101912361D01*
X121309426Y-102110668D01*
X121309422Y-102110677D01*
X121252793Y-102322020D01*
X121252793Y-102322024D01*
X121233723Y-102539997D01*
X121233723Y-102540002D01*
X121252793Y-102757975D01*
X121252793Y-102757979D01*
X121309422Y-102969322D01*
X121309424Y-102969326D01*
X121309425Y-102969330D01*
X121330577Y-103014691D01*
X121401897Y-103167638D01*
X121401898Y-103167639D01*
X121527402Y-103346877D01*
X121682123Y-103501598D01*
X121861361Y-103627102D01*
X122059670Y-103719575D01*
X122059676Y-103719576D01*
X122059677Y-103719577D01*
X122072654Y-103723054D01*
X122271023Y-103776207D01*
X122453926Y-103792208D01*
X122488998Y-103795277D01*
X122489000Y-103795277D01*
X122489002Y-103795277D01*
X122517254Y-103792805D01*
X122706977Y-103776207D01*
X122918330Y-103719575D01*
X123116639Y-103627102D01*
X123295877Y-103501598D01*
X123450598Y-103346877D01*
X123576102Y-103167639D01*
X123668575Y-102969330D01*
X123725207Y-102757977D01*
X123744277Y-102540000D01*
X123725207Y-102322023D01*
X123681381Y-102158462D01*
X123668577Y-102110677D01*
X123668576Y-102110676D01*
X123668575Y-102110670D01*
X123576102Y-101912362D01*
X123576100Y-101912359D01*
X123576099Y-101912357D01*
X123450599Y-101733124D01*
X123422783Y-101705308D01*
X123295877Y-101578402D01*
X123223559Y-101527764D01*
X123119361Y-101454803D01*
X123075736Y-101400226D01*
X123068544Y-101330728D01*
X123100066Y-101268373D01*
X123131468Y-101244174D01*
X123257346Y-101176053D01*
X123257355Y-101176047D01*
X123440437Y-101033548D01*
X123440441Y-101033545D01*
X123597585Y-100862842D01*
X123724483Y-100668609D01*
X123817682Y-100456135D01*
X123869883Y-100250000D01*
X123037482Y-100250000D01*
X123048111Y-100231591D01*
X123089000Y-100078991D01*
X123089000Y-99921009D01*
X123048111Y-99768409D01*
X123037482Y-99750000D01*
X123869883Y-99750000D01*
X123817682Y-99543864D01*
X123724483Y-99331390D01*
X123597585Y-99137157D01*
X123440441Y-98966454D01*
X123440437Y-98966451D01*
X123257355Y-98823952D01*
X123257346Y-98823946D01*
X123131468Y-98755825D01*
X123081877Y-98706606D01*
X123066769Y-98638389D01*
X123090939Y-98572833D01*
X123119357Y-98545198D01*
X123295877Y-98421598D01*
X123450598Y-98266877D01*
X123576102Y-98087639D01*
X123668575Y-97889330D01*
X123725207Y-97677977D01*
X123744277Y-97460000D01*
X123725207Y-97242023D01*
X123668575Y-97030670D01*
X123576102Y-96832362D01*
X123576100Y-96832359D01*
X123576099Y-96832357D01*
X123450599Y-96653124D01*
X123407996Y-96610521D01*
X123295877Y-96498402D01*
X123116639Y-96372898D01*
X123116640Y-96372898D01*
X123116638Y-96372897D01*
X123017484Y-96326661D01*
X122918330Y-96280425D01*
X122918326Y-96280424D01*
X122918322Y-96280422D01*
X122706977Y-96223793D01*
X122489002Y-96204723D01*
X122488998Y-96204723D01*
X122343682Y-96217436D01*
X122271023Y-96223793D01*
X122271020Y-96223793D01*
X122059677Y-96280422D01*
X122059670Y-96280424D01*
X122059670Y-96280425D01*
X122057285Y-96281537D01*
X121861361Y-96372898D01*
X121861357Y-96372900D01*
X121682121Y-96498402D01*
X121527402Y-96653121D01*
X121401900Y-96832357D01*
X121401898Y-96832361D01*
X121309426Y-97030668D01*
X121309422Y-97030677D01*
X121252793Y-97242020D01*
X121252793Y-97242023D01*
X121233723Y-97460000D01*
X121247843Y-97621402D01*
X121252793Y-97677975D01*
X121252793Y-97677979D01*
X121309422Y-97889322D01*
X121309424Y-97889326D01*
X121309425Y-97889330D01*
X121333151Y-97940210D01*
X121401897Y-98087638D01*
X121401898Y-98087639D01*
X121527402Y-98266877D01*
X121682123Y-98421598D01*
X121827950Y-98523707D01*
X121858638Y-98545195D01*
X121902263Y-98599773D01*
X121909455Y-98669271D01*
X121877933Y-98731626D01*
X121846532Y-98755825D01*
X121720648Y-98823949D01*
X121720644Y-98823952D01*
X121537562Y-98966451D01*
X121537558Y-98966454D01*
X121380414Y-99137157D01*
X121253516Y-99331390D01*
X121160317Y-99543864D01*
X121108117Y-99750000D01*
X115676010Y-99750000D01*
X115660115Y-99578464D01*
X115599229Y-99364472D01*
X115599224Y-99364461D01*
X115500061Y-99165316D01*
X115500056Y-99165308D01*
X115365979Y-98987761D01*
X115201562Y-98837876D01*
X115201560Y-98837874D01*
X115012404Y-98720754D01*
X115012398Y-98720751D01*
X114960904Y-98700803D01*
X114959158Y-98700126D01*
X114903758Y-98657554D01*
X114880167Y-98591787D01*
X114895878Y-98523707D01*
X114945902Y-98474928D01*
X115003953Y-98460500D01*
X115358261Y-98460500D01*
X115380971Y-98457191D01*
X115426393Y-98450573D01*
X115531483Y-98399198D01*
X115614198Y-98316483D01*
X115665573Y-98211393D01*
X115675500Y-98143260D01*
X115675500Y-96376740D01*
X115665573Y-96308607D01*
X115614198Y-96203517D01*
X115614196Y-96203515D01*
X115614196Y-96203514D01*
X115531485Y-96120803D01*
X115426391Y-96069426D01*
X115358261Y-96059500D01*
X115358260Y-96059500D01*
X113591740Y-96059500D01*
X113591739Y-96059500D01*
X113523608Y-96069426D01*
X113418514Y-96120803D01*
X113335803Y-96203514D01*
X113284426Y-96308608D01*
X113274500Y-96376739D01*
X113274500Y-98143260D01*
X113284426Y-98211391D01*
X113335803Y-98316485D01*
X113418514Y-98399196D01*
X113418515Y-98399196D01*
X113418517Y-98399198D01*
X113523607Y-98450573D01*
X113557673Y-98455536D01*
X113591739Y-98460500D01*
X113946047Y-98460500D01*
X114013086Y-98480185D01*
X114058841Y-98532989D01*
X114068785Y-98602147D01*
X114039760Y-98665703D01*
X113990841Y-98700126D01*
X113989096Y-98700803D01*
X113937601Y-98720751D01*
X113937595Y-98720754D01*
X113748439Y-98837874D01*
X113748437Y-98837876D01*
X113584020Y-98987761D01*
X113449943Y-99165308D01*
X113449938Y-99165316D01*
X113350775Y-99364461D01*
X113350769Y-99364476D01*
X113289885Y-99578462D01*
X113289884Y-99578464D01*
X113269357Y-99799999D01*
X113269357Y-99800000D01*
X113289884Y-100021535D01*
X113289885Y-100021537D01*
X113350769Y-100235523D01*
X113350775Y-100235538D01*
X113449938Y-100434683D01*
X113449943Y-100434691D01*
X113584020Y-100612238D01*
X113748437Y-100762123D01*
X113748439Y-100762125D01*
X113937595Y-100879245D01*
X113937596Y-100879245D01*
X113937599Y-100879247D01*
X114131524Y-100954374D01*
X114186924Y-100996946D01*
X114210515Y-101062713D01*
X114194804Y-101130793D01*
X114144780Y-101179572D01*
X114131533Y-101185622D01*
X113983488Y-101242975D01*
X113937601Y-101260752D01*
X113937595Y-101260754D01*
X113748439Y-101377874D01*
X113748437Y-101377876D01*
X113584020Y-101527761D01*
X113449943Y-101705308D01*
X113449938Y-101705316D01*
X113350775Y-101904461D01*
X113350769Y-101904476D01*
X113289885Y-102118462D01*
X113289884Y-102118464D01*
X113269357Y-102339999D01*
X113269357Y-102340000D01*
X113289884Y-102561535D01*
X113289885Y-102561537D01*
X113350769Y-102775523D01*
X113350775Y-102775538D01*
X113449938Y-102974683D01*
X113449943Y-102974691D01*
X113584020Y-103152238D01*
X113748437Y-103302123D01*
X113748439Y-103302125D01*
X113937595Y-103419245D01*
X113937596Y-103419245D01*
X113937599Y-103419247D01*
X114131524Y-103494374D01*
X114186924Y-103536946D01*
X114210515Y-103602713D01*
X114194804Y-103670793D01*
X114144780Y-103719572D01*
X114131533Y-103725622D01*
X113983488Y-103782975D01*
X113937601Y-103800752D01*
X113937595Y-103800754D01*
X113748439Y-103917874D01*
X113748437Y-103917876D01*
X113584020Y-104067761D01*
X113449943Y-104245308D01*
X113449938Y-104245316D01*
X113350775Y-104444461D01*
X113350769Y-104444476D01*
X113289885Y-104658462D01*
X113289884Y-104658464D01*
X113269357Y-104879999D01*
X113269357Y-104880000D01*
X113289884Y-105101535D01*
X113289885Y-105101537D01*
X113350769Y-105315523D01*
X113350775Y-105315538D01*
X113449938Y-105514683D01*
X113449943Y-105514691D01*
X113584020Y-105692238D01*
X113748437Y-105842123D01*
X113748439Y-105842125D01*
X113937595Y-105959245D01*
X113937596Y-105959245D01*
X113937599Y-105959247D01*
X114131524Y-106034374D01*
X114186924Y-106076946D01*
X114210515Y-106142713D01*
X114194804Y-106210793D01*
X114144780Y-106259572D01*
X114131533Y-106265622D01*
X113983488Y-106322975D01*
X113937601Y-106340752D01*
X113937595Y-106340754D01*
X113748439Y-106457874D01*
X113748437Y-106457876D01*
X113584020Y-106607761D01*
X113449943Y-106785308D01*
X113449938Y-106785316D01*
X113350775Y-106984461D01*
X113350769Y-106984476D01*
X113289885Y-107198462D01*
X113289884Y-107198464D01*
X113269357Y-107419999D01*
X113269357Y-107420000D01*
X113289884Y-107641535D01*
X113289885Y-107641537D01*
X113350769Y-107855523D01*
X113350775Y-107855538D01*
X113449938Y-108054683D01*
X113449943Y-108054691D01*
X113584020Y-108232238D01*
X113748437Y-108382123D01*
X113748439Y-108382125D01*
X113942473Y-108502265D01*
X113941836Y-108503292D01*
X113988563Y-108546607D01*
X114005989Y-108614269D01*
X113984069Y-108680611D01*
X113934464Y-108722495D01*
X113797422Y-108786399D01*
X113797420Y-108786400D01*
X113603926Y-108921886D01*
X113603920Y-108921891D01*
X113436891Y-109088920D01*
X113436886Y-109088926D01*
X113301400Y-109282420D01*
X113301399Y-109282422D01*
X113201570Y-109496507D01*
X113201567Y-109496513D01*
X113144364Y-109709999D01*
X106919917Y-109709999D01*
X106873432Y-109536513D01*
X106873429Y-109536507D01*
X106773600Y-109322422D01*
X106773599Y-109322420D01*
X106638113Y-109128926D01*
X106638108Y-109128920D01*
X106471082Y-108961894D01*
X106277578Y-108826399D01*
X106140535Y-108762495D01*
X106088096Y-108716322D01*
X106068944Y-108649129D01*
X106089160Y-108582248D01*
X106133096Y-108543184D01*
X106132527Y-108542265D01*
X106326560Y-108422125D01*
X106326559Y-108422125D01*
X106326562Y-108422124D01*
X106490981Y-108272236D01*
X106625058Y-108094689D01*
X106724229Y-107895528D01*
X106785115Y-107681536D01*
X106805643Y-107460000D01*
X106785115Y-107238464D01*
X106724229Y-107024472D01*
X106722321Y-107020640D01*
X106625061Y-106825316D01*
X106625056Y-106825308D01*
X106490979Y-106647761D01*
X106326562Y-106497876D01*
X106326560Y-106497874D01*
X106137404Y-106380754D01*
X106137395Y-106380750D01*
X106034147Y-106340752D01*
X105943475Y-106305625D01*
X105888075Y-106263054D01*
X105864484Y-106197288D01*
X105880195Y-106129207D01*
X105930219Y-106080428D01*
X105943466Y-106074377D01*
X106137401Y-105999247D01*
X106326562Y-105882124D01*
X106490981Y-105732236D01*
X106625058Y-105554689D01*
X106724229Y-105355528D01*
X106785115Y-105141536D01*
X106805643Y-104920000D01*
X106794770Y-104802665D01*
X106785115Y-104698464D01*
X106785114Y-104698462D01*
X106779387Y-104678334D01*
X106724229Y-104484472D01*
X106724224Y-104484461D01*
X106625061Y-104285316D01*
X106625056Y-104285308D01*
X106490979Y-104107761D01*
X106326562Y-103957876D01*
X106326560Y-103957874D01*
X106137404Y-103840754D01*
X106137395Y-103840750D01*
X106034147Y-103800752D01*
X105943475Y-103765625D01*
X105888075Y-103723054D01*
X105864484Y-103657288D01*
X105871935Y-103625000D01*
X110369355Y-103625000D01*
X110389859Y-103793869D01*
X110389860Y-103793874D01*
X110450182Y-103952931D01*
X110551078Y-104099103D01*
X110548807Y-104100670D01*
X110573034Y-104152190D01*
X110574500Y-104171204D01*
X110574500Y-105928796D01*
X110554815Y-105995835D01*
X110551015Y-106000854D01*
X110551078Y-106000898D01*
X110450182Y-106147068D01*
X110389860Y-106306125D01*
X110389859Y-106306130D01*
X110369355Y-106475000D01*
X110389859Y-106643869D01*
X110389860Y-106643874D01*
X110450182Y-106802931D01*
X110465634Y-106825316D01*
X110546817Y-106942929D01*
X110638865Y-107024476D01*
X110674150Y-107055736D01*
X110820926Y-107132770D01*
X110824775Y-107134790D01*
X110989944Y-107175500D01*
X111160056Y-107175500D01*
X111325225Y-107134790D01*
X111404692Y-107093081D01*
X111475849Y-107055736D01*
X111475850Y-107055734D01*
X111475852Y-107055734D01*
X111603183Y-106942929D01*
X111699818Y-106802930D01*
X111760140Y-106643872D01*
X111780645Y-106475000D01*
X111760140Y-106306128D01*
X111755242Y-106293214D01*
X111703312Y-106156284D01*
X111699818Y-106147070D01*
X111674085Y-106109790D01*
X111598922Y-106000898D01*
X111601186Y-105999334D01*
X111576961Y-105947774D01*
X111575500Y-105928796D01*
X111575500Y-104171204D01*
X111595185Y-104104165D01*
X111598985Y-104099146D01*
X111598922Y-104099103D01*
X111659170Y-104011818D01*
X111699818Y-103952930D01*
X111760140Y-103793872D01*
X111780645Y-103625000D01*
X111760140Y-103456128D01*
X111699818Y-103297070D01*
X111603183Y-103157071D01*
X111475852Y-103044266D01*
X111475849Y-103044263D01*
X111325226Y-102965210D01*
X111160056Y-102924500D01*
X110989944Y-102924500D01*
X110824773Y-102965210D01*
X110674150Y-103044263D01*
X110546816Y-103157072D01*
X110450182Y-103297068D01*
X110389860Y-103456125D01*
X110389859Y-103456130D01*
X110369355Y-103625000D01*
X105871935Y-103625000D01*
X105880195Y-103589207D01*
X105930219Y-103540428D01*
X105943466Y-103534377D01*
X106137401Y-103459247D01*
X106326562Y-103342124D01*
X106490981Y-103192236D01*
X106625058Y-103014689D01*
X106724229Y-102815528D01*
X106785115Y-102601536D01*
X106805643Y-102380000D01*
X106800270Y-102322020D01*
X106785115Y-102158464D01*
X106785114Y-102158462D01*
X106771515Y-102110668D01*
X106724229Y-101944472D01*
X106709523Y-101914938D01*
X106625061Y-101745316D01*
X106625056Y-101745308D01*
X106490979Y-101567761D01*
X106326562Y-101417876D01*
X106326560Y-101417874D01*
X106137404Y-101300754D01*
X106137398Y-101300751D01*
X106084159Y-101280127D01*
X106028758Y-101237554D01*
X106005167Y-101171787D01*
X106020878Y-101103707D01*
X106070902Y-101054928D01*
X106128953Y-101040500D01*
X106483261Y-101040500D01*
X106505971Y-101037191D01*
X106551393Y-101030573D01*
X106656483Y-100979198D01*
X106739198Y-100896483D01*
X106790573Y-100791393D01*
X106800500Y-100723260D01*
X106800500Y-98956740D01*
X106790573Y-98888607D01*
X106739198Y-98783517D01*
X106739196Y-98783515D01*
X106739196Y-98783514D01*
X106656485Y-98700803D01*
X106551391Y-98649426D01*
X106483261Y-98639500D01*
X106483260Y-98639500D01*
X104716740Y-98639500D01*
X104716739Y-98639500D01*
X104648608Y-98649426D01*
X104543514Y-98700803D01*
X104460803Y-98783514D01*
X104409426Y-98888608D01*
X104399500Y-98956739D01*
X104399500Y-100723260D01*
X104409426Y-100791391D01*
X104460803Y-100896485D01*
X104543514Y-100979196D01*
X104543515Y-100979196D01*
X104543517Y-100979198D01*
X104648607Y-101030573D01*
X104669005Y-101033545D01*
X104716739Y-101040500D01*
X105071047Y-101040500D01*
X105138086Y-101060185D01*
X105183841Y-101112989D01*
X105193785Y-101182147D01*
X105164760Y-101245703D01*
X105115841Y-101280127D01*
X105062601Y-101300751D01*
X105062595Y-101300754D01*
X104873439Y-101417874D01*
X104873437Y-101417876D01*
X104709020Y-101567761D01*
X104574943Y-101745308D01*
X104574938Y-101745316D01*
X104475775Y-101944461D01*
X104475769Y-101944476D01*
X104414885Y-102158462D01*
X104414884Y-102158464D01*
X104394357Y-102379999D01*
X104394357Y-102380000D01*
X104414884Y-102601535D01*
X104414885Y-102601537D01*
X104475769Y-102815523D01*
X104475775Y-102815538D01*
X104574938Y-103014683D01*
X104574943Y-103014691D01*
X104709020Y-103192238D01*
X104873437Y-103342123D01*
X104873439Y-103342125D01*
X105062595Y-103459245D01*
X105062596Y-103459245D01*
X105062599Y-103459247D01*
X105256524Y-103534374D01*
X105311924Y-103576946D01*
X105335515Y-103642713D01*
X105319804Y-103710793D01*
X105269780Y-103759572D01*
X105256533Y-103765622D01*
X105145825Y-103808511D01*
X105062601Y-103840752D01*
X105062595Y-103840754D01*
X104873439Y-103957874D01*
X104873437Y-103957876D01*
X104709020Y-104107761D01*
X104574943Y-104285308D01*
X104574938Y-104285316D01*
X104475775Y-104484461D01*
X104475769Y-104484476D01*
X104414885Y-104698462D01*
X104414884Y-104698464D01*
X104394357Y-104919999D01*
X104394357Y-104920000D01*
X104414884Y-105141535D01*
X104414885Y-105141537D01*
X104475769Y-105355523D01*
X104475775Y-105355538D01*
X104574938Y-105554683D01*
X104574943Y-105554691D01*
X104709020Y-105732238D01*
X104873437Y-105882123D01*
X104873439Y-105882125D01*
X105062595Y-105999245D01*
X105062596Y-105999245D01*
X105062599Y-105999247D01*
X105256524Y-106074374D01*
X105311924Y-106116946D01*
X105335515Y-106182713D01*
X105319804Y-106250793D01*
X105269780Y-106299572D01*
X105256533Y-106305622D01*
X105144111Y-106349175D01*
X105062601Y-106380752D01*
X105062595Y-106380754D01*
X104873439Y-106497874D01*
X104873437Y-106497876D01*
X104709020Y-106647761D01*
X104574943Y-106825308D01*
X104574938Y-106825316D01*
X104475775Y-107024461D01*
X104475769Y-107024476D01*
X104414885Y-107238462D01*
X104414884Y-107238464D01*
X104394357Y-107459999D01*
X104394357Y-107460000D01*
X104414884Y-107681535D01*
X104414885Y-107681537D01*
X104475769Y-107895523D01*
X104475775Y-107895538D01*
X104574938Y-108094683D01*
X104574943Y-108094691D01*
X104709020Y-108272238D01*
X104873437Y-108422123D01*
X104873439Y-108422125D01*
X105067473Y-108542265D01*
X105066836Y-108543292D01*
X105113563Y-108586607D01*
X105130989Y-108654269D01*
X105109069Y-108720611D01*
X105059464Y-108762495D01*
X104922422Y-108826399D01*
X104922420Y-108826400D01*
X104728926Y-108961886D01*
X104728920Y-108961891D01*
X104561891Y-109128920D01*
X104561886Y-109128926D01*
X104426400Y-109322420D01*
X104426399Y-109322422D01*
X104326570Y-109536507D01*
X104326567Y-109536513D01*
X104269364Y-109749999D01*
X88882814Y-109749999D01*
X89270994Y-109361819D01*
X89332317Y-109328334D01*
X89358675Y-109325500D01*
X89385056Y-109325500D01*
X89550225Y-109284790D01*
X89629692Y-109243081D01*
X89700849Y-109205736D01*
X89700850Y-109205734D01*
X89700852Y-109205734D01*
X89828183Y-109092929D01*
X89924818Y-108952930D01*
X89985140Y-108793872D01*
X90005645Y-108625000D01*
X89985140Y-108456128D01*
X89985138Y-108456124D01*
X89924817Y-108297068D01*
X89880066Y-108232236D01*
X89828183Y-108157071D01*
X89733316Y-108073026D01*
X89700849Y-108044263D01*
X89550226Y-107965210D01*
X89385056Y-107924500D01*
X89214944Y-107924500D01*
X89049773Y-107965210D01*
X88899150Y-108044263D01*
X88771816Y-108157072D01*
X88675182Y-108297068D01*
X88675182Y-108297069D01*
X88614860Y-108456124D01*
X88614859Y-108456129D01*
X88599811Y-108580056D01*
X88572188Y-108644234D01*
X88564396Y-108652789D01*
X86343026Y-110874159D01*
X86285020Y-110906875D01*
X86149773Y-110940210D01*
X85999150Y-111019263D01*
X85871816Y-111132072D01*
X85775182Y-111272068D01*
X85714860Y-111431125D01*
X85714859Y-111431130D01*
X85694355Y-111600000D01*
X66134285Y-111600000D01*
X66132640Y-111594993D01*
X65808444Y-110608454D01*
X65807240Y-110604573D01*
X65616120Y-109950000D01*
X76594815Y-109950000D01*
X76613503Y-110127805D01*
X76613504Y-110127807D01*
X76668747Y-110297829D01*
X76668750Y-110297835D01*
X76758141Y-110452665D01*
X76799812Y-110498946D01*
X76877764Y-110585521D01*
X76877767Y-110585523D01*
X76877770Y-110585526D01*
X77022407Y-110690612D01*
X77185733Y-110763329D01*
X77360609Y-110800500D01*
X77360610Y-110800500D01*
X77539389Y-110800500D01*
X77539391Y-110800500D01*
X77714267Y-110763329D01*
X77877593Y-110690612D01*
X78022230Y-110585526D01*
X78141859Y-110452665D01*
X78231250Y-110297835D01*
X78286497Y-110127803D01*
X78305185Y-109950000D01*
X78286497Y-109772197D01*
X78231250Y-109602165D01*
X78170252Y-109496513D01*
X78141860Y-109447336D01*
X78141855Y-109447329D01*
X78082350Y-109381242D01*
X78052120Y-109318250D01*
X78050500Y-109298270D01*
X78050500Y-106825097D01*
X78070185Y-106758058D01*
X78086819Y-106737416D01*
X79374236Y-105450000D01*
X83094355Y-105450000D01*
X83114859Y-105618869D01*
X83114860Y-105618874D01*
X83175182Y-105777931D01*
X83219492Y-105842124D01*
X83271817Y-105917929D01*
X83363609Y-105999249D01*
X83399150Y-106030736D01*
X83549773Y-106109789D01*
X83549775Y-106109790D01*
X83714944Y-106150500D01*
X83885056Y-106150500D01*
X84050225Y-106109790D01*
X84200852Y-106030734D01*
X84256218Y-105981683D01*
X84319451Y-105951963D01*
X84338445Y-105950500D01*
X86740890Y-105950500D01*
X86740892Y-105950500D01*
X86868186Y-105916392D01*
X86982314Y-105850500D01*
X87670995Y-105161819D01*
X87732318Y-105128334D01*
X87758676Y-105125500D01*
X87785056Y-105125500D01*
X87950225Y-105084790D01*
X88034402Y-105040610D01*
X88100849Y-105005736D01*
X88100850Y-105005734D01*
X88100852Y-105005734D01*
X88228183Y-104892929D01*
X88324818Y-104752930D01*
X88385140Y-104593872D01*
X88405645Y-104425000D01*
X88390467Y-104300000D01*
X100719815Y-104300000D01*
X100738503Y-104477805D01*
X100738504Y-104477807D01*
X100793747Y-104647829D01*
X100793750Y-104647835D01*
X100883141Y-104802665D01*
X100924812Y-104848946D01*
X101002764Y-104935521D01*
X101002767Y-104935523D01*
X101002770Y-104935526D01*
X101147407Y-105040612D01*
X101310733Y-105113329D01*
X101485609Y-105150500D01*
X101485610Y-105150500D01*
X101664389Y-105150500D01*
X101664391Y-105150500D01*
X101839267Y-105113329D01*
X102002593Y-105040612D01*
X102147230Y-104935526D01*
X102152373Y-104929815D01*
X102173148Y-104906741D01*
X102266859Y-104802665D01*
X102356250Y-104647835D01*
X102411497Y-104477803D01*
X102430185Y-104300000D01*
X102411497Y-104122197D01*
X102358105Y-103957874D01*
X102356252Y-103952170D01*
X102356249Y-103952164D01*
X102348261Y-103938329D01*
X102291927Y-103840754D01*
X102266860Y-103797336D01*
X102266855Y-103797329D01*
X102207350Y-103731242D01*
X102177120Y-103668250D01*
X102175500Y-103648270D01*
X102175500Y-101500097D01*
X102195185Y-101433058D01*
X102211819Y-101412416D01*
X102437416Y-101186819D01*
X102498739Y-101153334D01*
X102525097Y-101150500D01*
X102564389Y-101150500D01*
X102564391Y-101150500D01*
X102739267Y-101113329D01*
X102902593Y-101040612D01*
X103047230Y-100935526D01*
X103166859Y-100802665D01*
X103256250Y-100647835D01*
X103311497Y-100477803D01*
X103330185Y-100300000D01*
X103311497Y-100122197D01*
X103283873Y-100037181D01*
X103256252Y-99952170D01*
X103256249Y-99952164D01*
X103168686Y-99800500D01*
X103166859Y-99797335D01*
X103120003Y-99745296D01*
X103047235Y-99664478D01*
X103047232Y-99664476D01*
X103047231Y-99664475D01*
X103047230Y-99664474D01*
X102902593Y-99559388D01*
X102739267Y-99486671D01*
X102739265Y-99486670D01*
X102611594Y-99459533D01*
X102564391Y-99449500D01*
X102385609Y-99449500D01*
X102354954Y-99456015D01*
X102210733Y-99486670D01*
X102210728Y-99486672D01*
X102047408Y-99559387D01*
X101902768Y-99664475D01*
X101783140Y-99797336D01*
X101693750Y-99952164D01*
X101693747Y-99952170D01*
X101638504Y-100122192D01*
X101638503Y-100122195D01*
X101623706Y-100262978D01*
X101597121Y-100327593D01*
X101588066Y-100337697D01*
X101206286Y-100719478D01*
X101094481Y-100831282D01*
X101094479Y-100831284D01*
X101076260Y-100862842D01*
X101066789Y-100879247D01*
X101056838Y-100896483D01*
X101020387Y-100959618D01*
X101015423Y-100968215D01*
X100974499Y-101120943D01*
X100974499Y-101120945D01*
X100974499Y-101289046D01*
X100974500Y-101289059D01*
X100974500Y-103648270D01*
X100954815Y-103715309D01*
X100942650Y-103731242D01*
X100883144Y-103797329D01*
X100883139Y-103797336D01*
X100793750Y-103952164D01*
X100793747Y-103952170D01*
X100738504Y-104122192D01*
X100738503Y-104122194D01*
X100719815Y-104300000D01*
X88390467Y-104300000D01*
X88385140Y-104256128D01*
X88385138Y-104256124D01*
X88332548Y-104117453D01*
X88324818Y-104097070D01*
X88304589Y-104067764D01*
X88244065Y-103980080D01*
X88228183Y-103957071D01*
X88124947Y-103865612D01*
X88100849Y-103844263D01*
X87950226Y-103765210D01*
X87785056Y-103724500D01*
X87614944Y-103724500D01*
X87449773Y-103765210D01*
X87299150Y-103844263D01*
X87171816Y-103957072D01*
X87075182Y-104097068D01*
X87075182Y-104097069D01*
X87014860Y-104256124D01*
X87014859Y-104256129D01*
X86999811Y-104380055D01*
X86972188Y-104444233D01*
X86964396Y-104452788D01*
X86504005Y-104913181D01*
X86442682Y-104946666D01*
X86416324Y-104949500D01*
X84338445Y-104949500D01*
X84271406Y-104929815D01*
X84256218Y-104918316D01*
X84250422Y-104913181D01*
X84200852Y-104869266D01*
X84200850Y-104869265D01*
X84200849Y-104869264D01*
X84050226Y-104790210D01*
X83885056Y-104749500D01*
X83714944Y-104749500D01*
X83549773Y-104790210D01*
X83399150Y-104869263D01*
X83271816Y-104982072D01*
X83175182Y-105122068D01*
X83114860Y-105281125D01*
X83114859Y-105281130D01*
X83094355Y-105450000D01*
X79374236Y-105450000D01*
X80112417Y-104711819D01*
X80173740Y-104678334D01*
X80200098Y-104675500D01*
X80239389Y-104675500D01*
X80239391Y-104675500D01*
X80414267Y-104638329D01*
X80577593Y-104565612D01*
X80722230Y-104460526D01*
X80722238Y-104460517D01*
X80725755Y-104457351D01*
X80788747Y-104427121D01*
X80808729Y-104425500D01*
X81513331Y-104425500D01*
X81513347Y-104425501D01*
X81520943Y-104425501D01*
X81679054Y-104425501D01*
X81679057Y-104425501D01*
X81831785Y-104384577D01*
X81892477Y-104349536D01*
X81968716Y-104305520D01*
X82080520Y-104193716D01*
X82080520Y-104193714D01*
X82090721Y-104183514D01*
X82090724Y-104183509D01*
X82262417Y-104011816D01*
X82323740Y-103978334D01*
X82350097Y-103975500D01*
X82389389Y-103975500D01*
X82389391Y-103975500D01*
X82564267Y-103938329D01*
X82727593Y-103865612D01*
X82872230Y-103760526D01*
X82991859Y-103627665D01*
X83081250Y-103472835D01*
X83136497Y-103302803D01*
X83155185Y-103125000D01*
X83136497Y-102947197D01*
X83093715Y-102815528D01*
X83081252Y-102777170D01*
X83081249Y-102777164D01*
X82991859Y-102622335D01*
X82917724Y-102540000D01*
X82872235Y-102489478D01*
X82872232Y-102489476D01*
X82872231Y-102489475D01*
X82872230Y-102489474D01*
X82727593Y-102384388D01*
X82564267Y-102311671D01*
X82564265Y-102311670D01*
X82436594Y-102284533D01*
X82389391Y-102274500D01*
X82210609Y-102274500D01*
X82179954Y-102281015D01*
X82035733Y-102311670D01*
X82035728Y-102311672D01*
X81872408Y-102384387D01*
X81727768Y-102489475D01*
X81608140Y-102622336D01*
X81518750Y-102777164D01*
X81518747Y-102777170D01*
X81463504Y-102947192D01*
X81463503Y-102947194D01*
X81460633Y-102974500D01*
X81448706Y-103087979D01*
X81422122Y-103152591D01*
X81413069Y-103162695D01*
X81387585Y-103188180D01*
X81326262Y-103221666D01*
X81299902Y-103224500D01*
X80808729Y-103224500D01*
X80741690Y-103204815D01*
X80725755Y-103192649D01*
X80722233Y-103189477D01*
X80722230Y-103189474D01*
X80577593Y-103084388D01*
X80414267Y-103011671D01*
X80414265Y-103011670D01*
X80286594Y-102984533D01*
X80239391Y-102974500D01*
X80060609Y-102974500D01*
X80029954Y-102981015D01*
X79885733Y-103011670D01*
X79885728Y-103011672D01*
X79722408Y-103084387D01*
X79577768Y-103189475D01*
X79458140Y-103322336D01*
X79368750Y-103477164D01*
X79368747Y-103477170D01*
X79313504Y-103647192D01*
X79313503Y-103647195D01*
X79298706Y-103787977D01*
X79272121Y-103852592D01*
X79263066Y-103862696D01*
X77081286Y-106044478D01*
X76969481Y-106156282D01*
X76969479Y-106156285D01*
X76932984Y-106219498D01*
X76932983Y-106219500D01*
X76890423Y-106293214D01*
X76887097Y-106305627D01*
X76849499Y-106445943D01*
X76849499Y-106445945D01*
X76849499Y-106614046D01*
X76849500Y-106614059D01*
X76849500Y-109298270D01*
X76829815Y-109365309D01*
X76817650Y-109381242D01*
X76758144Y-109447329D01*
X76758139Y-109447336D01*
X76668750Y-109602164D01*
X76668747Y-109602170D01*
X76613504Y-109772192D01*
X76613503Y-109772194D01*
X76594815Y-109950000D01*
X65616120Y-109950000D01*
X65473052Y-109460000D01*
X65471981Y-109456093D01*
X65176236Y-108301036D01*
X65175281Y-108297031D01*
X65169809Y-108272238D01*
X64918293Y-107132720D01*
X64917489Y-107128759D01*
X64699551Y-105956514D01*
X64698866Y-105952452D01*
X64698570Y-105950500D01*
X64520230Y-104773651D01*
X64519681Y-104769567D01*
X64512895Y-104711819D01*
X64504319Y-104638839D01*
X64516045Y-104569965D01*
X64563148Y-104518359D01*
X64630673Y-104500412D01*
X64686489Y-104515316D01*
X64895385Y-104628364D01*
X64895396Y-104628369D01*
X65130506Y-104709083D01*
X65375707Y-104750000D01*
X65624293Y-104750000D01*
X65869493Y-104709083D01*
X66104603Y-104628369D01*
X66104614Y-104628364D01*
X66323228Y-104510057D01*
X66323231Y-104510055D01*
X66370056Y-104473609D01*
X65670234Y-103773787D01*
X65712292Y-103762518D01*
X65837708Y-103690110D01*
X65940110Y-103587708D01*
X66012518Y-103462292D01*
X66023787Y-103420234D01*
X66723434Y-104119882D01*
X66823731Y-103966369D01*
X66923587Y-103738717D01*
X66984612Y-103497738D01*
X66984614Y-103497729D01*
X67005141Y-103250005D01*
X67005141Y-103249999D01*
X68644341Y-103249999D01*
X68644341Y-103250000D01*
X68664936Y-103485403D01*
X68664938Y-103485413D01*
X68726094Y-103713655D01*
X68726096Y-103713659D01*
X68726097Y-103713663D01*
X68796951Y-103865610D01*
X68825965Y-103927830D01*
X68825967Y-103927834D01*
X68884774Y-104011818D01*
X68961505Y-104121401D01*
X69128599Y-104288495D01*
X69215772Y-104349534D01*
X69322165Y-104424032D01*
X69322167Y-104424033D01*
X69322170Y-104424035D01*
X69536337Y-104523903D01*
X69764592Y-104585063D01*
X69952918Y-104601539D01*
X69999999Y-104605659D01*
X70000000Y-104605659D01*
X70000001Y-104605659D01*
X70039234Y-104602226D01*
X70235408Y-104585063D01*
X70463663Y-104523903D01*
X70677830Y-104424035D01*
X70871401Y-104288495D01*
X71038495Y-104121401D01*
X71174035Y-103927830D01*
X71273903Y-103713663D01*
X71335063Y-103485408D01*
X71355659Y-103250000D01*
X71355658Y-103249994D01*
X71347529Y-103157072D01*
X71335063Y-103014592D01*
X71273903Y-102786337D01*
X71174035Y-102572171D01*
X71166589Y-102561536D01*
X71038494Y-102378597D01*
X70871402Y-102211506D01*
X70871395Y-102211501D01*
X70677834Y-102075967D01*
X70677830Y-102075965D01*
X70571512Y-102026388D01*
X70463663Y-101976097D01*
X70463659Y-101976096D01*
X70463655Y-101976094D01*
X70235413Y-101914938D01*
X70235403Y-101914936D01*
X70000001Y-101894341D01*
X69999999Y-101894341D01*
X69764596Y-101914936D01*
X69764586Y-101914938D01*
X69536344Y-101976094D01*
X69536335Y-101976098D01*
X69322171Y-102075964D01*
X69322169Y-102075965D01*
X69128597Y-102211505D01*
X68961505Y-102378597D01*
X68825965Y-102572169D01*
X68825964Y-102572171D01*
X68726098Y-102786335D01*
X68726094Y-102786344D01*
X68664938Y-103014586D01*
X68664936Y-103014596D01*
X68644341Y-103249999D01*
X67005141Y-103249999D01*
X67005141Y-103249994D01*
X66984614Y-103002270D01*
X66984612Y-103002261D01*
X66923587Y-102761282D01*
X66823731Y-102533630D01*
X66723434Y-102380116D01*
X66023787Y-103079764D01*
X66012518Y-103037708D01*
X65940110Y-102912292D01*
X65837708Y-102809890D01*
X65712292Y-102737482D01*
X65670235Y-102726212D01*
X66370057Y-102026390D01*
X66370056Y-102026389D01*
X66323229Y-101989943D01*
X66104614Y-101871635D01*
X66104603Y-101871630D01*
X65869493Y-101790916D01*
X65624293Y-101750000D01*
X65375707Y-101750000D01*
X65130506Y-101790916D01*
X64895396Y-101871630D01*
X64895390Y-101871632D01*
X64676761Y-101989949D01*
X64629942Y-102026388D01*
X64629942Y-102026390D01*
X65329765Y-102726212D01*
X65287708Y-102737482D01*
X65162292Y-102809890D01*
X65059890Y-102912292D01*
X64987482Y-103037708D01*
X64976212Y-103079765D01*
X64313836Y-102417389D01*
X64280351Y-102356066D01*
X64277675Y-102335938D01*
X64220594Y-101198287D01*
X64220458Y-101194218D01*
X64200534Y-100002034D01*
X64200534Y-99997965D01*
X64220458Y-98805779D01*
X64220594Y-98801714D01*
X64277674Y-97664071D01*
X64300692Y-97598107D01*
X64313836Y-97582609D01*
X64976212Y-96920233D01*
X64987482Y-96962292D01*
X65059890Y-97087708D01*
X65162292Y-97190110D01*
X65287708Y-97262518D01*
X65329765Y-97273787D01*
X64629942Y-97973609D01*
X64676768Y-98010055D01*
X64676770Y-98010056D01*
X64895385Y-98128364D01*
X64895396Y-98128369D01*
X65130506Y-98209083D01*
X65375707Y-98250000D01*
X65624293Y-98250000D01*
X65869493Y-98209083D01*
X66104603Y-98128369D01*
X66104614Y-98128364D01*
X66323228Y-98010057D01*
X66323231Y-98010055D01*
X66370056Y-97973609D01*
X65670234Y-97273787D01*
X65712292Y-97262518D01*
X65837708Y-97190110D01*
X65940110Y-97087708D01*
X66012518Y-96962292D01*
X66023787Y-96920234D01*
X66723434Y-97619882D01*
X66823731Y-97466369D01*
X66923587Y-97238717D01*
X66984612Y-96997738D01*
X66984614Y-96997729D01*
X67005141Y-96750005D01*
X67005141Y-96749999D01*
X68644341Y-96749999D01*
X68644341Y-96750000D01*
X68664936Y-96985403D01*
X68664938Y-96985413D01*
X68726094Y-97213655D01*
X68726096Y-97213659D01*
X68726097Y-97213663D01*
X68814412Y-97403054D01*
X68825965Y-97427830D01*
X68825967Y-97427834D01*
X68891030Y-97520753D01*
X68961505Y-97621401D01*
X69128599Y-97788495D01*
X69225384Y-97856265D01*
X69322165Y-97924032D01*
X69322167Y-97924033D01*
X69322170Y-97924035D01*
X69536337Y-98023903D01*
X69764592Y-98085063D01*
X69929604Y-98099500D01*
X69999999Y-98105659D01*
X70000000Y-98105659D01*
X70000001Y-98105659D01*
X70039234Y-98102226D01*
X70235408Y-98085063D01*
X70463663Y-98023903D01*
X70677830Y-97924035D01*
X70871401Y-97788495D01*
X71038495Y-97621401D01*
X71174035Y-97427830D01*
X71273903Y-97213663D01*
X71335063Y-96985408D01*
X71355659Y-96750000D01*
X71355658Y-96749994D01*
X71335063Y-96514596D01*
X71335063Y-96514592D01*
X71286248Y-96332410D01*
X71273905Y-96286344D01*
X71273904Y-96286343D01*
X71273903Y-96286337D01*
X71174035Y-96072171D01*
X71165513Y-96059999D01*
X71038494Y-95878597D01*
X70871402Y-95711506D01*
X70871395Y-95711501D01*
X70677834Y-95575967D01*
X70677830Y-95575965D01*
X70561422Y-95521683D01*
X70463663Y-95476097D01*
X70463659Y-95476096D01*
X70463655Y-95476094D01*
X70235413Y-95414938D01*
X70235403Y-95414936D01*
X70000001Y-95394341D01*
X69999999Y-95394341D01*
X69764596Y-95414936D01*
X69764586Y-95414938D01*
X69536344Y-95476094D01*
X69536335Y-95476098D01*
X69322171Y-95575964D01*
X69322169Y-95575965D01*
X69128597Y-95711505D01*
X68961505Y-95878597D01*
X68825965Y-96072169D01*
X68825964Y-96072171D01*
X68726098Y-96286335D01*
X68726094Y-96286344D01*
X68664938Y-96514586D01*
X68664936Y-96514596D01*
X68644341Y-96749999D01*
X67005141Y-96749999D01*
X67005141Y-96749994D01*
X66984614Y-96502270D01*
X66984612Y-96502261D01*
X66923587Y-96261282D01*
X66823731Y-96033630D01*
X66723434Y-95880116D01*
X66023787Y-96579764D01*
X66012518Y-96537708D01*
X65940110Y-96412292D01*
X65837708Y-96309890D01*
X65712292Y-96237482D01*
X65670234Y-96226212D01*
X66370057Y-95526389D01*
X66323229Y-95489943D01*
X66104614Y-95371635D01*
X66104603Y-95371630D01*
X65869493Y-95290916D01*
X65624293Y-95250000D01*
X65375707Y-95250000D01*
X65130506Y-95290916D01*
X64895396Y-95371630D01*
X64895385Y-95371635D01*
X64686489Y-95484683D01*
X64618161Y-95499278D01*
X64552789Y-95474615D01*
X64511128Y-95418524D01*
X64504319Y-95361160D01*
X64519685Y-95230401D01*
X64520229Y-95226356D01*
X64698871Y-94047512D01*
X64699549Y-94043495D01*
X64917491Y-92871228D01*
X64918291Y-92867291D01*
X65098684Y-92050000D01*
X70669815Y-92050000D01*
X70688503Y-92227805D01*
X70688504Y-92227807D01*
X70743747Y-92397829D01*
X70743750Y-92397835D01*
X70833141Y-92552665D01*
X70842105Y-92562620D01*
X70952764Y-92685521D01*
X70952767Y-92685523D01*
X70952770Y-92685526D01*
X71097407Y-92790612D01*
X71260733Y-92863329D01*
X71435609Y-92900500D01*
X71435610Y-92900500D01*
X71614389Y-92900500D01*
X71614391Y-92900500D01*
X71789267Y-92863329D01*
X71952593Y-92790612D01*
X72097230Y-92685526D01*
X72097238Y-92685517D01*
X72100755Y-92682351D01*
X72163747Y-92652121D01*
X72183729Y-92650500D01*
X72841271Y-92650500D01*
X72908310Y-92670185D01*
X72924245Y-92682351D01*
X72927766Y-92685521D01*
X72927770Y-92685526D01*
X73072407Y-92790612D01*
X73235733Y-92863329D01*
X73410609Y-92900500D01*
X73410610Y-92900500D01*
X73589389Y-92900500D01*
X73589391Y-92900500D01*
X73764267Y-92863329D01*
X73927593Y-92790612D01*
X74072230Y-92685526D01*
X74129290Y-92622155D01*
X76250000Y-92622155D01*
X76250000Y-93270000D01*
X77166988Y-93270000D01*
X77134075Y-93327007D01*
X77100000Y-93454174D01*
X77100000Y-93585826D01*
X77134075Y-93712993D01*
X77166988Y-93770000D01*
X76250000Y-93770000D01*
X76250000Y-94417844D01*
X76256401Y-94477372D01*
X76256403Y-94477379D01*
X76306645Y-94612086D01*
X76306649Y-94612093D01*
X76392809Y-94727187D01*
X76392812Y-94727190D01*
X76507906Y-94813350D01*
X76507913Y-94813354D01*
X76642620Y-94863596D01*
X76642627Y-94863598D01*
X76702155Y-94869999D01*
X76702172Y-94870000D01*
X76805655Y-94870000D01*
X76872694Y-94889685D01*
X76918449Y-94942489D01*
X76928393Y-95011647D01*
X76899368Y-95075203D01*
X76877542Y-95093796D01*
X76878014Y-95094420D01*
X76873437Y-95097876D01*
X76709020Y-95247761D01*
X76574943Y-95425308D01*
X76574938Y-95425316D01*
X76475775Y-95624461D01*
X76475769Y-95624476D01*
X76414885Y-95838462D01*
X76414884Y-95838464D01*
X76394357Y-96059999D01*
X76394357Y-96060000D01*
X76414884Y-96281535D01*
X76414885Y-96281537D01*
X76475769Y-96495523D01*
X76475775Y-96495538D01*
X76574938Y-96694683D01*
X76574943Y-96694691D01*
X76709020Y-96872238D01*
X76873437Y-97022123D01*
X76873439Y-97022125D01*
X77062595Y-97139245D01*
X77062596Y-97139245D01*
X77062599Y-97139247D01*
X77256524Y-97214374D01*
X77311924Y-97256946D01*
X77335515Y-97322713D01*
X77319804Y-97390793D01*
X77269780Y-97439572D01*
X77256533Y-97445622D01*
X77108488Y-97502975D01*
X77062601Y-97520752D01*
X77062595Y-97520754D01*
X76873439Y-97637874D01*
X76873437Y-97637876D01*
X76709020Y-97787761D01*
X76574943Y-97965308D01*
X76574938Y-97965316D01*
X76475775Y-98164461D01*
X76475769Y-98164476D01*
X76414885Y-98378462D01*
X76414884Y-98378464D01*
X76394357Y-98599999D01*
X76394357Y-98600000D01*
X76414884Y-98821535D01*
X76414885Y-98821537D01*
X76475769Y-99035523D01*
X76475775Y-99035538D01*
X76574938Y-99234683D01*
X76574943Y-99234691D01*
X76709020Y-99412238D01*
X76873437Y-99562123D01*
X76873439Y-99562125D01*
X77062595Y-99679245D01*
X77062596Y-99679245D01*
X77062599Y-99679247D01*
X77270060Y-99759618D01*
X77488757Y-99800500D01*
X77488759Y-99800500D01*
X77711241Y-99800500D01*
X77711243Y-99800500D01*
X77929940Y-99759618D01*
X78137401Y-99679247D01*
X78326562Y-99562124D01*
X78490981Y-99412236D01*
X78625058Y-99234689D01*
X78724229Y-99035528D01*
X78785115Y-98821536D01*
X78802059Y-98638677D01*
X78817449Y-98599918D01*
X79033521Y-98599918D01*
X79047222Y-98626311D01*
X79048625Y-98635173D01*
X79064859Y-98768868D01*
X79064860Y-98768874D01*
X79125182Y-98927931D01*
X79187475Y-99018177D01*
X79221817Y-99067929D01*
X79293782Y-99131684D01*
X79349150Y-99180736D01*
X79451953Y-99234691D01*
X79499775Y-99259790D01*
X79664944Y-99300500D01*
X79835056Y-99300500D01*
X80000225Y-99259790D01*
X80150852Y-99180734D01*
X80206218Y-99131683D01*
X80269451Y-99101963D01*
X80288445Y-99100500D01*
X82861555Y-99100500D01*
X82928594Y-99120185D01*
X82943779Y-99131682D01*
X82999148Y-99180734D01*
X83149775Y-99259790D01*
X83314944Y-99300500D01*
X83485056Y-99300500D01*
X83650225Y-99259790D01*
X83729692Y-99218081D01*
X83800849Y-99180736D01*
X83800850Y-99180734D01*
X83800852Y-99180734D01*
X83928183Y-99067929D01*
X84024818Y-98927930D01*
X84085140Y-98768872D01*
X84105645Y-98600000D01*
X84085140Y-98431128D01*
X84024818Y-98272070D01*
X84021236Y-98266881D01*
X83981341Y-98209083D01*
X83928183Y-98132071D01*
X83833316Y-98048026D01*
X83800849Y-98019263D01*
X83650226Y-97940210D01*
X83485056Y-97899500D01*
X83314944Y-97899500D01*
X83149773Y-97940210D01*
X82999150Y-98019264D01*
X82943782Y-98068316D01*
X82880549Y-98098037D01*
X82861555Y-98099500D01*
X80288445Y-98099500D01*
X80221406Y-98079815D01*
X80206218Y-98068316D01*
X80156088Y-98023905D01*
X80150852Y-98019266D01*
X80150850Y-98019265D01*
X80150849Y-98019264D01*
X80000226Y-97940210D01*
X79835056Y-97899500D01*
X79664944Y-97899500D01*
X79499773Y-97940210D01*
X79349150Y-98019263D01*
X79221816Y-98132072D01*
X79125182Y-98272068D01*
X79064860Y-98431125D01*
X79064859Y-98431130D01*
X79048625Y-98564827D01*
X79033521Y-98599918D01*
X78817449Y-98599918D01*
X78817503Y-98599783D01*
X78803208Y-98570217D01*
X78802060Y-98561342D01*
X78785115Y-98378464D01*
X78724229Y-98164472D01*
X78708096Y-98132072D01*
X78625061Y-97965316D01*
X78625056Y-97965308D01*
X78490979Y-97787761D01*
X78326562Y-97637876D01*
X78326560Y-97637874D01*
X78137404Y-97520754D01*
X78137395Y-97520750D01*
X78043956Y-97484552D01*
X77943475Y-97445625D01*
X77888075Y-97403054D01*
X77864484Y-97337288D01*
X77880195Y-97269207D01*
X77930219Y-97220428D01*
X77943466Y-97214377D01*
X78137401Y-97139247D01*
X78326562Y-97022124D01*
X78490981Y-96872236D01*
X78625058Y-96694689D01*
X78724229Y-96495528D01*
X78785115Y-96281536D01*
X78805643Y-96060000D01*
X78803199Y-96033630D01*
X78785115Y-95838464D01*
X78785114Y-95838462D01*
X78780043Y-95820640D01*
X78724229Y-95624472D01*
X78700077Y-95575968D01*
X78625061Y-95425316D01*
X78625056Y-95425308D01*
X78490979Y-95247761D01*
X78326562Y-95097876D01*
X78321986Y-95094420D01*
X78323171Y-95092850D01*
X78282429Y-95047393D01*
X78271329Y-94978411D01*
X78299285Y-94914378D01*
X78357423Y-94875625D01*
X78394345Y-94870000D01*
X78497828Y-94870000D01*
X78497844Y-94869999D01*
X78557372Y-94863598D01*
X78557379Y-94863596D01*
X78692086Y-94813354D01*
X78692093Y-94813350D01*
X78807187Y-94727190D01*
X78807190Y-94727187D01*
X78883688Y-94625000D01*
X95044815Y-94625000D01*
X95063503Y-94802805D01*
X95063504Y-94802807D01*
X95118747Y-94972829D01*
X95118750Y-94972835D01*
X95208141Y-95127665D01*
X95238760Y-95161671D01*
X95327764Y-95260521D01*
X95327767Y-95260523D01*
X95327770Y-95260526D01*
X95472407Y-95365612D01*
X95635733Y-95438329D01*
X95810609Y-95475500D01*
X95810610Y-95475500D01*
X95989389Y-95475500D01*
X95989391Y-95475500D01*
X96164267Y-95438329D01*
X96327593Y-95365612D01*
X96472230Y-95260526D01*
X96492216Y-95238330D01*
X96504411Y-95224785D01*
X96591859Y-95127665D01*
X96681250Y-94972835D01*
X96736497Y-94802803D01*
X96751294Y-94662018D01*
X96777877Y-94597406D01*
X96786924Y-94587311D01*
X97487417Y-93886819D01*
X97548740Y-93853334D01*
X97575098Y-93850500D01*
X99850500Y-93850500D01*
X99917539Y-93870185D01*
X99963294Y-93922989D01*
X99974500Y-93974500D01*
X99974500Y-95238330D01*
X99974499Y-95238348D01*
X99974499Y-95404054D01*
X99974498Y-95404054D01*
X99978375Y-95418524D01*
X100015423Y-95556785D01*
X100015424Y-95556787D01*
X100015423Y-95556787D01*
X100026497Y-95575966D01*
X100026498Y-95575968D01*
X100094475Y-95693709D01*
X100094481Y-95693717D01*
X100213349Y-95812585D01*
X100213355Y-95812590D01*
X100283496Y-95882731D01*
X100316981Y-95944054D01*
X100319815Y-95970412D01*
X100319815Y-95974997D01*
X100338503Y-96152805D01*
X100338504Y-96152807D01*
X100393747Y-96322829D01*
X100393750Y-96322835D01*
X100483141Y-96477665D01*
X100505296Y-96502270D01*
X100602764Y-96610521D01*
X100602767Y-96610523D01*
X100602770Y-96610526D01*
X100747407Y-96715612D01*
X100910733Y-96788329D01*
X101085609Y-96825500D01*
X101085610Y-96825500D01*
X101264389Y-96825500D01*
X101264391Y-96825500D01*
X101439267Y-96788329D01*
X101602593Y-96715612D01*
X101747230Y-96610526D01*
X101866859Y-96477665D01*
X101956250Y-96322835D01*
X102011497Y-96152803D01*
X102030185Y-95975000D01*
X102011497Y-95797197D01*
X101956250Y-95627165D01*
X101866859Y-95472335D01*
X101815178Y-95414938D01*
X101747235Y-95339478D01*
X101747232Y-95339476D01*
X101747231Y-95339475D01*
X101747230Y-95339474D01*
X101602593Y-95234388D01*
X101439267Y-95161671D01*
X101439265Y-95161670D01*
X101439264Y-95161670D01*
X101273719Y-95126482D01*
X101212237Y-95093289D01*
X101178461Y-95032126D01*
X101175500Y-95005192D01*
X101175500Y-94150000D01*
X127753360Y-94150000D01*
X128765261Y-94150000D01*
X128740000Y-94309493D01*
X128740000Y-94490507D01*
X128765261Y-94650000D01*
X127753361Y-94650000D01*
X127775786Y-94820340D01*
X127848733Y-95092582D01*
X127956584Y-95352957D01*
X127956589Y-95352968D01*
X128097500Y-95597031D01*
X128097511Y-95597047D01*
X128269074Y-95820633D01*
X128269080Y-95820640D01*
X128468359Y-96019919D01*
X128468366Y-96019925D01*
X128691952Y-96191488D01*
X128691968Y-96191499D01*
X128936031Y-96332410D01*
X128936042Y-96332415D01*
X129196417Y-96440266D01*
X129468659Y-96513213D01*
X129738999Y-96548804D01*
X129739000Y-96548804D01*
X129739000Y-95540418D01*
X129799493Y-95550000D01*
X130178507Y-95550000D01*
X130239000Y-95540418D01*
X130239000Y-96548804D01*
X130509340Y-96513213D01*
X130781582Y-96440266D01*
X131041957Y-96332415D01*
X131041968Y-96332410D01*
X131286031Y-96191499D01*
X131286047Y-96191488D01*
X131509633Y-96019925D01*
X131509640Y-96019919D01*
X131708919Y-95820640D01*
X131708925Y-95820633D01*
X131880488Y-95597047D01*
X131880499Y-95597031D01*
X132021410Y-95352968D01*
X132021415Y-95352957D01*
X132129266Y-95092582D01*
X132202213Y-94820340D01*
X132224639Y-94650000D01*
X131212739Y-94650000D01*
X131238000Y-94490507D01*
X131238000Y-94309493D01*
X131212739Y-94150000D01*
X132224639Y-94150000D01*
X132202213Y-93979659D01*
X132129266Y-93707417D01*
X132021415Y-93447042D01*
X132021410Y-93447031D01*
X131880499Y-93202968D01*
X131880488Y-93202952D01*
X131708925Y-92979366D01*
X131708919Y-92979359D01*
X131509640Y-92780080D01*
X131509633Y-92780074D01*
X131286047Y-92608511D01*
X131286031Y-92608500D01*
X131041968Y-92467589D01*
X131041957Y-92467584D01*
X130781582Y-92359733D01*
X130509340Y-92286786D01*
X130239000Y-92251194D01*
X130239000Y-93259581D01*
X130178507Y-93250000D01*
X129799493Y-93250000D01*
X129739000Y-93259581D01*
X129739000Y-92251194D01*
X129468659Y-92286786D01*
X129196417Y-92359733D01*
X128936042Y-92467584D01*
X128936031Y-92467589D01*
X128691968Y-92608500D01*
X128691952Y-92608511D01*
X128468366Y-92780074D01*
X128468359Y-92780080D01*
X128269080Y-92979359D01*
X128269074Y-92979366D01*
X128097511Y-93202952D01*
X128097500Y-93202968D01*
X127956589Y-93447031D01*
X127956584Y-93447042D01*
X127848733Y-93707417D01*
X127775786Y-93979659D01*
X127753360Y-94150000D01*
X101175500Y-94150000D01*
X101175500Y-91641520D01*
X101195185Y-91574481D01*
X101247989Y-91528726D01*
X101317147Y-91518782D01*
X101364776Y-91536093D01*
X101401992Y-91559136D01*
X101594246Y-91633615D01*
X101796912Y-91671500D01*
X101796914Y-91671500D01*
X102003086Y-91671500D01*
X102003088Y-91671500D01*
X102205754Y-91633615D01*
X102398008Y-91559136D01*
X102573303Y-91450598D01*
X102725670Y-91311697D01*
X102849919Y-91147165D01*
X102941820Y-90962603D01*
X102998242Y-90764297D01*
X103017266Y-90559000D01*
X103322734Y-90559000D01*
X103341757Y-90764294D01*
X103398180Y-90962605D01*
X103490081Y-91147165D01*
X103614331Y-91311699D01*
X103766696Y-91450597D01*
X103766698Y-91450599D01*
X103866961Y-91512679D01*
X103941992Y-91559136D01*
X104134246Y-91633615D01*
X104336912Y-91671500D01*
X104336914Y-91671500D01*
X104543086Y-91671500D01*
X104543088Y-91671500D01*
X104745754Y-91633615D01*
X104938008Y-91559136D01*
X105113303Y-91450598D01*
X105265670Y-91311697D01*
X105389919Y-91147165D01*
X105481820Y-90962603D01*
X105538242Y-90764297D01*
X105557266Y-90559000D01*
X105862734Y-90559000D01*
X105881757Y-90764294D01*
X105938180Y-90962605D01*
X106030081Y-91147165D01*
X106154331Y-91311699D01*
X106306696Y-91450597D01*
X106306698Y-91450599D01*
X106406961Y-91512679D01*
X106481992Y-91559136D01*
X106674246Y-91633615D01*
X106876912Y-91671500D01*
X106876914Y-91671500D01*
X107083086Y-91671500D01*
X107083088Y-91671500D01*
X107285754Y-91633615D01*
X107478008Y-91559136D01*
X107653303Y-91450598D01*
X107805670Y-91311697D01*
X107929919Y-91147165D01*
X108021820Y-90962603D01*
X108078242Y-90764297D01*
X108097266Y-90559000D01*
X108402734Y-90559000D01*
X108421757Y-90764294D01*
X108478180Y-90962605D01*
X108570081Y-91147165D01*
X108694331Y-91311699D01*
X108846696Y-91450597D01*
X108846698Y-91450599D01*
X108946961Y-91512679D01*
X109021992Y-91559136D01*
X109214246Y-91633615D01*
X109416912Y-91671500D01*
X109416914Y-91671500D01*
X109623086Y-91671500D01*
X109623088Y-91671500D01*
X109825754Y-91633615D01*
X110018008Y-91559136D01*
X110193303Y-91450598D01*
X110345670Y-91311697D01*
X110469919Y-91147165D01*
X110561820Y-90962603D01*
X110618242Y-90764297D01*
X110637266Y-90559000D01*
X110618242Y-90353703D01*
X110561820Y-90155397D01*
X110469919Y-89970835D01*
X110345670Y-89806303D01*
X110345668Y-89806300D01*
X110193303Y-89667402D01*
X110193301Y-89667400D01*
X110018013Y-89558867D01*
X110018006Y-89558863D01*
X109840284Y-89490014D01*
X109825754Y-89484385D01*
X109623088Y-89446500D01*
X109416912Y-89446500D01*
X109214246Y-89484385D01*
X109214243Y-89484385D01*
X109214243Y-89484386D01*
X109021993Y-89558863D01*
X109021986Y-89558867D01*
X108846698Y-89667400D01*
X108846696Y-89667402D01*
X108694331Y-89806300D01*
X108570081Y-89970834D01*
X108478180Y-90155394D01*
X108421757Y-90353705D01*
X108402734Y-90559000D01*
X108097266Y-90559000D01*
X108078242Y-90353703D01*
X108021820Y-90155397D01*
X107929919Y-89970835D01*
X107805670Y-89806303D01*
X107805668Y-89806300D01*
X107653303Y-89667402D01*
X107653301Y-89667400D01*
X107478013Y-89558867D01*
X107478006Y-89558863D01*
X107300284Y-89490014D01*
X107285754Y-89484385D01*
X107083088Y-89446500D01*
X106876912Y-89446500D01*
X106674246Y-89484385D01*
X106674243Y-89484385D01*
X106674243Y-89484386D01*
X106481993Y-89558863D01*
X106481986Y-89558867D01*
X106306698Y-89667400D01*
X106306696Y-89667402D01*
X106154331Y-89806300D01*
X106030081Y-89970834D01*
X105938180Y-90155394D01*
X105881757Y-90353705D01*
X105862734Y-90559000D01*
X105557266Y-90559000D01*
X105538242Y-90353703D01*
X105481820Y-90155397D01*
X105389919Y-89970835D01*
X105265670Y-89806303D01*
X105265668Y-89806300D01*
X105113303Y-89667402D01*
X105113301Y-89667400D01*
X104938013Y-89558867D01*
X104938006Y-89558863D01*
X104760284Y-89490014D01*
X104745754Y-89484385D01*
X104543088Y-89446500D01*
X104336912Y-89446500D01*
X104134246Y-89484385D01*
X104134243Y-89484385D01*
X104134243Y-89484386D01*
X103941993Y-89558863D01*
X103941986Y-89558867D01*
X103766698Y-89667400D01*
X103766696Y-89667402D01*
X103614331Y-89806300D01*
X103490081Y-89970834D01*
X103398180Y-90155394D01*
X103341757Y-90353705D01*
X103322734Y-90559000D01*
X103017266Y-90559000D01*
X102998242Y-90353703D01*
X102941820Y-90155397D01*
X102849919Y-89970835D01*
X102725670Y-89806303D01*
X102725668Y-89806300D01*
X102573303Y-89667402D01*
X102573301Y-89667400D01*
X102398013Y-89558867D01*
X102398006Y-89558863D01*
X102220284Y-89490014D01*
X102205754Y-89484385D01*
X102003088Y-89446500D01*
X101796912Y-89446500D01*
X101594246Y-89484385D01*
X101594243Y-89484385D01*
X101594243Y-89484386D01*
X101401993Y-89558863D01*
X101401986Y-89558867D01*
X101364777Y-89581906D01*
X101297416Y-89600461D01*
X101230717Y-89579653D01*
X101185856Y-89526088D01*
X101175500Y-89476479D01*
X101175500Y-87951728D01*
X101195185Y-87884689D01*
X101207350Y-87868756D01*
X101266859Y-87802665D01*
X101356250Y-87647835D01*
X101411497Y-87477803D01*
X101430185Y-87300000D01*
X101411497Y-87122197D01*
X101356250Y-86952165D01*
X101266859Y-86797335D01*
X101193639Y-86716016D01*
X101147235Y-86664478D01*
X101147232Y-86664476D01*
X101147231Y-86664475D01*
X101147230Y-86664474D01*
X101002593Y-86559388D01*
X100839267Y-86486671D01*
X100839265Y-86486670D01*
X100711594Y-86459533D01*
X100664391Y-86449500D01*
X100485609Y-86449500D01*
X100454954Y-86456015D01*
X100310733Y-86486670D01*
X100310728Y-86486672D01*
X100147408Y-86559387D01*
X100002768Y-86664475D01*
X99883140Y-86797336D01*
X99793750Y-86952164D01*
X99793747Y-86952170D01*
X99738504Y-87122192D01*
X99738503Y-87122194D01*
X99719815Y-87300000D01*
X99738503Y-87477805D01*
X99738504Y-87477807D01*
X99793747Y-87647829D01*
X99793750Y-87647835D01*
X99883141Y-87802665D01*
X99942650Y-87868756D01*
X99972880Y-87931747D01*
X99974500Y-87951728D01*
X99974500Y-89422975D01*
X99954815Y-89490014D01*
X99902011Y-89535769D01*
X99832853Y-89545713D01*
X99805707Y-89538602D01*
X99665758Y-89484386D01*
X99665755Y-89484385D01*
X99665754Y-89484385D01*
X99463088Y-89446500D01*
X99256912Y-89446500D01*
X99054246Y-89484385D01*
X99054243Y-89484385D01*
X99054243Y-89484386D01*
X98861993Y-89558863D01*
X98861986Y-89558867D01*
X98686698Y-89667400D01*
X98686696Y-89667402D01*
X98534331Y-89806300D01*
X98410081Y-89970834D01*
X98318180Y-90155394D01*
X98261757Y-90353705D01*
X98242734Y-90559000D01*
X98261757Y-90764294D01*
X98318180Y-90962605D01*
X98410081Y-91147165D01*
X98534331Y-91311699D01*
X98686696Y-91450597D01*
X98686698Y-91450599D01*
X98786961Y-91512679D01*
X98861992Y-91559136D01*
X99054246Y-91633615D01*
X99256912Y-91671500D01*
X99256914Y-91671500D01*
X99463086Y-91671500D01*
X99463088Y-91671500D01*
X99665754Y-91633615D01*
X99739400Y-91605084D01*
X99805706Y-91579398D01*
X99875329Y-91573535D01*
X99937069Y-91606245D01*
X99971324Y-91667141D01*
X99974500Y-91695024D01*
X99974500Y-92525500D01*
X99954815Y-92592539D01*
X99902011Y-92638294D01*
X99850500Y-92649500D01*
X97361670Y-92649500D01*
X97361654Y-92649499D01*
X97354058Y-92649499D01*
X97195943Y-92649499D01*
X97119579Y-92669961D01*
X97043214Y-92690423D01*
X97043209Y-92690426D01*
X96906290Y-92769475D01*
X96906282Y-92769481D01*
X95937584Y-93738181D01*
X95876261Y-93771666D01*
X95849903Y-93774500D01*
X95810609Y-93774500D01*
X95779954Y-93781015D01*
X95635733Y-93811670D01*
X95635728Y-93811672D01*
X95472408Y-93884387D01*
X95327768Y-93989475D01*
X95208140Y-94122336D01*
X95118750Y-94277164D01*
X95118747Y-94277170D01*
X95063504Y-94447192D01*
X95063503Y-94447194D01*
X95044815Y-94625000D01*
X78883688Y-94625000D01*
X78893350Y-94612093D01*
X78893354Y-94612086D01*
X78943596Y-94477379D01*
X78943598Y-94477372D01*
X78949999Y-94417844D01*
X78950000Y-94417827D01*
X78950000Y-93770000D01*
X78033012Y-93770000D01*
X78065925Y-93712993D01*
X78100000Y-93585826D01*
X78100000Y-93454174D01*
X78065925Y-93327007D01*
X78033012Y-93270000D01*
X78950000Y-93270000D01*
X78950000Y-92800000D01*
X83294355Y-92800000D01*
X83314859Y-92968869D01*
X83314860Y-92968874D01*
X83375182Y-93127931D01*
X83404871Y-93170942D01*
X83471817Y-93267929D01*
X83538503Y-93327007D01*
X83599150Y-93380736D01*
X83725465Y-93447031D01*
X83749775Y-93459790D01*
X83914944Y-93500500D01*
X84085056Y-93500500D01*
X84250225Y-93459790D01*
X84400852Y-93380734D01*
X84456218Y-93331683D01*
X84519451Y-93301963D01*
X84538445Y-93300500D01*
X86661555Y-93300500D01*
X86728594Y-93320185D01*
X86743779Y-93331682D01*
X86799148Y-93380734D01*
X86949775Y-93459790D01*
X87114944Y-93500500D01*
X87285056Y-93500500D01*
X87450225Y-93459790D01*
X87532836Y-93416432D01*
X87600849Y-93380736D01*
X87600850Y-93380734D01*
X87600852Y-93380734D01*
X87728183Y-93267929D01*
X87824818Y-93127930D01*
X87885140Y-92968872D01*
X87905645Y-92800000D01*
X87885140Y-92631128D01*
X87881743Y-92622172D01*
X87855383Y-92552665D01*
X87824818Y-92472070D01*
X87728183Y-92332071D01*
X87610491Y-92227805D01*
X87600849Y-92219263D01*
X87450226Y-92140210D01*
X87285056Y-92099500D01*
X87114944Y-92099500D01*
X86949773Y-92140210D01*
X86799150Y-92219264D01*
X86743782Y-92268316D01*
X86680549Y-92298037D01*
X86661555Y-92299500D01*
X84538445Y-92299500D01*
X84471406Y-92279815D01*
X84456218Y-92268316D01*
X84436891Y-92251194D01*
X84400852Y-92219266D01*
X84400850Y-92219265D01*
X84400849Y-92219264D01*
X84250226Y-92140210D01*
X84085056Y-92099500D01*
X83914944Y-92099500D01*
X83749773Y-92140210D01*
X83599150Y-92219263D01*
X83471816Y-92332072D01*
X83375182Y-92472068D01*
X83314860Y-92631125D01*
X83314859Y-92631130D01*
X83294355Y-92800000D01*
X78950000Y-92800000D01*
X78950000Y-92622172D01*
X78949999Y-92622155D01*
X78943598Y-92562627D01*
X78943596Y-92562620D01*
X78893354Y-92427913D01*
X78893350Y-92427906D01*
X78807190Y-92312812D01*
X78807187Y-92312809D01*
X78692093Y-92226649D01*
X78692086Y-92226645D01*
X78557379Y-92176403D01*
X78557372Y-92176401D01*
X78497844Y-92170000D01*
X77850000Y-92170000D01*
X77850000Y-93086988D01*
X77792993Y-93054075D01*
X77665826Y-93020000D01*
X77534174Y-93020000D01*
X77407007Y-93054075D01*
X77350000Y-93086988D01*
X77350000Y-92170000D01*
X76702155Y-92170000D01*
X76642627Y-92176401D01*
X76642620Y-92176403D01*
X76507913Y-92226645D01*
X76507906Y-92226649D01*
X76392812Y-92312809D01*
X76392809Y-92312812D01*
X76306649Y-92427906D01*
X76306645Y-92427913D01*
X76256403Y-92562620D01*
X76256401Y-92562627D01*
X76250000Y-92622155D01*
X74129290Y-92622155D01*
X74191859Y-92552665D01*
X74281250Y-92397835D01*
X74336497Y-92227803D01*
X74355185Y-92050000D01*
X74336497Y-91872197D01*
X74281250Y-91702165D01*
X74191859Y-91547335D01*
X74137539Y-91487007D01*
X74072235Y-91414478D01*
X74072232Y-91414476D01*
X74072231Y-91414475D01*
X74072230Y-91414474D01*
X73927593Y-91309388D01*
X73764267Y-91236671D01*
X73764265Y-91236670D01*
X73636594Y-91209533D01*
X73589391Y-91199500D01*
X73410609Y-91199500D01*
X73379954Y-91206015D01*
X73235733Y-91236670D01*
X73235728Y-91236672D01*
X73072408Y-91309387D01*
X72927772Y-91414472D01*
X72924245Y-91417649D01*
X72861253Y-91447879D01*
X72841271Y-91449500D01*
X72183729Y-91449500D01*
X72116690Y-91429815D01*
X72100755Y-91417649D01*
X72097233Y-91414477D01*
X72097230Y-91414474D01*
X71952593Y-91309388D01*
X71789267Y-91236671D01*
X71789265Y-91236670D01*
X71661594Y-91209533D01*
X71614391Y-91199500D01*
X71435609Y-91199500D01*
X71404954Y-91206015D01*
X71260733Y-91236670D01*
X71260728Y-91236672D01*
X71097408Y-91309387D01*
X70952768Y-91414475D01*
X70833140Y-91547336D01*
X70743750Y-91702164D01*
X70743747Y-91702170D01*
X70688504Y-91872192D01*
X70688503Y-91872194D01*
X70669815Y-92050000D01*
X65098684Y-92050000D01*
X65175290Y-91702929D01*
X65176232Y-91698976D01*
X65468116Y-90559000D01*
X90622734Y-90559000D01*
X90641757Y-90764294D01*
X90698180Y-90962605D01*
X90790081Y-91147165D01*
X90914331Y-91311699D01*
X91066696Y-91450597D01*
X91066698Y-91450599D01*
X91166961Y-91512679D01*
X91241992Y-91559136D01*
X91434246Y-91633615D01*
X91636912Y-91671500D01*
X91636914Y-91671500D01*
X91843086Y-91671500D01*
X91843088Y-91671500D01*
X92045754Y-91633615D01*
X92238008Y-91559136D01*
X92413303Y-91450598D01*
X92565670Y-91311697D01*
X92689919Y-91147165D01*
X92781820Y-90962603D01*
X92838242Y-90764297D01*
X92857266Y-90559000D01*
X93162734Y-90559000D01*
X93181757Y-90764294D01*
X93238180Y-90962605D01*
X93330081Y-91147165D01*
X93454331Y-91311699D01*
X93606696Y-91450597D01*
X93606698Y-91450599D01*
X93706961Y-91512679D01*
X93781992Y-91559136D01*
X93974246Y-91633615D01*
X94176912Y-91671500D01*
X94176914Y-91671500D01*
X94383086Y-91671500D01*
X94383088Y-91671500D01*
X94585754Y-91633615D01*
X94778008Y-91559136D01*
X94953303Y-91450598D01*
X95105670Y-91311697D01*
X95229919Y-91147165D01*
X95321820Y-90962603D01*
X95378242Y-90764297D01*
X95397266Y-90559000D01*
X95702734Y-90559000D01*
X95721757Y-90764294D01*
X95778180Y-90962605D01*
X95870081Y-91147165D01*
X95994331Y-91311699D01*
X96146696Y-91450597D01*
X96146698Y-91450599D01*
X96246961Y-91512679D01*
X96321992Y-91559136D01*
X96514246Y-91633615D01*
X96716912Y-91671500D01*
X96716914Y-91671500D01*
X96923086Y-91671500D01*
X96923088Y-91671500D01*
X97125754Y-91633615D01*
X97318008Y-91559136D01*
X97493303Y-91450598D01*
X97645670Y-91311697D01*
X97769919Y-91147165D01*
X97861820Y-90962603D01*
X97918242Y-90764297D01*
X97937266Y-90559000D01*
X97918242Y-90353703D01*
X97861820Y-90155397D01*
X97769919Y-89970835D01*
X97645670Y-89806303D01*
X97645668Y-89806300D01*
X97493303Y-89667402D01*
X97493301Y-89667400D01*
X97318013Y-89558867D01*
X97318006Y-89558863D01*
X97140284Y-89490014D01*
X97125754Y-89484385D01*
X96923088Y-89446500D01*
X96716912Y-89446500D01*
X96514246Y-89484385D01*
X96514243Y-89484385D01*
X96514243Y-89484386D01*
X96321993Y-89558863D01*
X96321986Y-89558867D01*
X96146698Y-89667400D01*
X96146696Y-89667402D01*
X95994331Y-89806300D01*
X95870081Y-89970834D01*
X95778180Y-90155394D01*
X95721757Y-90353705D01*
X95702734Y-90559000D01*
X95397266Y-90559000D01*
X95378242Y-90353703D01*
X95321820Y-90155397D01*
X95229919Y-89970835D01*
X95105670Y-89806303D01*
X95105668Y-89806300D01*
X94953303Y-89667402D01*
X94953301Y-89667400D01*
X94778013Y-89558867D01*
X94778006Y-89558863D01*
X94600284Y-89490014D01*
X94585754Y-89484385D01*
X94383088Y-89446500D01*
X94176912Y-89446500D01*
X93974246Y-89484385D01*
X93974243Y-89484385D01*
X93974243Y-89484386D01*
X93781993Y-89558863D01*
X93781986Y-89558867D01*
X93606698Y-89667400D01*
X93606696Y-89667402D01*
X93454331Y-89806300D01*
X93330081Y-89970834D01*
X93238180Y-90155394D01*
X93181757Y-90353705D01*
X93162734Y-90559000D01*
X92857266Y-90559000D01*
X92838242Y-90353703D01*
X92781820Y-90155397D01*
X92689919Y-89970835D01*
X92565670Y-89806303D01*
X92565668Y-89806300D01*
X92413303Y-89667402D01*
X92413301Y-89667400D01*
X92238013Y-89558867D01*
X92238006Y-89558863D01*
X92060284Y-89490014D01*
X92045754Y-89484385D01*
X91843088Y-89446500D01*
X91636912Y-89446500D01*
X91434246Y-89484385D01*
X91434243Y-89484385D01*
X91434243Y-89484386D01*
X91241993Y-89558863D01*
X91241986Y-89558867D01*
X91066698Y-89667400D01*
X91066696Y-89667402D01*
X90914331Y-89806300D01*
X90790081Y-89970834D01*
X90698180Y-90155394D01*
X90641757Y-90353705D01*
X90622734Y-90559000D01*
X65468116Y-90559000D01*
X65471985Y-90543891D01*
X65473053Y-90539994D01*
X65807245Y-89395409D01*
X65808438Y-89391562D01*
X66180674Y-88258835D01*
X66182027Y-88254939D01*
X66591899Y-87135298D01*
X66593359Y-87131505D01*
X67040425Y-86026158D01*
X67042038Y-86022357D01*
X67049022Y-86006624D01*
X67525773Y-84932606D01*
X67527510Y-84928865D01*
X67601009Y-84777170D01*
X68047376Y-83855911D01*
X68049235Y-83852233D01*
X68604688Y-82797202D01*
X68606620Y-82793677D01*
X68830995Y-82400000D01*
X87869815Y-82400000D01*
X87888503Y-82577805D01*
X87888504Y-82577807D01*
X87943747Y-82747829D01*
X87943750Y-82747835D01*
X88033141Y-82902665D01*
X88074812Y-82948946D01*
X88152764Y-83035521D01*
X88152767Y-83035523D01*
X88152770Y-83035526D01*
X88297407Y-83140612D01*
X88460733Y-83213329D01*
X88635609Y-83250500D01*
X88674903Y-83250500D01*
X88741942Y-83270185D01*
X88762584Y-83286819D01*
X90965139Y-85489374D01*
X90965149Y-85489385D01*
X90969479Y-85493715D01*
X90969480Y-85493716D01*
X91081284Y-85605520D01*
X91157523Y-85649536D01*
X91218215Y-85684577D01*
X91370943Y-85725501D01*
X91370946Y-85725501D01*
X91536653Y-85725501D01*
X91536669Y-85725500D01*
X94591271Y-85725500D01*
X94658310Y-85745185D01*
X94674245Y-85757351D01*
X94677766Y-85760521D01*
X94677770Y-85760526D01*
X94822407Y-85865612D01*
X94985733Y-85938329D01*
X95160609Y-85975500D01*
X95160610Y-85975500D01*
X95339389Y-85975500D01*
X95339391Y-85975500D01*
X95514267Y-85938329D01*
X95677593Y-85865612D01*
X95822230Y-85760526D01*
X95941859Y-85627665D01*
X96031250Y-85472835D01*
X96086497Y-85302803D01*
X96105185Y-85125000D01*
X96086497Y-84947197D01*
X96031250Y-84777165D01*
X95941859Y-84622335D01*
X95853768Y-84524500D01*
X95822235Y-84489478D01*
X95822232Y-84489476D01*
X95822231Y-84489475D01*
X95822230Y-84489474D01*
X95677593Y-84384388D01*
X95514267Y-84311671D01*
X95514265Y-84311670D01*
X95386594Y-84284533D01*
X95339391Y-84274500D01*
X95160609Y-84274500D01*
X95129954Y-84281015D01*
X94985733Y-84311670D01*
X94985728Y-84311672D01*
X94822408Y-84384387D01*
X94677772Y-84489472D01*
X94674245Y-84492649D01*
X94611253Y-84522879D01*
X94591271Y-84524500D01*
X91750097Y-84524500D01*
X91683058Y-84504815D01*
X91662416Y-84488181D01*
X91314235Y-84140000D01*
X114071491Y-84140000D01*
X115059252Y-84140000D01*
X115037482Y-84177708D01*
X115000000Y-84317591D01*
X115000000Y-84462409D01*
X115037482Y-84602292D01*
X115059252Y-84640000D01*
X114071491Y-84640000D01*
X114085765Y-84730128D01*
X114156417Y-84947570D01*
X114260211Y-85151276D01*
X114394597Y-85336242D01*
X114556257Y-85497902D01*
X114741223Y-85632288D01*
X114944929Y-85736082D01*
X115162371Y-85806734D01*
X115300000Y-85828532D01*
X115300000Y-84880747D01*
X115337708Y-84902518D01*
X115477591Y-84940000D01*
X115622409Y-84940000D01*
X115762292Y-84902518D01*
X115800000Y-84880747D01*
X115800000Y-85828531D01*
X115937628Y-85806734D01*
X116155070Y-85736082D01*
X116358776Y-85632288D01*
X116543742Y-85497902D01*
X116705402Y-85336242D01*
X116839788Y-85151276D01*
X116943582Y-84947570D01*
X117014234Y-84730128D01*
X117028509Y-84640000D01*
X116040748Y-84640000D01*
X116062518Y-84602292D01*
X116100000Y-84462409D01*
X116100000Y-84317591D01*
X116062518Y-84177708D01*
X116040748Y-84140000D01*
X117028509Y-84140000D01*
X117014234Y-84049871D01*
X116943582Y-83832429D01*
X116839788Y-83628723D01*
X116705402Y-83443757D01*
X116543742Y-83282097D01*
X116358774Y-83147709D01*
X116344734Y-83140556D01*
X116293937Y-83092582D01*
X116277142Y-83024761D01*
X116299679Y-82958626D01*
X116328139Y-82929755D01*
X116446347Y-82843873D01*
X116591373Y-82698847D01*
X116711925Y-82532921D01*
X116805037Y-82350178D01*
X116846427Y-82222793D01*
X126136647Y-82222793D01*
X126136647Y-82222796D01*
X126157234Y-82458110D01*
X126157236Y-82458120D01*
X126218372Y-82686286D01*
X126218373Y-82686288D01*
X126222016Y-82694101D01*
X126991804Y-82231565D01*
X126991804Y-82288621D01*
X127025879Y-82415788D01*
X127091705Y-82529802D01*
X127184797Y-82622894D01*
X127249324Y-82660149D01*
X126481391Y-83121570D01*
X126620721Y-83260900D01*
X126814225Y-83396395D01*
X127028311Y-83496224D01*
X127028320Y-83496228D01*
X127256477Y-83557362D01*
X127256488Y-83557364D01*
X127491802Y-83577952D01*
X127491805Y-83577952D01*
X127668634Y-83562481D01*
X127737134Y-83576247D01*
X127787317Y-83624863D01*
X127803251Y-83692891D01*
X127779876Y-83758735D01*
X127778400Y-83760730D01*
X127774948Y-83765301D01*
X127774938Y-83765316D01*
X127675775Y-83964461D01*
X127675769Y-83964476D01*
X127614885Y-84178462D01*
X127614884Y-84178464D01*
X127594357Y-84399999D01*
X127594357Y-84400000D01*
X127614884Y-84621535D01*
X127614885Y-84621537D01*
X127675769Y-84835523D01*
X127675775Y-84835538D01*
X127774938Y-85034683D01*
X127774943Y-85034691D01*
X127909020Y-85212238D01*
X128073437Y-85362123D01*
X128073439Y-85362125D01*
X128262595Y-85479245D01*
X128262596Y-85479245D01*
X128262599Y-85479247D01*
X128470060Y-85559618D01*
X128688757Y-85600500D01*
X128688759Y-85600500D01*
X128911242Y-85600500D01*
X128911243Y-85600500D01*
X128947773Y-85593671D01*
X129017288Y-85600701D01*
X129071968Y-85644197D01*
X129094451Y-85710351D01*
X129077599Y-85778158D01*
X129034425Y-85821848D01*
X128732795Y-86003086D01*
X128732792Y-86003088D01*
X128679500Y-86046691D01*
X128615884Y-86144850D01*
X128587585Y-86258355D01*
X128597672Y-86374889D01*
X128597673Y-86374893D01*
X128624248Y-86438393D01*
X128624255Y-86438407D01*
X129534080Y-87952610D01*
X129577680Y-88005898D01*
X129577681Y-88005898D01*
X129577683Y-88005901D01*
X129651302Y-88053613D01*
X129675843Y-88069518D01*
X129789345Y-88097817D01*
X129905884Y-88087729D01*
X129969399Y-88061147D01*
X131483602Y-87151322D01*
X131536890Y-87107722D01*
X131600510Y-87009559D01*
X131628809Y-86896057D01*
X131618721Y-86779518D01*
X131612723Y-86765188D01*
X131592145Y-86716016D01*
X131592138Y-86716002D01*
X130682314Y-85201800D01*
X130638714Y-85148512D01*
X130638712Y-85148510D01*
X130638710Y-85148508D01*
X130540551Y-85084892D01*
X130427049Y-85056593D01*
X130427046Y-85056593D01*
X130310512Y-85066680D01*
X130310508Y-85066681D01*
X130247008Y-85093256D01*
X130246994Y-85093263D01*
X129941907Y-85276578D01*
X129874304Y-85294233D01*
X129807889Y-85272536D01*
X129763746Y-85218377D01*
X129755892Y-85148950D01*
X129779088Y-85095563D01*
X129825058Y-85034689D01*
X129924229Y-84835528D01*
X129985115Y-84621536D01*
X130005643Y-84400000D01*
X130004196Y-84384389D01*
X129985115Y-84178464D01*
X129985114Y-84178462D01*
X129984899Y-84177708D01*
X129924229Y-83964472D01*
X129880913Y-83877482D01*
X129825061Y-83765316D01*
X129825056Y-83765308D01*
X129690979Y-83587761D01*
X129526562Y-83437876D01*
X129526560Y-83437874D01*
X129337404Y-83320754D01*
X129337398Y-83320752D01*
X129129940Y-83240382D01*
X128911243Y-83199500D01*
X128694155Y-83199500D01*
X128627116Y-83179815D01*
X128581361Y-83127011D01*
X128571417Y-83057853D01*
X128592580Y-83004376D01*
X128665404Y-82900373D01*
X128765233Y-82686287D01*
X128765237Y-82686278D01*
X128826371Y-82458121D01*
X128826373Y-82458110D01*
X128846961Y-82222796D01*
X128846961Y-82222793D01*
X128826373Y-81987479D01*
X128826372Y-81987472D01*
X128765233Y-81759300D01*
X128761590Y-81751488D01*
X127991804Y-82214022D01*
X127991804Y-82156969D01*
X127957729Y-82029802D01*
X127891903Y-81915788D01*
X127798811Y-81822696D01*
X127734280Y-81785439D01*
X128502215Y-81324018D01*
X128362886Y-81184689D01*
X128169382Y-81049194D01*
X127955296Y-80949365D01*
X127955287Y-80949361D01*
X127727130Y-80888227D01*
X127727119Y-80888225D01*
X127491806Y-80867638D01*
X127491802Y-80867638D01*
X127256488Y-80888225D01*
X127256481Y-80888226D01*
X127028310Y-80949365D01*
X127020497Y-80953007D01*
X127483032Y-81722795D01*
X127425978Y-81722795D01*
X127298811Y-81756870D01*
X127184797Y-81822696D01*
X127091705Y-81915788D01*
X127054449Y-81980317D01*
X126593027Y-81212382D01*
X126593026Y-81212382D01*
X126453695Y-81351714D01*
X126318204Y-81545215D01*
X126318203Y-81545217D01*
X126218374Y-81759302D01*
X126218370Y-81759311D01*
X126157236Y-81987468D01*
X126157234Y-81987479D01*
X126136647Y-82222793D01*
X116846427Y-82222793D01*
X116868416Y-82155120D01*
X116894969Y-81987472D01*
X116900500Y-81952553D01*
X116900500Y-81747446D01*
X116875035Y-81586671D01*
X116868416Y-81544880D01*
X116805037Y-81349822D01*
X116805035Y-81349819D01*
X116805035Y-81349817D01*
X116771255Y-81283522D01*
X116711925Y-81167079D01*
X116626277Y-81049194D01*
X116591378Y-81001159D01*
X116591374Y-81001154D01*
X116446345Y-80856125D01*
X116446340Y-80856121D01*
X116420460Y-80837318D01*
X116377794Y-80781988D01*
X116371815Y-80712375D01*
X116404421Y-80650580D01*
X116465259Y-80616223D01*
X116493345Y-80613000D01*
X116583261Y-80613000D01*
X116605971Y-80609691D01*
X116651393Y-80603073D01*
X116756483Y-80551698D01*
X116839198Y-80468983D01*
X116890573Y-80363893D01*
X116900500Y-80295760D01*
X116900500Y-78324240D01*
X116890573Y-78256107D01*
X116839198Y-78151017D01*
X116839196Y-78151015D01*
X116839196Y-78151014D01*
X116756485Y-78068303D01*
X116651391Y-78016926D01*
X116583261Y-78007000D01*
X116583260Y-78007000D01*
X114516740Y-78007000D01*
X114516739Y-78007000D01*
X114448608Y-78016926D01*
X114343514Y-78068303D01*
X114260803Y-78151014D01*
X114209426Y-78256108D01*
X114199500Y-78324239D01*
X114199500Y-80295760D01*
X114209426Y-80363891D01*
X114260803Y-80468985D01*
X114343514Y-80551696D01*
X114343515Y-80551696D01*
X114343517Y-80551698D01*
X114448607Y-80603073D01*
X114482673Y-80608036D01*
X114516739Y-80613000D01*
X114516740Y-80613000D01*
X114606655Y-80613000D01*
X114673694Y-80632685D01*
X114719449Y-80685489D01*
X114729393Y-80754647D01*
X114700368Y-80818203D01*
X114679540Y-80837318D01*
X114653659Y-80856121D01*
X114653654Y-80856125D01*
X114508625Y-81001154D01*
X114508621Y-81001159D01*
X114388077Y-81167075D01*
X114294964Y-81349817D01*
X114294348Y-81351714D01*
X114231584Y-81544880D01*
X114231583Y-81544883D01*
X114231583Y-81544885D01*
X114199500Y-81747446D01*
X114199500Y-81952553D01*
X114231583Y-82155114D01*
X114231584Y-82155120D01*
X114253379Y-82222197D01*
X114294964Y-82350182D01*
X114388077Y-82532924D01*
X114508621Y-82698840D01*
X114508625Y-82698845D01*
X114653654Y-82843874D01*
X114653659Y-82843878D01*
X114771856Y-82929753D01*
X114814522Y-82985083D01*
X114820501Y-83054696D01*
X114787896Y-83116491D01*
X114755268Y-83140555D01*
X114741223Y-83147711D01*
X114556257Y-83282097D01*
X114394597Y-83443757D01*
X114260211Y-83628723D01*
X114156417Y-83832429D01*
X114085765Y-84049871D01*
X114071491Y-84140000D01*
X91314235Y-84140000D01*
X89611933Y-82437698D01*
X89578448Y-82376375D01*
X89576295Y-82362992D01*
X89561497Y-82222197D01*
X89506250Y-82052165D01*
X89416859Y-81897335D01*
X89349654Y-81822696D01*
X89297235Y-81764478D01*
X89297232Y-81764476D01*
X89297231Y-81764475D01*
X89297230Y-81764474D01*
X89152593Y-81659388D01*
X88989267Y-81586671D01*
X88989265Y-81586670D01*
X88861594Y-81559533D01*
X88814391Y-81549500D01*
X88635609Y-81549500D01*
X88604954Y-81556015D01*
X88460733Y-81586670D01*
X88460728Y-81586672D01*
X88297408Y-81659387D01*
X88152768Y-81764475D01*
X88033140Y-81897336D01*
X87943750Y-82052164D01*
X87943747Y-82052170D01*
X87888504Y-82222192D01*
X87888503Y-82222194D01*
X87869815Y-82400000D01*
X68830995Y-82400000D01*
X69197053Y-81757733D01*
X69199123Y-81754239D01*
X69823816Y-80738647D01*
X69826001Y-80735224D01*
X70484256Y-79741110D01*
X70486596Y-79737701D01*
X70498286Y-79721267D01*
X71177701Y-78766139D01*
X71180152Y-78762814D01*
X71206559Y-78728201D01*
X71903343Y-77814877D01*
X71905899Y-77811642D01*
X71946341Y-77762153D01*
X72270738Y-77365186D01*
X75099500Y-77365186D01*
X75099500Y-77634813D01*
X75129686Y-77902719D01*
X75129688Y-77902731D01*
X75189684Y-78165594D01*
X75189687Y-78165602D01*
X75278734Y-78420082D01*
X75395714Y-78662994D01*
X75395716Y-78662997D01*
X75539162Y-78891289D01*
X75707266Y-79102085D01*
X75897915Y-79292734D01*
X76108711Y-79460838D01*
X76337003Y-79604284D01*
X76579921Y-79721267D01*
X76771049Y-79788145D01*
X76834397Y-79810312D01*
X76834405Y-79810315D01*
X76834408Y-79810315D01*
X76834409Y-79810316D01*
X77097268Y-79870312D01*
X77365187Y-79900499D01*
X77365188Y-79900500D01*
X77365191Y-79900500D01*
X77634812Y-79900500D01*
X77634812Y-79900499D01*
X77902732Y-79870312D01*
X78165591Y-79810316D01*
X78420079Y-79721267D01*
X78662997Y-79604284D01*
X78669815Y-79600000D01*
X109494355Y-79600000D01*
X109514859Y-79768869D01*
X109514860Y-79768874D01*
X109575182Y-79927931D01*
X109637475Y-80018177D01*
X109671817Y-80067929D01*
X109777505Y-80161560D01*
X109799150Y-80180736D01*
X109949773Y-80259789D01*
X109949775Y-80259790D01*
X110114944Y-80300500D01*
X110285056Y-80300500D01*
X110450225Y-80259790D01*
X110529692Y-80218081D01*
X110600849Y-80180736D01*
X110600850Y-80180734D01*
X110600852Y-80180734D01*
X110728183Y-80067929D01*
X110824818Y-79927930D01*
X110885140Y-79768872D01*
X110900187Y-79644943D01*
X110927809Y-79580767D01*
X110935591Y-79572221D01*
X112470995Y-78036819D01*
X112532318Y-78003334D01*
X112558676Y-78000500D01*
X112861555Y-78000500D01*
X112928594Y-78020185D01*
X112943779Y-78031682D01*
X112999148Y-78080734D01*
X113149775Y-78159790D01*
X113314944Y-78200500D01*
X113485056Y-78200500D01*
X113650225Y-78159790D01*
X113729692Y-78118081D01*
X113800849Y-78080736D01*
X113800850Y-78080734D01*
X113800852Y-78080734D01*
X113928183Y-77967929D01*
X114024818Y-77827930D01*
X114085140Y-77668872D01*
X114105645Y-77500000D01*
X114089275Y-77365186D01*
X120099500Y-77365186D01*
X120099500Y-77634813D01*
X120129686Y-77902719D01*
X120129688Y-77902731D01*
X120189684Y-78165594D01*
X120189687Y-78165602D01*
X120278734Y-78420082D01*
X120395714Y-78662994D01*
X120395716Y-78662997D01*
X120539162Y-78891289D01*
X120707266Y-79102085D01*
X120897915Y-79292734D01*
X121108711Y-79460838D01*
X121337003Y-79604284D01*
X121579921Y-79721267D01*
X121771049Y-79788145D01*
X121834397Y-79810312D01*
X121834405Y-79810315D01*
X121834408Y-79810315D01*
X121834409Y-79810316D01*
X122097268Y-79870312D01*
X122365187Y-79900499D01*
X122365188Y-79900500D01*
X122365191Y-79900500D01*
X122634812Y-79900500D01*
X122634812Y-79900499D01*
X122902732Y-79870312D01*
X123165591Y-79810316D01*
X123420079Y-79721267D01*
X123662997Y-79604284D01*
X123891289Y-79460838D01*
X124102085Y-79292734D01*
X124292734Y-79102085D01*
X124460838Y-78891289D01*
X124604284Y-78662997D01*
X124721267Y-78420079D01*
X124810316Y-78165591D01*
X124870312Y-77902732D01*
X124900500Y-77634809D01*
X124900500Y-77365191D01*
X124870312Y-77097268D01*
X124810316Y-76834409D01*
X124808651Y-76829652D01*
X124785416Y-76763248D01*
X124721267Y-76579921D01*
X124604284Y-76337003D01*
X124460838Y-76108711D01*
X124292734Y-75897915D01*
X124102085Y-75707266D01*
X123891289Y-75539162D01*
X123662997Y-75395716D01*
X123662994Y-75395714D01*
X123420082Y-75278734D01*
X123165602Y-75189687D01*
X123165594Y-75189684D01*
X122968446Y-75144687D01*
X122902732Y-75129688D01*
X122902728Y-75129687D01*
X122902719Y-75129686D01*
X122634813Y-75099500D01*
X122634809Y-75099500D01*
X122365191Y-75099500D01*
X122365186Y-75099500D01*
X122097280Y-75129686D01*
X122097268Y-75129688D01*
X121834405Y-75189684D01*
X121834397Y-75189687D01*
X121579917Y-75278734D01*
X121337005Y-75395714D01*
X121108712Y-75539161D01*
X120897915Y-75707265D01*
X120707265Y-75897915D01*
X120539161Y-76108712D01*
X120395714Y-76337005D01*
X120278734Y-76579917D01*
X120189687Y-76834397D01*
X120189684Y-76834405D01*
X120129688Y-77097268D01*
X120129686Y-77097280D01*
X120099500Y-77365186D01*
X114089275Y-77365186D01*
X114085140Y-77331128D01*
X114080446Y-77318752D01*
X114024817Y-77172068D01*
X113990476Y-77122318D01*
X113928183Y-77032071D01*
X113800852Y-76919266D01*
X113800849Y-76919263D01*
X113650226Y-76840210D01*
X113485056Y-76799500D01*
X113314944Y-76799500D01*
X113149773Y-76840210D01*
X112999150Y-76919264D01*
X112943782Y-76968316D01*
X112880549Y-76998037D01*
X112861555Y-76999500D01*
X112234107Y-76999500D01*
X112112552Y-77032069D01*
X112112553Y-77032070D01*
X112106814Y-77033607D01*
X111992686Y-77099500D01*
X111992683Y-77099502D01*
X110229005Y-78863181D01*
X110167682Y-78896666D01*
X110141324Y-78899500D01*
X110114944Y-78899500D01*
X109949773Y-78940210D01*
X109799150Y-79019263D01*
X109671816Y-79132072D01*
X109575182Y-79272068D01*
X109514860Y-79431125D01*
X109514859Y-79431130D01*
X109494355Y-79600000D01*
X78669815Y-79600000D01*
X78891289Y-79460838D01*
X79102085Y-79292734D01*
X79292734Y-79102085D01*
X79460838Y-78891289D01*
X79604284Y-78662997D01*
X79721267Y-78420079D01*
X79810316Y-78165591D01*
X79870312Y-77902732D01*
X79900500Y-77634809D01*
X79900500Y-77554165D01*
X82672227Y-77554165D01*
X82672227Y-77554166D01*
X82692822Y-77789569D01*
X82692824Y-77789579D01*
X82753980Y-78017821D01*
X82753982Y-78017825D01*
X82753983Y-78017829D01*
X82816090Y-78151017D01*
X82853851Y-78231996D01*
X82853853Y-78232000D01*
X82870734Y-78256108D01*
X82989391Y-78425567D01*
X83156485Y-78592661D01*
X83253270Y-78660431D01*
X83350051Y-78728198D01*
X83350053Y-78728199D01*
X83350056Y-78728201D01*
X83564223Y-78828069D01*
X83792478Y-78889229D01*
X83980804Y-78905705D01*
X84027885Y-78909825D01*
X84027886Y-78909825D01*
X84027887Y-78909825D01*
X84067120Y-78906392D01*
X84263294Y-78889229D01*
X84491549Y-78828069D01*
X84705716Y-78728201D01*
X84899287Y-78592661D01*
X85066381Y-78425567D01*
X85201921Y-78231996D01*
X85301789Y-78017829D01*
X85362949Y-77789574D01*
X85383545Y-77554166D01*
X85362949Y-77318758D01*
X85301789Y-77090503D01*
X85201921Y-76876337D01*
X85172555Y-76834397D01*
X85066380Y-76682763D01*
X84899288Y-76515672D01*
X84899281Y-76515667D01*
X84705720Y-76380133D01*
X84705716Y-76380131D01*
X84613232Y-76337005D01*
X84491549Y-76280263D01*
X84491545Y-76280262D01*
X84491541Y-76280260D01*
X84263299Y-76219104D01*
X84263289Y-76219102D01*
X84027887Y-76198507D01*
X84027885Y-76198507D01*
X83792482Y-76219102D01*
X83792472Y-76219104D01*
X83564230Y-76280260D01*
X83564221Y-76280264D01*
X83350057Y-76380130D01*
X83350055Y-76380131D01*
X83156483Y-76515671D01*
X82989391Y-76682763D01*
X82853851Y-76876335D01*
X82853850Y-76876337D01*
X82753984Y-77090501D01*
X82753980Y-77090510D01*
X82692824Y-77318752D01*
X82692822Y-77318762D01*
X82672227Y-77554165D01*
X79900500Y-77554165D01*
X79900500Y-77365191D01*
X79870312Y-77097268D01*
X79810316Y-76834409D01*
X79808651Y-76829652D01*
X79785416Y-76763248D01*
X79721267Y-76579921D01*
X79604284Y-76337003D01*
X79460838Y-76108711D01*
X79292734Y-75897915D01*
X79102085Y-75707266D01*
X78891289Y-75539162D01*
X78662997Y-75395716D01*
X78662994Y-75395714D01*
X78472901Y-75304170D01*
X86419859Y-75304170D01*
X86440385Y-75551894D01*
X86440387Y-75551903D01*
X86501412Y-75792882D01*
X86601267Y-76020532D01*
X86737232Y-76228643D01*
X86905592Y-76411529D01*
X86905602Y-76411538D01*
X87101762Y-76564216D01*
X87101771Y-76564222D01*
X87299829Y-76671404D01*
X87556502Y-75713485D01*
X87587292Y-75744275D01*
X87712708Y-75816683D01*
X87852591Y-75854165D01*
X87997409Y-75854165D01*
X88039465Y-75842895D01*
X87782700Y-76801160D01*
X87800694Y-76804163D01*
X87800709Y-76804165D01*
X88049293Y-76804165D01*
X88294493Y-76763248D01*
X88529603Y-76682534D01*
X88529614Y-76682529D01*
X88748228Y-76564222D01*
X88748237Y-76564216D01*
X88944397Y-76411538D01*
X88944407Y-76411529D01*
X89112767Y-76228643D01*
X89248731Y-76020533D01*
X89248732Y-76020532D01*
X89289102Y-75928494D01*
X88334321Y-75672661D01*
X88365110Y-75641873D01*
X88437518Y-75516457D01*
X88475000Y-75376574D01*
X88475000Y-75231756D01*
X88463730Y-75189696D01*
X89418428Y-75445507D01*
X89418429Y-75445507D01*
X89430141Y-75304170D01*
X89430141Y-75304159D01*
X89409614Y-75056435D01*
X89409612Y-75056426D01*
X89348587Y-74815447D01*
X89248732Y-74587797D01*
X89112767Y-74379686D01*
X88944407Y-74196800D01*
X88944397Y-74196791D01*
X88748237Y-74044113D01*
X88748228Y-74044107D01*
X88550169Y-73936924D01*
X88293495Y-74894842D01*
X88262708Y-74864055D01*
X88137292Y-74791647D01*
X87997409Y-74754165D01*
X87852591Y-74754165D01*
X87810531Y-74765434D01*
X88067299Y-73807169D01*
X88067298Y-73807168D01*
X88049295Y-73804165D01*
X87800707Y-73804165D01*
X87555506Y-73845081D01*
X87320396Y-73925795D01*
X87320385Y-73925800D01*
X87101771Y-74044107D01*
X87101762Y-74044113D01*
X86905602Y-74196791D01*
X86905592Y-74196800D01*
X86737232Y-74379686D01*
X86601268Y-74587795D01*
X86560896Y-74679835D01*
X87515679Y-74935667D01*
X87484890Y-74966457D01*
X87412482Y-75091873D01*
X87375000Y-75231756D01*
X87375000Y-75376574D01*
X87386269Y-75418631D01*
X86431570Y-75162821D01*
X86419859Y-75304170D01*
X78472901Y-75304170D01*
X78420082Y-75278734D01*
X78165602Y-75189687D01*
X78165594Y-75189684D01*
X77968446Y-75144687D01*
X77902732Y-75129688D01*
X77902728Y-75129687D01*
X77902719Y-75129686D01*
X77634813Y-75099500D01*
X77634809Y-75099500D01*
X77365191Y-75099500D01*
X77365186Y-75099500D01*
X77097280Y-75129686D01*
X77097268Y-75129688D01*
X76834405Y-75189684D01*
X76834397Y-75189687D01*
X76579917Y-75278734D01*
X76337005Y-75395714D01*
X76108712Y-75539161D01*
X75897915Y-75707265D01*
X75707265Y-75897915D01*
X75539161Y-76108712D01*
X75395714Y-76337005D01*
X75278734Y-76579917D01*
X75189687Y-76834397D01*
X75189684Y-76834405D01*
X75129688Y-77097268D01*
X75129686Y-77097280D01*
X75099500Y-77365186D01*
X72270738Y-77365186D01*
X72660338Y-76888430D01*
X72662955Y-76885334D01*
X73447881Y-75987778D01*
X73450650Y-75984718D01*
X74265084Y-75113942D01*
X74267906Y-75111024D01*
X75111024Y-74267906D01*
X75113942Y-74265084D01*
X75984730Y-73450638D01*
X75987791Y-73447870D01*
X76885334Y-72662955D01*
X76888430Y-72660338D01*
X77788269Y-71924999D01*
X79422226Y-71924999D01*
X79422226Y-71925000D01*
X79442821Y-72160403D01*
X79442823Y-72160413D01*
X79503979Y-72388655D01*
X79503981Y-72388659D01*
X79503982Y-72388663D01*
X79567557Y-72525000D01*
X79603850Y-72602830D01*
X79603852Y-72602834D01*
X79644097Y-72660309D01*
X79739390Y-72796401D01*
X79906484Y-72963495D01*
X79959333Y-73000500D01*
X80100050Y-73099032D01*
X80100052Y-73099033D01*
X80100055Y-73099035D01*
X80314222Y-73198903D01*
X80542477Y-73260063D01*
X80730803Y-73276539D01*
X80777884Y-73280659D01*
X80777885Y-73280659D01*
X80777886Y-73280659D01*
X80817119Y-73277226D01*
X81013293Y-73260063D01*
X81241548Y-73198903D01*
X81455715Y-73099035D01*
X81649286Y-72963495D01*
X81816380Y-72796401D01*
X81951920Y-72602830D01*
X81988213Y-72525000D01*
X90622734Y-72525000D01*
X90641757Y-72730294D01*
X90698180Y-72928605D01*
X90790081Y-73113165D01*
X90914331Y-73277699D01*
X91066696Y-73416597D01*
X91066698Y-73416599D01*
X91117203Y-73447870D01*
X91241992Y-73525136D01*
X91434246Y-73599615D01*
X91636912Y-73637500D01*
X91636914Y-73637500D01*
X91843086Y-73637500D01*
X91843088Y-73637500D01*
X92045754Y-73599615D01*
X92238008Y-73525136D01*
X92413303Y-73416598D01*
X92565670Y-73277697D01*
X92689919Y-73113165D01*
X92781820Y-72928603D01*
X92838242Y-72730297D01*
X92857266Y-72525000D01*
X93162734Y-72525000D01*
X93181757Y-72730294D01*
X93238180Y-72928605D01*
X93330081Y-73113165D01*
X93454331Y-73277699D01*
X93606696Y-73416597D01*
X93606698Y-73416599D01*
X93657203Y-73447870D01*
X93781992Y-73525136D01*
X93974246Y-73599615D01*
X94176912Y-73637500D01*
X94176914Y-73637500D01*
X94383086Y-73637500D01*
X94383088Y-73637500D01*
X94585754Y-73599615D01*
X94778008Y-73525136D01*
X94953303Y-73416598D01*
X95105670Y-73277697D01*
X95229919Y-73113165D01*
X95321820Y-72928603D01*
X95378242Y-72730297D01*
X95397266Y-72525000D01*
X95702734Y-72525000D01*
X95721757Y-72730294D01*
X95778180Y-72928605D01*
X95870081Y-73113165D01*
X95994331Y-73277699D01*
X96146696Y-73416597D01*
X96146698Y-73416599D01*
X96197203Y-73447870D01*
X96321992Y-73525136D01*
X96514246Y-73599615D01*
X96716912Y-73637500D01*
X96716914Y-73637500D01*
X96923086Y-73637500D01*
X96923088Y-73637500D01*
X97125754Y-73599615D01*
X97318008Y-73525136D01*
X97493303Y-73416598D01*
X97645670Y-73277697D01*
X97769919Y-73113165D01*
X97861820Y-72928603D01*
X97918242Y-72730297D01*
X97937266Y-72525000D01*
X98242734Y-72525000D01*
X98261757Y-72730294D01*
X98318180Y-72928605D01*
X98410081Y-73113165D01*
X98534331Y-73277699D01*
X98686696Y-73416597D01*
X98686698Y-73416599D01*
X98737203Y-73447870D01*
X98861992Y-73525136D01*
X99054246Y-73599615D01*
X99256912Y-73637500D01*
X99256914Y-73637500D01*
X99463086Y-73637500D01*
X99463088Y-73637500D01*
X99665754Y-73599615D01*
X99858008Y-73525136D01*
X100033303Y-73416598D01*
X100185670Y-73277697D01*
X100309919Y-73113165D01*
X100401820Y-72928603D01*
X100458242Y-72730297D01*
X100477266Y-72525000D01*
X100782734Y-72525000D01*
X100801757Y-72730294D01*
X100858180Y-72928605D01*
X100950081Y-73113165D01*
X101074331Y-73277699D01*
X101226696Y-73416597D01*
X101226698Y-73416599D01*
X101277203Y-73447870D01*
X101401992Y-73525136D01*
X101594246Y-73599615D01*
X101796912Y-73637500D01*
X101796914Y-73637500D01*
X102003086Y-73637500D01*
X102003088Y-73637500D01*
X102205754Y-73599615D01*
X102398008Y-73525136D01*
X102573303Y-73416598D01*
X102725670Y-73277697D01*
X102849919Y-73113165D01*
X102941820Y-72928603D01*
X102998242Y-72730297D01*
X103017266Y-72525000D01*
X103322734Y-72525000D01*
X103341757Y-72730294D01*
X103398180Y-72928605D01*
X103490081Y-73113165D01*
X103614331Y-73277699D01*
X103766696Y-73416597D01*
X103766698Y-73416599D01*
X103817203Y-73447870D01*
X103941992Y-73525136D01*
X104134246Y-73599615D01*
X104336912Y-73637500D01*
X104336914Y-73637500D01*
X104543086Y-73637500D01*
X104543088Y-73637500D01*
X104745754Y-73599615D01*
X104938008Y-73525136D01*
X105113303Y-73416598D01*
X105265670Y-73277697D01*
X105389919Y-73113165D01*
X105481820Y-72928603D01*
X105538242Y-72730297D01*
X105557266Y-72525000D01*
X105862734Y-72525000D01*
X105881757Y-72730294D01*
X105938180Y-72928605D01*
X106030081Y-73113165D01*
X106154331Y-73277699D01*
X106306696Y-73416597D01*
X106306698Y-73416599D01*
X106357203Y-73447870D01*
X106481992Y-73525136D01*
X106674246Y-73599615D01*
X106876912Y-73637500D01*
X106876914Y-73637500D01*
X107083086Y-73637500D01*
X107083088Y-73637500D01*
X107285754Y-73599615D01*
X107478008Y-73525136D01*
X107653303Y-73416598D01*
X107805670Y-73277697D01*
X107929919Y-73113165D01*
X108021820Y-72928603D01*
X108078242Y-72730297D01*
X108097266Y-72525000D01*
X108402734Y-72525000D01*
X108421757Y-72730294D01*
X108478180Y-72928605D01*
X108570081Y-73113165D01*
X108694331Y-73277699D01*
X108846696Y-73416597D01*
X108846698Y-73416599D01*
X108897203Y-73447870D01*
X109021992Y-73525136D01*
X109214246Y-73599615D01*
X109416912Y-73637500D01*
X109416914Y-73637500D01*
X109623086Y-73637500D01*
X109623088Y-73637500D01*
X109825754Y-73599615D01*
X110018008Y-73525136D01*
X110193303Y-73416598D01*
X110345670Y-73277697D01*
X110469919Y-73113165D01*
X110561820Y-72928603D01*
X110618242Y-72730297D01*
X110637266Y-72525000D01*
X110618242Y-72319703D01*
X110561820Y-72121397D01*
X110469919Y-71936835D01*
X110410308Y-71857898D01*
X110345668Y-71772300D01*
X110193303Y-71633402D01*
X110193301Y-71633400D01*
X110018013Y-71524867D01*
X110018006Y-71524863D01*
X109921881Y-71487624D01*
X109825754Y-71450385D01*
X109623088Y-71412500D01*
X109416912Y-71412500D01*
X109214246Y-71450385D01*
X109214243Y-71450385D01*
X109214243Y-71450386D01*
X109021993Y-71524863D01*
X109021986Y-71524867D01*
X108846698Y-71633400D01*
X108846696Y-71633402D01*
X108694331Y-71772300D01*
X108570081Y-71936834D01*
X108478180Y-72121394D01*
X108421757Y-72319705D01*
X108402734Y-72525000D01*
X108097266Y-72525000D01*
X108078242Y-72319703D01*
X108021820Y-72121397D01*
X107929919Y-71936835D01*
X107870308Y-71857898D01*
X107805668Y-71772300D01*
X107653303Y-71633402D01*
X107653301Y-71633400D01*
X107478013Y-71524867D01*
X107478006Y-71524863D01*
X107381881Y-71487624D01*
X107285754Y-71450385D01*
X107083088Y-71412500D01*
X106876912Y-71412500D01*
X106674246Y-71450385D01*
X106674243Y-71450385D01*
X106674243Y-71450386D01*
X106481993Y-71524863D01*
X106481986Y-71524867D01*
X106306698Y-71633400D01*
X106306696Y-71633402D01*
X106154331Y-71772300D01*
X106030081Y-71936834D01*
X105938180Y-72121394D01*
X105881757Y-72319705D01*
X105862734Y-72525000D01*
X105557266Y-72525000D01*
X105538242Y-72319703D01*
X105481820Y-72121397D01*
X105389919Y-71936835D01*
X105330308Y-71857898D01*
X105265668Y-71772300D01*
X105113303Y-71633402D01*
X105113301Y-71633400D01*
X104938013Y-71524867D01*
X104938006Y-71524863D01*
X104841881Y-71487624D01*
X104745754Y-71450385D01*
X104543088Y-71412500D01*
X104336912Y-71412500D01*
X104134246Y-71450385D01*
X104134243Y-71450385D01*
X104134243Y-71450386D01*
X103941993Y-71524863D01*
X103941986Y-71524867D01*
X103766698Y-71633400D01*
X103766696Y-71633402D01*
X103614331Y-71772300D01*
X103490081Y-71936834D01*
X103398180Y-72121394D01*
X103341757Y-72319705D01*
X103322734Y-72525000D01*
X103017266Y-72525000D01*
X102998242Y-72319703D01*
X102941820Y-72121397D01*
X102849919Y-71936835D01*
X102790308Y-71857898D01*
X102725668Y-71772300D01*
X102573303Y-71633402D01*
X102573301Y-71633400D01*
X102398013Y-71524867D01*
X102398006Y-71524863D01*
X102301881Y-71487624D01*
X102205754Y-71450385D01*
X102003088Y-71412500D01*
X101796912Y-71412500D01*
X101594246Y-71450385D01*
X101594243Y-71450385D01*
X101594243Y-71450386D01*
X101401993Y-71524863D01*
X101401986Y-71524867D01*
X101226698Y-71633400D01*
X101226696Y-71633402D01*
X101074331Y-71772300D01*
X100950081Y-71936834D01*
X100858180Y-72121394D01*
X100801757Y-72319705D01*
X100782734Y-72525000D01*
X100477266Y-72525000D01*
X100458242Y-72319703D01*
X100401820Y-72121397D01*
X100309919Y-71936835D01*
X100250308Y-71857898D01*
X100185668Y-71772300D01*
X100033303Y-71633402D01*
X100033301Y-71633400D01*
X99858013Y-71524867D01*
X99858006Y-71524863D01*
X99761881Y-71487624D01*
X99665754Y-71450385D01*
X99463088Y-71412500D01*
X99256912Y-71412500D01*
X99054246Y-71450385D01*
X99054243Y-71450385D01*
X99054243Y-71450386D01*
X98861993Y-71524863D01*
X98861986Y-71524867D01*
X98686698Y-71633400D01*
X98686696Y-71633402D01*
X98534331Y-71772300D01*
X98410081Y-71936834D01*
X98318180Y-72121394D01*
X98261757Y-72319705D01*
X98242734Y-72525000D01*
X97937266Y-72525000D01*
X97918242Y-72319703D01*
X97861820Y-72121397D01*
X97769919Y-71936835D01*
X97710308Y-71857898D01*
X97645668Y-71772300D01*
X97493303Y-71633402D01*
X97493301Y-71633400D01*
X97318013Y-71524867D01*
X97318006Y-71524863D01*
X97221881Y-71487624D01*
X97125754Y-71450385D01*
X96923088Y-71412500D01*
X96716912Y-71412500D01*
X96514246Y-71450385D01*
X96514243Y-71450385D01*
X96514243Y-71450386D01*
X96321993Y-71524863D01*
X96321986Y-71524867D01*
X96146698Y-71633400D01*
X96146696Y-71633402D01*
X95994331Y-71772300D01*
X95870081Y-71936834D01*
X95778180Y-72121394D01*
X95721757Y-72319705D01*
X95702734Y-72525000D01*
X95397266Y-72525000D01*
X95378242Y-72319703D01*
X95321820Y-72121397D01*
X95229919Y-71936835D01*
X95170308Y-71857898D01*
X95105668Y-71772300D01*
X94953303Y-71633402D01*
X94953301Y-71633400D01*
X94778013Y-71524867D01*
X94778006Y-71524863D01*
X94681881Y-71487624D01*
X94585754Y-71450385D01*
X94383088Y-71412500D01*
X94176912Y-71412500D01*
X93974246Y-71450385D01*
X93974243Y-71450385D01*
X93974243Y-71450386D01*
X93781993Y-71524863D01*
X93781986Y-71524867D01*
X93606698Y-71633400D01*
X93606696Y-71633402D01*
X93454331Y-71772300D01*
X93330081Y-71936834D01*
X93238180Y-72121394D01*
X93181757Y-72319705D01*
X93162734Y-72525000D01*
X92857266Y-72525000D01*
X92838242Y-72319703D01*
X92781820Y-72121397D01*
X92689919Y-71936835D01*
X92630308Y-71857898D01*
X92565668Y-71772300D01*
X92413303Y-71633402D01*
X92413301Y-71633400D01*
X92238013Y-71524867D01*
X92238006Y-71524863D01*
X92141881Y-71487624D01*
X92045754Y-71450385D01*
X91843088Y-71412500D01*
X91636912Y-71412500D01*
X91434246Y-71450385D01*
X91434243Y-71450385D01*
X91434243Y-71450386D01*
X91241993Y-71524863D01*
X91241986Y-71524867D01*
X91066698Y-71633400D01*
X91066696Y-71633402D01*
X90914331Y-71772300D01*
X90790081Y-71936834D01*
X90698180Y-72121394D01*
X90641757Y-72319705D01*
X90622734Y-72525000D01*
X81988213Y-72525000D01*
X82051788Y-72388663D01*
X82112948Y-72160408D01*
X82133544Y-71925000D01*
X82112948Y-71689592D01*
X82051788Y-71461337D01*
X81951920Y-71247171D01*
X81901385Y-71174998D01*
X81816379Y-71053597D01*
X81649287Y-70886506D01*
X81649280Y-70886501D01*
X81633343Y-70875342D01*
X81579834Y-70837874D01*
X81455719Y-70750967D01*
X81455715Y-70750965D01*
X81455713Y-70750964D01*
X81241548Y-70651097D01*
X81241544Y-70651096D01*
X81241540Y-70651094D01*
X81013298Y-70589938D01*
X81013288Y-70589936D01*
X80777886Y-70569341D01*
X80777884Y-70569341D01*
X80542481Y-70589936D01*
X80542471Y-70589938D01*
X80314229Y-70651094D01*
X80314220Y-70651098D01*
X80100056Y-70750964D01*
X80100054Y-70750965D01*
X79906482Y-70886505D01*
X79739390Y-71053597D01*
X79603850Y-71247169D01*
X79603849Y-71247171D01*
X79503983Y-71461335D01*
X79503979Y-71461344D01*
X79442823Y-71689586D01*
X79442821Y-71689596D01*
X79422226Y-71924999D01*
X77788269Y-71924999D01*
X77811659Y-71905885D01*
X77814877Y-71903343D01*
X78762824Y-71180144D01*
X78766150Y-71177694D01*
X78769938Y-71175000D01*
X79737708Y-70486590D01*
X79741118Y-70484251D01*
X79746673Y-70480573D01*
X80735224Y-69826001D01*
X80738647Y-69823816D01*
X80980576Y-69675005D01*
X83169859Y-69675005D01*
X83190385Y-69922729D01*
X83190387Y-69922738D01*
X83251412Y-70163717D01*
X83351267Y-70391367D01*
X83487232Y-70599478D01*
X83655592Y-70782364D01*
X83655602Y-70782373D01*
X83851762Y-70935051D01*
X83851771Y-70935057D01*
X84049829Y-71042239D01*
X84306502Y-70084320D01*
X84337292Y-70115110D01*
X84462708Y-70187518D01*
X84602591Y-70225000D01*
X84747409Y-70225000D01*
X84789465Y-70213730D01*
X84532700Y-71171995D01*
X84550694Y-71174998D01*
X84550709Y-71175000D01*
X84799293Y-71175000D01*
X85044493Y-71134083D01*
X85279603Y-71053369D01*
X85279614Y-71053364D01*
X85498228Y-70935057D01*
X85498237Y-70935051D01*
X85694397Y-70782373D01*
X85694407Y-70782364D01*
X85862767Y-70599478D01*
X85998731Y-70391368D01*
X85998732Y-70391367D01*
X86039102Y-70299329D01*
X85084321Y-70043496D01*
X85115110Y-70012708D01*
X85187518Y-69887292D01*
X85225000Y-69747409D01*
X85225000Y-69602591D01*
X85213730Y-69560531D01*
X86168428Y-69816342D01*
X86168429Y-69816342D01*
X86180141Y-69675005D01*
X86180141Y-69674994D01*
X86159614Y-69427270D01*
X86159612Y-69427261D01*
X86098587Y-69186282D01*
X85998732Y-68958632D01*
X85862767Y-68750521D01*
X85694407Y-68567635D01*
X85694397Y-68567626D01*
X85498237Y-68414948D01*
X85498228Y-68414942D01*
X85300169Y-68307759D01*
X85043495Y-69265677D01*
X85012708Y-69234890D01*
X84887292Y-69162482D01*
X84747409Y-69125000D01*
X84602591Y-69125000D01*
X84560531Y-69136269D01*
X84817299Y-68178004D01*
X84817298Y-68178003D01*
X84799295Y-68175000D01*
X84550707Y-68175000D01*
X84305506Y-68215916D01*
X84070396Y-68296630D01*
X84070385Y-68296635D01*
X83851771Y-68414942D01*
X83851762Y-68414948D01*
X83655602Y-68567626D01*
X83655592Y-68567635D01*
X83487232Y-68750521D01*
X83351268Y-68958630D01*
X83310896Y-69050670D01*
X84265679Y-69306502D01*
X84234890Y-69337292D01*
X84162482Y-69462708D01*
X84125000Y-69602591D01*
X84125000Y-69747409D01*
X84136269Y-69789466D01*
X83181570Y-69533656D01*
X83169859Y-69675005D01*
X80980576Y-69675005D01*
X81754239Y-69199123D01*
X81757733Y-69197053D01*
X82793677Y-68606620D01*
X82797202Y-68604688D01*
X83706733Y-68125838D01*
X94449500Y-68125838D01*
X94449500Y-69654163D01*
X94485215Y-69879661D01*
X94555770Y-70096804D01*
X94638071Y-70258328D01*
X94659421Y-70300229D01*
X94793621Y-70484938D01*
X94955063Y-70646380D01*
X95139772Y-70780580D01*
X95235884Y-70829551D01*
X95343196Y-70884230D01*
X95343198Y-70884230D01*
X95343201Y-70884232D01*
X95459592Y-70922050D01*
X95560339Y-70954785D01*
X95785838Y-70990501D01*
X95785843Y-70990501D01*
X96014162Y-70990501D01*
X96239660Y-70954785D01*
X96300376Y-70935057D01*
X96456799Y-70884232D01*
X96660228Y-70780580D01*
X96844937Y-70646380D01*
X96993411Y-70497905D01*
X97054731Y-70464423D01*
X97124422Y-70469407D01*
X97135546Y-70474187D01*
X97148608Y-70480573D01*
X97216740Y-70490500D01*
X97216741Y-70490500D01*
X98783262Y-70490500D01*
X98810056Y-70486596D01*
X98851394Y-70480573D01*
X98956484Y-70429198D01*
X99039199Y-70346483D01*
X99081438Y-70260080D01*
X99128565Y-70208500D01*
X99196099Y-70190585D01*
X99262597Y-70212026D01*
X99280519Y-70226861D01*
X99283072Y-70229414D01*
X99423212Y-70331232D01*
X99577555Y-70409873D01*
X99742299Y-70463402D01*
X99913389Y-70490500D01*
X99913390Y-70490500D01*
X100086610Y-70490500D01*
X100086611Y-70490500D01*
X100257701Y-70463402D01*
X100422445Y-70409873D01*
X100576788Y-70331232D01*
X100716928Y-70229414D01*
X100839414Y-70106928D01*
X100899683Y-70023974D01*
X100955013Y-69981309D01*
X101024626Y-69975330D01*
X101086421Y-70007936D01*
X101100319Y-70023975D01*
X101153229Y-70096800D01*
X101160588Y-70106928D01*
X101283074Y-70229414D01*
X101423214Y-70331232D01*
X101577557Y-70409873D01*
X101742301Y-70463402D01*
X101913391Y-70490500D01*
X101913392Y-70490500D01*
X102086612Y-70490500D01*
X102086613Y-70490500D01*
X102257703Y-70463402D01*
X102422447Y-70409873D01*
X102576790Y-70331232D01*
X102677133Y-70258327D01*
X102742939Y-70234847D01*
X102810993Y-70250672D01*
X102855775Y-70296750D01*
X102856878Y-70296075D01*
X102859418Y-70300220D01*
X102859422Y-70300226D01*
X102859423Y-70300227D01*
X102993623Y-70484936D01*
X103155065Y-70646378D01*
X103339774Y-70780578D01*
X103435886Y-70829549D01*
X103543198Y-70884228D01*
X103543200Y-70884228D01*
X103543203Y-70884230D01*
X103659594Y-70922048D01*
X103760341Y-70954783D01*
X103985840Y-70990499D01*
X103985845Y-70990499D01*
X104214164Y-70990499D01*
X104439662Y-70954783D01*
X104500372Y-70935057D01*
X104656801Y-70884230D01*
X104674245Y-70875342D01*
X113685184Y-70875342D01*
X113715460Y-70988333D01*
X113780783Y-71085370D01*
X113834824Y-71128033D01*
X113922920Y-71178895D01*
X115364668Y-72011289D01*
X115364678Y-72011294D01*
X115372828Y-72014539D01*
X115428644Y-72036763D01*
X115545342Y-72044816D01*
X115658333Y-72014540D01*
X115755370Y-71949217D01*
X115798033Y-71895176D01*
X115976169Y-71586634D01*
X116026736Y-71538420D01*
X116095343Y-71525196D01*
X116160208Y-71551164D01*
X116200736Y-71608078D01*
X116207027Y-71660076D01*
X116194062Y-71799998D01*
X116194062Y-71800000D01*
X116214589Y-72021535D01*
X116214590Y-72021537D01*
X116275474Y-72235523D01*
X116275480Y-72235538D01*
X116374643Y-72434683D01*
X116374648Y-72434691D01*
X116508725Y-72612238D01*
X116673142Y-72762123D01*
X116673144Y-72762125D01*
X116862300Y-72879245D01*
X116862301Y-72879245D01*
X116862304Y-72879247D01*
X117069765Y-72959618D01*
X117288462Y-73000500D01*
X117288464Y-73000500D01*
X117510946Y-73000500D01*
X117510948Y-73000500D01*
X117729645Y-72959618D01*
X117937106Y-72879247D01*
X118126267Y-72762124D01*
X118290686Y-72612236D01*
X118424763Y-72434689D01*
X118523934Y-72235528D01*
X118584820Y-72021536D01*
X118605348Y-71800000D01*
X118589910Y-71633400D01*
X118584820Y-71578464D01*
X118584819Y-71578462D01*
X118548378Y-71450386D01*
X118523934Y-71364472D01*
X118432153Y-71180152D01*
X118424766Y-71165316D01*
X118424761Y-71165308D01*
X118290684Y-70987761D01*
X118126267Y-70837876D01*
X118126265Y-70837874D01*
X117937109Y-70720754D01*
X117937103Y-70720752D01*
X117904855Y-70708259D01*
X117729645Y-70640382D01*
X117510948Y-70599500D01*
X117288462Y-70599500D01*
X117069765Y-70640382D01*
X116938569Y-70691207D01*
X116862306Y-70720752D01*
X116862300Y-70720755D01*
X116680381Y-70833393D01*
X116613020Y-70851948D01*
X116546321Y-70831140D01*
X116501460Y-70777575D01*
X116492680Y-70708259D01*
X116507717Y-70665966D01*
X116516304Y-70651094D01*
X116662982Y-70397038D01*
X116681289Y-70365331D01*
X116681294Y-70365321D01*
X116694867Y-70331232D01*
X116706763Y-70301356D01*
X116714816Y-70184658D01*
X116684540Y-70071667D01*
X116619217Y-69974630D01*
X116565176Y-69931967D01*
X116549191Y-69922738D01*
X115035331Y-69048710D01*
X115035321Y-69048705D01*
X114971354Y-69023236D01*
X114971355Y-69023236D01*
X114854658Y-69015184D01*
X114854657Y-69015184D01*
X114741666Y-69045460D01*
X114644631Y-69110782D01*
X114644630Y-69110783D01*
X114602707Y-69163887D01*
X114601964Y-69164828D01*
X113718710Y-70694668D01*
X113718705Y-70694678D01*
X113693236Y-70758645D01*
X113687769Y-70837876D01*
X113685184Y-70875342D01*
X104674245Y-70875342D01*
X104860230Y-70780578D01*
X105044939Y-70646378D01*
X105206381Y-70484936D01*
X105340581Y-70300227D01*
X105444233Y-70096798D01*
X105514786Y-69879659D01*
X105519202Y-69851776D01*
X105550502Y-69654161D01*
X105550502Y-68610827D01*
X106803755Y-68610827D01*
X106803756Y-68610831D01*
X106826181Y-68725638D01*
X106884671Y-68826945D01*
X106972882Y-68903767D01*
X107036112Y-68930985D01*
X107036121Y-68930988D01*
X107036122Y-68930988D01*
X107036124Y-68930989D01*
X108742451Y-69388198D01*
X108772842Y-69391774D01*
X108810827Y-69396244D01*
X108810828Y-69396243D01*
X108810832Y-69396244D01*
X108925638Y-69373819D01*
X109026943Y-69315330D01*
X109103767Y-69227118D01*
X109111585Y-69208953D01*
X108950000Y-69825000D01*
X111900000Y-70650000D01*
X112675000Y-67525000D01*
X111175000Y-67100000D01*
X109750000Y-66775000D01*
X109593112Y-67373134D01*
X109573819Y-67274362D01*
X109515330Y-67173057D01*
X109515329Y-67173056D01*
X109515328Y-67173054D01*
X109427117Y-67096232D01*
X109363887Y-67069014D01*
X109363878Y-67069011D01*
X108258708Y-66772882D01*
X107657549Y-66611802D01*
X107657546Y-66611801D01*
X107657544Y-66611801D01*
X107589172Y-66603755D01*
X107589168Y-66603756D01*
X107474361Y-66626181D01*
X107373054Y-66684671D01*
X107296232Y-66772882D01*
X107269014Y-66836112D01*
X107269011Y-66836121D01*
X106811801Y-68542455D01*
X106803755Y-68610827D01*
X105550502Y-68610827D01*
X105550502Y-68125836D01*
X105514786Y-67900338D01*
X105467813Y-67755771D01*
X105444233Y-67683200D01*
X105444231Y-67683197D01*
X105444231Y-67683195D01*
X105370054Y-67537616D01*
X105340581Y-67479771D01*
X105206381Y-67295062D01*
X105044939Y-67133620D01*
X104860230Y-66999420D01*
X104656805Y-66895769D01*
X104439662Y-66825214D01*
X104214164Y-66789499D01*
X104214159Y-66789499D01*
X103985845Y-66789499D01*
X103985840Y-66789499D01*
X103760341Y-66825214D01*
X103543198Y-66895769D01*
X103339773Y-66999420D01*
X103155063Y-67133621D01*
X102993624Y-67295060D01*
X102859418Y-67479777D01*
X102856878Y-67483923D01*
X102855424Y-67483032D01*
X102812516Y-67528453D01*
X102744692Y-67545240D01*
X102678560Y-67522693D01*
X102677133Y-67521672D01*
X102674717Y-67519917D01*
X102576790Y-67448768D01*
X102422447Y-67370127D01*
X102257703Y-67316598D01*
X102257701Y-67316597D01*
X102257700Y-67316597D01*
X102121717Y-67295060D01*
X102086613Y-67289500D01*
X101913391Y-67289500D01*
X101878287Y-67295060D01*
X101742304Y-67316597D01*
X101577554Y-67370128D01*
X101423213Y-67448768D01*
X101374827Y-67483923D01*
X101283074Y-67550586D01*
X101283072Y-67550588D01*
X101283071Y-67550588D01*
X101160589Y-67673070D01*
X101153228Y-67683202D01*
X101100504Y-67755771D01*
X101100319Y-67756025D01*
X101044988Y-67798690D01*
X100975375Y-67804669D01*
X100913580Y-67772063D01*
X100899683Y-67756025D01*
X100839414Y-67673072D01*
X100716928Y-67550586D01*
X100576788Y-67448768D01*
X100422445Y-67370127D01*
X100257701Y-67316598D01*
X100257699Y-67316597D01*
X100257698Y-67316597D01*
X100121715Y-67295060D01*
X100086611Y-67289500D01*
X99913389Y-67289500D01*
X99878285Y-67295060D01*
X99742302Y-67316597D01*
X99577552Y-67370128D01*
X99423211Y-67448768D01*
X99283071Y-67550587D01*
X99280512Y-67553146D01*
X99219186Y-67586625D01*
X99149495Y-67581635D01*
X99093565Y-67539759D01*
X99081437Y-67519917D01*
X99063841Y-67483923D01*
X99039199Y-67433517D01*
X99039197Y-67433515D01*
X99039197Y-67433514D01*
X98956486Y-67350803D01*
X98851392Y-67299426D01*
X98783262Y-67289500D01*
X98783261Y-67289500D01*
X97216741Y-67289500D01*
X97216740Y-67289500D01*
X97148612Y-67299425D01*
X97148605Y-67299428D01*
X97135547Y-67305812D01*
X97066674Y-67317570D01*
X97002377Y-67290226D01*
X96993407Y-67282092D01*
X96844938Y-67133623D01*
X96844935Y-67133621D01*
X96660228Y-66999422D01*
X96660224Y-66999420D01*
X96456803Y-66895771D01*
X96239660Y-66825216D01*
X96014162Y-66789501D01*
X96014157Y-66789501D01*
X95785843Y-66789501D01*
X95785838Y-66789501D01*
X95560339Y-66825216D01*
X95343196Y-66895771D01*
X95139771Y-66999422D01*
X94955061Y-67133623D01*
X94793622Y-67295062D01*
X94659421Y-67479772D01*
X94555770Y-67683197D01*
X94485215Y-67900340D01*
X94449500Y-68125838D01*
X83706733Y-68125838D01*
X83852254Y-68049224D01*
X83855911Y-68047376D01*
X84928883Y-67527501D01*
X84932606Y-67525773D01*
X86022371Y-67042031D01*
X86026158Y-67040425D01*
X87131505Y-66593359D01*
X87135298Y-66591899D01*
X88254957Y-66182020D01*
X88258835Y-66180674D01*
X89391562Y-65808438D01*
X89395409Y-65807245D01*
X90539994Y-65473053D01*
X90543891Y-65471985D01*
X91698976Y-65176232D01*
X91702929Y-65175290D01*
X92867291Y-64918291D01*
X92871228Y-64917491D01*
X94043495Y-64699549D01*
X94047512Y-64698871D01*
X95226356Y-64520229D01*
X95230401Y-64519685D01*
X96414602Y-64380529D01*
X96418697Y-64380118D01*
X97606812Y-64280616D01*
X97610894Y-64280342D01*
X98801714Y-64220594D01*
X98805779Y-64220458D01*
X99997966Y-64200534D01*
X100002034Y-64200534D01*
X101194218Y-64220458D01*
G37*
%TD.AperFunction*%
%TD*%
%TA.AperFunction,Conductor*%
%TO.N,GND*%
G36*
X111175000Y-67100000D02*
G01*
X112675000Y-67525000D01*
X111900000Y-70650000D01*
X108950000Y-69825000D01*
X109750000Y-66775000D01*
X111175000Y-67100000D01*
G37*
%TD.AperFunction*%
%TD*%
M02*
