M48
; DRILL file {KiCad 8.0.4} date 2024-08-27T21:02:41+0200
; FORMAT={-:-/ absolute / metric / decimal}
; #@! TF.CreationDate,2024-08-27T21:02:41+02:00
; #@! TF.GenerationSoftware,Kicad,Pcbnew,8.0.4
; #@! TF.FileFunction,Plated,1,2,PTH
FMAT,2
METRIC
; #@! TA.AperFunction,Plated,PTH,ViaDrill
T1C0.300
; #@! TA.AperFunction,Plated,PTH,ViaDrill
T2C0.500
; #@! TA.AperFunction,Plated,PTH,ComponentDrill
T3C0.762
; #@! TA.AperFunction,Plated,PTH,ComponentDrill
T4C0.900
; #@! TA.AperFunction,Plated,PTH,ComponentDrill
T5C1.000
; #@! TA.AperFunction,Plated,PTH,ComponentDrill
T6C1.100
; #@! TA.AperFunction,Plated,PTH,ComponentDrill
T7C1.500
; #@! TA.AperFunction,Plated,PTH,ComponentDrill
T8C2.000
%
G90
G05
T1
X79.75Y-98.6
X79.8Y-108.8
X83.0Y-101.2
X83.4Y-98.6
X83.8Y-105.45
X84.0Y-92.8
X84.8Y-125.8
X85.215Y-83.985
X86.4Y-111.6
X86.91Y-104.833
X87.2Y-92.8
X87.6Y-96.8
X88.2Y-93.6
X88.601Y-109.33
X88.815Y-89.185
X91.0Y-97.8
X93.2Y-97.0
X94.8Y-113.6
X95.0Y-128.2
X97.85Y-79.0
X97.85Y-80.2
X100.6Y-101.2
X101.25Y-79.2
X101.25Y-80.0
X104.05Y-78.6
X104.05Y-79.6
X104.05Y-80.6
X105.0Y-125.8
X109.125Y-79.125
X110.2Y-79.6
X111.075Y-103.625
X111.075Y-106.475
X113.4Y-77.5
T2
X71.525Y-92.05
X73.5Y-92.05
X77.45Y-109.95
X80.15Y-103.825
X82.3Y-103.125
X88.725Y-82.4
X94.925Y-121.575
X95.25Y-85.125
X95.9Y-94.625
X97.925Y-122.65
X99.125Y-117.525
X100.575Y-87.3
X100.925Y-124.125
X100.925Y-126.125
X101.175Y-95.975
X101.575Y-104.3
X102.475Y-100.3
T3
X91.74Y-72.525
X91.74Y-90.559
X94.28Y-72.525
X94.28Y-90.559
X96.82Y-72.525
X96.82Y-90.559
X99.36Y-72.525
X99.36Y-90.559
X101.9Y-72.525
X101.9Y-90.559
X104.44Y-72.525
X104.44Y-90.559
X106.98Y-72.525
X106.98Y-90.559
X109.52Y-72.525
X109.52Y-90.559
T4
X98.0Y-68.89
X100.0Y-68.89
X102.0Y-68.89
T5
X77.6Y-93.52
X77.6Y-96.06
X77.6Y-98.6
X79.845Y-114.4
X82.385Y-114.4
X84.925Y-114.4
X104.4Y-115.0
X104.425Y-118.725
X105.6Y-99.84
X105.6Y-102.38
X105.6Y-104.92
X105.6Y-107.46
X105.6Y-110.0
X106.94Y-115.0
X106.965Y-118.725
X108.2Y-68.0
X109.48Y-115.0
X109.505Y-118.725
X110.653Y-68.657
X112.02Y-115.0
X114.475Y-97.26
X114.475Y-99.8
X114.475Y-102.34
X114.475Y-104.88
X114.475Y-107.42
X114.475Y-109.96
X114.56Y-115.0
X115.2Y-70.53
X117.1Y-115.0
X117.4Y-71.8
X119.64Y-115.0
X122.5Y-97.5
X122.5Y-100.0
X122.5Y-102.5
X127.492Y-82.223
X128.8Y-84.4
X130.108Y-86.577
T6
X65.5Y-96.75
X65.5Y-103.25
X70.0Y-96.75
X70.0Y-103.25
X80.778Y-71.925
X84.028Y-77.554
X84.675Y-69.675
X86.75Y-127.62
X87.925Y-75.304
X93.25Y-127.62
X93.25Y-132.12
X96.75Y-129.25
X96.75Y-133.75
X103.25Y-129.25
X103.25Y-133.75
X106.75Y-127.62
X106.75Y-132.12
X113.25Y-127.62
X115.55Y-79.31
X115.55Y-81.85
X115.55Y-84.39
T7
X95.9Y-68.89
X104.1Y-68.89
T8
X129.75Y-94.4G85X130.25Y-94.4
G05
X129.75Y-105.6G85X130.25Y-105.6
G05
M30
