<?xml version="1.0" encoding="UTF-8" standalone="no"?>
<!-- Created with Inkscape (http://www.inkscape.org/) -->

<svg
   width="620.26697mm"
   height="193.09663mm"
   viewBox="0 0 620.26697 193.09663"
   version="1.1"
   id="svg1"
   xmlns="http://www.w3.org/2000/svg"
   xmlns:svg="http://www.w3.org/2000/svg">
  <defs
     id="defs1" />
  <g
     id="layer3"
     style="display:inline"
     transform="translate(-216.51871,13.529226)">
    <rect
       style="display:inline;fill:#ffffff;fill-opacity:1;stroke:#000000;stroke-width:2.25234;stroke-linecap:round;stroke-linejoin:round;stroke-dasharray:none;stroke-opacity:1"
       id="rect22"
       width="618.01465"
       height="190.84428"
       x="217.64488"
       y="-12.403056" />
    <text
       xml:space="preserve"
       style="font-size:12.7px;line-height:1.1;font-family:'Old Standard';-inkscape-font-specification:'Old Standard';letter-spacing:0.0978958px;fill:#ffffff;fill-opacity:1;stroke:#000000;stroke-width:2.5;stroke-linecap:round;stroke-linejoin:round;stroke-dasharray:none;stroke-opacity:1"
       x="399.45053"
       y="117.20201"
       id="text22"><tspan
         id="tspan22"
         style="font-style:italic;font-variant:normal;font-weight:normal;font-stretch:normal;font-size:12.7px;font-family:'Old Standard';-inkscape-font-specification:'Old Standard Italic';fill:#000000;stroke:none;stroke-width:2.5"
         x="399.45053"
         y="117.20201">perfect eggs every day</tspan></text>
  </g>
  <g
     id="layer2"
     style="display:inline"
     transform="translate(-216.51871,13.529226)">
    <g
       id="g21"
       transform="translate(16.14224,10.088742)">
      <circle
         style="fill:none;stroke:#000000;stroke-width:3.00268;stroke-linecap:round;stroke-linejoin:round;stroke-dasharray:none;stroke-opacity:1"
         id="path3-5"
         cx="292.53931"
         cy="71.679588"
         r="66.328522" />
      <path
         style="fill:#999999;fill-opacity:1;stroke:#000000;stroke-width:1.4;stroke-linecap:round;stroke-linejoin:round;stroke-dasharray:none;stroke-opacity:1"
         d="M 290.66757,71.680344 V 50.001574"
         id="path5-3" />
      <path
         style="fill:none;fill-opacity:1;stroke:#000000;stroke-width:2.5;stroke-linecap:round;stroke-linejoin:round;stroke-dasharray:none;stroke-opacity:1"
         d="m 290.66757,71.680344 v -26.19315 h 25.73848 v -8.80169 h 9.27544 v -10.6607 l 10.71511,0.0683 9.95796,-9.93044"
         id="path6-5" />
      <path
         style="fill:none;fill-opacity:1;stroke:#000000;stroke-width:2.5;stroke-linecap:round;stroke-linejoin:round;stroke-dasharray:none;stroke-opacity:1"
         d="m 358.98524,32.381554 -15.80925,10.0641 -16.22201,0.0878 v 24.42547 h -6.98576 v -10.34512 h -14.82427 v 15.06654 h -14.47638 l 14.65336,-7.6e-4 h 12.29279 15.67215 l -0.12059,-22.82701 h 14.23853 l 0.0176,8.20381 17.42066,-5.12621"
         id="path7-6" />
      <path
         style="fill:none;fill-opacity:1;stroke:#000000;stroke-width:2.5;stroke-linecap:round;stroke-linejoin:round;stroke-dasharray:none;stroke-opacity:1"
         d="m 368.52797,71.679584 -77.8604,7.6e-4 h 34.77665 v 12.04565 h 19.09434 l 10e-4,4.68356 h 6.75632 l 13.61219,3.17875"
         id="path8-2" />
      <path
         style="fill:none;fill-opacity:1;stroke:#000000;stroke-width:2.5;stroke-linecap:round;stroke-linejoin:round;stroke-dasharray:none;stroke-opacity:1"
         d="m 357.65508,110.33098 -15.60809,-9.48173 -8.7251,-0.0735 V 87.244124 h -15.70807 v -15.56378 h -26.94625 17.38833 v 26.3155 h 18.74851 v 16.345766 l 6.57018,0.065 10.84404,10.84834"
         id="path9-9" />
      <path
         style="fill:none;fill-opacity:1;stroke:#000000;stroke-width:2.5;stroke-linecap:round;stroke-linejoin:round;stroke-dasharray:none;stroke-opacity:1"
         d="M 328.66547,137.65764 318.32046,120.8583 v -7.39439 l -14.17977,-0.15592 V 71.680374 h -13.47312 8.69417 l -10e-6,11.6361 v 0 l 0.3141,10.57862 0.22553,-1.07866 0.10046,29.640246 6.22712,0.0311 -1.32908,4.36029 0.85537,2.89222 4.75664,16.08353"
         id="path10-1" />
      <path
         style="fill:none;fill-opacity:1;stroke:#000000;stroke-width:2.5;stroke-linecap:round;stroke-linejoin:round;stroke-dasharray:none;stroke-opacity:1"
         d="m 295.01465,71.680344 -1.60581,5.99298 -4.39736,-0.37527 0.42364,25.233836 4.75535,0.0331 0.0203,19.11024 -5.94281,0.0452 v 9.47356 l 2.37358,0.0472 -0.009,16.98996"
         id="path11-2" />
      <path
         style="fill:none;fill-opacity:1;stroke:#000000;stroke-width:2.5;stroke-linecap:round;stroke-linejoin:round;stroke-dasharray:none;stroke-opacity:1"
         d="m 289.43512,96.613394 -11.76768,0.32397 -0.0744,14.309856 8.2107,0.15554 v 5.84169 h -8.74609 v 9.41221 l -5.81591,17.51642"
         id="path12-7" />
      <path
         style="fill:none;fill-opacity:1;stroke:#000000;stroke-width:2.5;stroke-linecap:round;stroke-linejoin:round;stroke-dasharray:none;stroke-opacity:1"
         d="m 252.9723,137.02893 9.91706,-16.30953 0.30429,-16.03304 10.26315,0.0891 0.0743,-13.291576 12.37201,1e-5 -0.33457,-19.80354 5.09899,-10e-6 -0.15105,-34.38955 h 15.28216 l 0.15105,-8.91287 12.37073,-0.0684 v -5.27313 l 11.52143,-19.00925"
         id="path13-0" />
      <path
         style="fill:none;fill-opacity:1;stroke:#000000;stroke-width:2.5;stroke-linecap:round;stroke-linejoin:round;stroke-dasharray:none;stroke-opacity:1"
         d="m 311.14544,-4.123146 -5.39819,18.13133 -5.82166,0.0388 v 12.94021 h -9.25802 v 44.69314 -77.46317"
         id="path14-9" />
      <path
         style="fill:none;fill-opacity:1;stroke:#000000;stroke-width:2.5;stroke-linecap:round;stroke-linejoin:round;stroke-dasharray:none;stroke-opacity:1"
         d="m 290.66757,71.680344 -77.4182,-0.0694"
         id="path15-3" />
      <path
         style="fill:none;fill-opacity:1;stroke:#000000;stroke-width:2.5;stroke-linecap:round;stroke-linejoin:round;stroke-dasharray:none;stroke-opacity:1"
         d="m 270.59793,-3.461026 5.20971,15.04802 10.17228,0.0811 v 14.82103 h -9.93359 v 18.99803 h 14.62124 v 26.19315 -21.67877 h -16.99391 -7.96895 l -0.016,-29.37938 -3.94628,-0.0705 -9.83932,-16.24191"
         id="path16-6" />
      <path
         style="fill:none;fill-opacity:1;stroke:#000000;stroke-width:2.5;stroke-linecap:round;stroke-linejoin:round;stroke-dasharray:none;stroke-opacity:1"
         d="m 236.63234,17.526084 14.44472,14.47334 9.19922,0.12705 v 21.5336 h 19.51192 10.87937 v 18.02027"
         id="path17-0" />
      <path
         style="fill:none;fill-opacity:1;stroke:#000000;stroke-width:2.5;stroke-linecap:round;stroke-linejoin:round;stroke-dasharray:none;stroke-opacity:1"
         d="m 290.66757,71.680344 v -10.83939 h -27.76303 -12.00456 l -0.58118,-11.98838 h 5.8233 v -10.31178 h -16.42065 l 0.092,4.228 -16.54705,-10.02417"
         id="path18-6" />
      <path
         style="fill:none;fill-opacity:1;stroke:#000000;stroke-width:2.5;stroke-linecap:round;stroke-linejoin:round;stroke-dasharray:none;stroke-opacity:1"
         d="m 215.11998,51.312804 21.93979,6.06332 h 8.25286 v 8.4059 l 45.35494,0.47862 -1.09798,5.4197 -15.36516,0.61676 v 4.2937 l -21.86173,-0.3117 -0.0315,9.61868 -16.81983,-0.009 -19.40638,5.73012"
         id="path19-2" />
      <path
         style="fill:none;fill-opacity:1;stroke:#000000;stroke-width:2.5;stroke-linecap:round;stroke-linejoin:round;stroke-dasharray:none;stroke-opacity:1"
         d="m 290.66757,71.680344 -12.31155,10e-6 -0.0611,9.7889 -16.58842,0.12106 v 13.77308 l -23.23501,-0.19669 v 6.228986 l -11.99238,7.15792"
         id="path20-6" />
      <path
         style="fill:none;fill-opacity:1;stroke:#000000;stroke-width:2.5;stroke-linecap:round;stroke-linejoin:round;stroke-dasharray:none;stroke-opacity:1"
         d="m 237.22145,125.37681 13.78328,-14.08938 V 100.3817 h 17.67779 l -0.033,-13.900586 h 13.43509 l -0.34952,-14.80076 15.66908,-10e-6"
         id="path21-1" />
      <path
         style="display:inline;fill:#ffffff;fill-opacity:1;stroke:#000000;stroke-width:1.4;stroke-linecap:round;stroke-linejoin:round;stroke-dasharray:none;stroke-opacity:1"
         d="m 291.82168,33.448674 c -19.44216,0.48097 -31.16774,47.11739 -21.36994,63.91715 10.16581,17.430786 34.48904,16.404076 44.31038,-1.2231 9.80602,-17.59969 -2.79947,-63.1923 -22.94044,-62.69405 z"
         id="path4-8" />
    </g>
    <text
       xml:space="preserve"
       style="font-size:50.8px;line-height:1.1;font-family:'Old Standard';-inkscape-font-specification:'Old Standard';letter-spacing:0.0978958px;fill:#000000;fill-opacity:1;stroke:#000000;stroke-width:2.5;stroke-linecap:round;stroke-linejoin:round;stroke-dasharray:none;stroke-opacity:1"
       x="396.58572"
       y="100.45369"
       id="text21"><tspan
         id="tspan21"
         style="font-size:50.8px;stroke-width:2.5"
         x="396.58572"
         y="100.45369">SmartEggTimer</tspan></text>
  </g>
</svg>
