%TF.GenerationSoftware,KiCad,Pcbnew,8.0.4*%
%TF.CreationDate,2024-08-30T00:59:46+02:00*%
%TF.ProjectId,smartEggTimer,736d6172-7445-4676-9754-696d65722e6b,rev?*%
%TF.SameCoordinates,Original*%
%TF.FileFunction,Soldermask,Top*%
%TF.FilePolarity,Negative*%
%FSLAX46Y46*%
G04 Gerber Fmt 4.6, Leading zero omitted, Abs format (unit mm)*
G04 Created by KiCad (PCBNEW 8.0.4) date 2024-08-30 00:59:46*
%MOMM*%
%LPD*%
G01*
G04 APERTURE LIST*
G04 Aperture macros list*
%AMRoundRect*
0 Rectangle with rounded corners*
0 $1 Rounding radius*
0 $2 $3 $4 $5 $6 $7 $8 $9 X,Y pos of 4 corners*
0 Add a 4 corners polygon primitive as box body*
4,1,4,$2,$3,$4,$5,$6,$7,$8,$9,$2,$3,0*
0 Add four circle primitives for the rounded corners*
1,1,$1+$1,$2,$3*
1,1,$1+$1,$4,$5*
1,1,$1+$1,$6,$7*
1,1,$1+$1,$8,$9*
0 Add four rect primitives between the rounded corners*
20,1,$1+$1,$2,$3,$4,$5,0*
20,1,$1+$1,$4,$5,$6,$7,0*
20,1,$1+$1,$6,$7,$8,$9,0*
20,1,$1+$1,$8,$9,$2,$3,0*%
%AMHorizOval*
0 Thick line with rounded ends*
0 $1 width*
0 $2 $3 position (X,Y) of the first rounded end (center of the circle)*
0 $4 $5 position (X,Y) of the second rounded end (center of the circle)*
0 Add line between two ends*
20,1,$1,$2,$3,$4,$5,0*
0 Add two circle primitives to create the rounded ends*
1,1,$1,$2,$3*
1,1,$1,$4,$5*%
%AMRotRect*
0 Rectangle, with rotation*
0 The origin of the aperture is its center*
0 $1 length*
0 $2 width*
0 $3 Rotation angle, in degrees counterclockwise*
0 Add horizontal line*
21,1,$1,$2,0,0,$3*%
G04 Aperture macros list end*
%ADD10C,1.100000*%
%ADD11C,2.000000*%
%ADD12RoundRect,0.135000X0.185000X-0.135000X0.185000X0.135000X-0.185000X0.135000X-0.185000X-0.135000X0*%
%ADD13RoundRect,0.135000X-0.135000X-0.185000X0.135000X-0.185000X0.135000X0.185000X-0.135000X0.185000X0*%
%ADD14R,1.700000X1.700000*%
%ADD15O,1.700000X1.700000*%
%ADD16RoundRect,0.140000X-0.140000X-0.170000X0.140000X-0.170000X0.140000X0.170000X-0.140000X0.170000X0*%
%ADD17RoundRect,0.135000X-0.185000X0.135000X-0.185000X-0.135000X0.185000X-0.135000X0.185000X0.135000X0*%
%ADD18RoundRect,0.140000X0.140000X0.170000X-0.140000X0.170000X-0.140000X-0.170000X0.140000X-0.170000X0*%
%ADD19C,1.524000*%
%ADD20R,2.465000X1.050000*%
%ADD21R,2.465000X3.540000*%
%ADD22RoundRect,0.140000X-0.170000X0.140000X-0.170000X-0.140000X0.170000X-0.140000X0.170000X0.140000X0*%
%ADD23RoundRect,0.140000X0.170000X-0.140000X0.170000X0.140000X-0.170000X0.140000X-0.170000X-0.140000X0*%
%ADD24C,1.800000*%
%ADD25O,3.500000X3.300000*%
%ADD26O,0.300000X2.000000*%
%ADD27O,2.000000X0.300000*%
%ADD28C,4.300000*%
%ADD29RoundRect,0.250000X-0.475000X0.250000X-0.475000X-0.250000X0.475000X-0.250000X0.475000X0.250000X0*%
%ADD30RoundRect,0.135000X0.135000X0.185000X-0.135000X0.185000X-0.135000X-0.185000X0.135000X-0.185000X0*%
%ADD31RotRect,1.700000X1.700000X60.000000*%
%ADD32HorizOval,1.700000X0.000000X0.000000X0.000000X0.000000X0*%
%ADD33RotRect,1.700000X1.700000X211.000000*%
%ADD34HorizOval,1.700000X0.000000X0.000000X0.000000X0.000000X0*%
%ADD35R,2.000000X1.905000*%
%ADD36O,2.000000X1.905000*%
%ADD37RoundRect,0.225000X0.250000X-0.225000X0.250000X0.225000X-0.250000X0.225000X-0.250000X-0.225000X0*%
%ADD38RoundRect,0.218750X0.256250X-0.218750X0.256250X0.218750X-0.256250X0.218750X-0.256250X-0.218750X0*%
%ADD39RotRect,1.700000X1.700000X75.000000*%
%ADD40HorizOval,1.700000X0.000000X0.000000X0.000000X0.000000X0*%
%ADD41RoundRect,0.250000X0.475000X-0.250000X0.475000X0.250000X-0.475000X0.250000X-0.475000X-0.250000X0*%
%ADD42O,2.200000X3.500000*%
%ADD43R,1.500000X2.500000*%
%ADD44O,1.500000X2.500000*%
G04 APERTURE END LIST*
D10*
%TO.C,SW6*%
X113250000Y-132120000D03*
D11*
X106750000Y-132120000D03*
X113250000Y-127620000D03*
X106750000Y-127620000D03*
%TD*%
D12*
%TO.C,R11*%
X120575000Y-106085000D03*
X120575000Y-105065000D03*
%TD*%
D13*
%TO.C,R12*%
X87275000Y-86585000D03*
X88295000Y-86585000D03*
%TD*%
D14*
%TO.C,J7*%
X77900000Y-96500000D03*
D15*
X77900000Y-99040000D03*
X77900000Y-101580000D03*
%TD*%
D14*
%TO.C,J2*%
X104425000Y-118725000D03*
D15*
X106965000Y-118725000D03*
X109505000Y-118725000D03*
%TD*%
D16*
%TO.C,C7*%
X89070000Y-97275000D03*
X90030000Y-97275000D03*
%TD*%
D12*
%TO.C,R10*%
X120575000Y-103885000D03*
X120575000Y-102865000D03*
%TD*%
D17*
%TO.C,R8*%
X120685000Y-96095000D03*
X120685000Y-97115000D03*
%TD*%
D12*
%TO.C,R20*%
X113250000Y-125250000D03*
X113250000Y-124230000D03*
%TD*%
D13*
%TO.C,R14*%
X68965000Y-94200000D03*
X69985000Y-94200000D03*
%TD*%
D11*
%TO.C,SW4*%
X103250000Y-133750000D03*
X96750000Y-133750000D03*
X103250000Y-129250000D03*
X96750000Y-129250000D03*
%TD*%
D18*
%TO.C,C3*%
X95530000Y-112450000D03*
X94570000Y-112450000D03*
%TD*%
D11*
%TO.C,SW3*%
X65500000Y-103250000D03*
X65500000Y-96750000D03*
X70000000Y-103250000D03*
X70000000Y-96750000D03*
%TD*%
D12*
%TO.C,R16*%
X103816400Y-127119600D03*
X103816400Y-126099600D03*
%TD*%
D19*
%TO.C,DFPlayerMini1*%
X91740000Y-90559000D03*
X94280000Y-90559000D03*
X96820000Y-90559000D03*
X99360000Y-90559000D03*
X101900000Y-90559000D03*
X104440000Y-90559000D03*
X106980000Y-90559000D03*
X109520000Y-90559000D03*
X109520000Y-72525000D03*
X106980000Y-72525000D03*
X104440000Y-72525000D03*
X101900000Y-72525000D03*
X99360000Y-72525000D03*
X96820000Y-72525000D03*
X94280000Y-72525000D03*
X91740000Y-72525000D03*
%TD*%
D20*
%TO.C,U2*%
X99842500Y-77300000D03*
D21*
X105557500Y-79600000D03*
D20*
X99842500Y-79600000D03*
X99842500Y-81900000D03*
%TD*%
D22*
%TO.C,C17*%
X85750000Y-124270000D03*
X85750000Y-125230000D03*
%TD*%
D13*
%TO.C,R1*%
X81540000Y-82050000D03*
X82560000Y-82050000D03*
%TD*%
%TO.C,R5*%
X108230000Y-84050000D03*
X109250000Y-84050000D03*
%TD*%
D10*
%TO.C,SW5*%
X86750000Y-132120000D03*
D11*
X93250000Y-132120000D03*
X93250000Y-127620000D03*
X86750000Y-127620000D03*
%TD*%
D12*
%TO.C,R15*%
X69600000Y-107000000D03*
X69600000Y-105980000D03*
%TD*%
D17*
%TO.C,R23*%
X96900000Y-88125000D03*
X96900000Y-89145000D03*
%TD*%
D16*
%TO.C,C14*%
X87335000Y-87785000D03*
X88295000Y-87785000D03*
%TD*%
D17*
%TO.C,R7*%
X102800000Y-101890000D03*
X102800000Y-102910000D03*
%TD*%
D18*
%TO.C,C9*%
X88770000Y-94555000D03*
X87810000Y-94555000D03*
%TD*%
D23*
%TO.C,C2*%
X83650000Y-109605000D03*
X83650000Y-108645000D03*
%TD*%
D14*
%TO.C,J1*%
X105600000Y-99840000D03*
D15*
X105600000Y-102380000D03*
X105600000Y-104920000D03*
X105600000Y-107460000D03*
X105600000Y-110000000D03*
%TD*%
D24*
%TO.C,SW2*%
X122489000Y-97460000D03*
X122489000Y-102540000D03*
D25*
X129989000Y-94400000D03*
D24*
X122489000Y-100000000D03*
D25*
X129989000Y-105600000D03*
%TD*%
D26*
%TO.C,U1*%
X95010000Y-99230000D03*
X94510000Y-99230000D03*
X94010000Y-99230000D03*
X93510000Y-99230000D03*
X93010000Y-99230000D03*
X92510000Y-99230000D03*
X92010000Y-99230000D03*
X91510000Y-99230000D03*
X91010000Y-99230000D03*
X90510000Y-99230000D03*
X90010000Y-99230000D03*
X89510000Y-99230000D03*
X89010000Y-99230000D03*
X88510000Y-99230000D03*
X88010000Y-99230000D03*
X87510000Y-99230000D03*
D27*
X85510000Y-101230000D03*
X85510000Y-101730000D03*
X85510000Y-102230000D03*
X85510000Y-102730000D03*
X85510000Y-103230000D03*
X85510000Y-103730000D03*
X85510000Y-104230000D03*
X85510000Y-104730000D03*
X85510000Y-105230000D03*
X85510000Y-105730000D03*
X85510000Y-106230000D03*
X85510000Y-106730000D03*
X85510000Y-107230000D03*
X85510000Y-107730000D03*
X85510000Y-108230000D03*
X85510000Y-108730000D03*
D26*
X87510000Y-110730000D03*
X88010000Y-110730000D03*
X88510000Y-110730000D03*
X89010000Y-110730000D03*
X89510000Y-110730000D03*
X90010000Y-110730000D03*
X90510000Y-110730000D03*
X91010000Y-110730000D03*
X91510000Y-110730000D03*
X92010000Y-110730000D03*
X92510000Y-110730000D03*
X93010000Y-110730000D03*
X93510000Y-110730000D03*
X94010000Y-110730000D03*
X94510000Y-110730000D03*
X95010000Y-110730000D03*
D27*
X97010000Y-108730000D03*
X97010000Y-108230000D03*
X97010000Y-107730000D03*
X97010000Y-107230000D03*
X97010000Y-106730000D03*
X97010000Y-106230000D03*
X97010000Y-105730000D03*
X97010000Y-105230000D03*
X97010000Y-104730000D03*
X97010000Y-104230000D03*
X97010000Y-103730000D03*
X97010000Y-103230000D03*
X97010000Y-102730000D03*
X97010000Y-102230000D03*
X97010000Y-101730000D03*
X97010000Y-101230000D03*
%TD*%
D13*
%TO.C,R13*%
X85305000Y-86585000D03*
X86325000Y-86585000D03*
%TD*%
D28*
%TO.C,H2*%
X122500000Y-77500000D03*
%TD*%
D22*
%TO.C,C6*%
X98820000Y-101230000D03*
X98820000Y-102190000D03*
%TD*%
%TO.C,C13*%
X120575000Y-100720000D03*
X120575000Y-101680000D03*
%TD*%
D23*
%TO.C,C4*%
X83570000Y-102845000D03*
X83570000Y-101885000D03*
%TD*%
D28*
%TO.C,H8*%
X122500000Y-122500000D03*
%TD*%
%TO.C,H1*%
X77500000Y-77500000D03*
%TD*%
D17*
%TO.C,R2*%
X100060000Y-102105000D03*
X100060000Y-103125000D03*
%TD*%
D29*
%TO.C,C10*%
X96550000Y-76667500D03*
X96550000Y-78567500D03*
%TD*%
D23*
%TO.C,C15*%
X68475000Y-106970000D03*
X68475000Y-106010000D03*
%TD*%
D30*
%TO.C,R9*%
X119470000Y-97130000D03*
X118450000Y-97130000D03*
%TD*%
D17*
%TO.C,R22*%
X94300000Y-88215000D03*
X94300000Y-89235000D03*
%TD*%
D31*
%TO.C,J5*%
X115200000Y-70530000D03*
D32*
X117399705Y-71800000D03*
%TD*%
D33*
%TO.C,J8*%
X130108197Y-86577205D03*
D34*
X128800000Y-84400000D03*
X127491804Y-82222795D03*
%TD*%
D14*
%TO.C,J3*%
X84925000Y-114400000D03*
D15*
X82385000Y-114400000D03*
X79845000Y-114400000D03*
%TD*%
D22*
%TO.C,C12*%
X119685000Y-98270000D03*
X119685000Y-99230000D03*
%TD*%
D17*
%TO.C,R21*%
X107500000Y-124430000D03*
X107500000Y-125450000D03*
%TD*%
D18*
%TO.C,C8*%
X88780000Y-95955000D03*
X87820000Y-95955000D03*
%TD*%
D14*
%TO.C,J4*%
X114475000Y-97260000D03*
D15*
X114475000Y-99800000D03*
X114475000Y-102340000D03*
X114475000Y-104880000D03*
X114475000Y-107420000D03*
X114475000Y-109960000D03*
%TD*%
D22*
%TO.C,C16*%
X95917000Y-126020000D03*
X95917000Y-126980000D03*
%TD*%
D18*
%TO.C,C5*%
X94940000Y-97615000D03*
X93980000Y-97615000D03*
%TD*%
D35*
%TO.C,Q1*%
X115550000Y-79310000D03*
D36*
X115550000Y-81850000D03*
X115550000Y-84390000D03*
%TD*%
D14*
%TO.C,OLED-15W-C1*%
X119640000Y-115000000D03*
D15*
X117100000Y-115000000D03*
X114560000Y-115000000D03*
X112020000Y-115000000D03*
X109480000Y-115000000D03*
X106940000Y-115000000D03*
X104400000Y-115000000D03*
%TD*%
D17*
%TO.C,R17*%
X97187000Y-125990000D03*
X97187000Y-127010000D03*
%TD*%
D12*
%TO.C,R6*%
X102800000Y-104910000D03*
X102800000Y-103890000D03*
%TD*%
D37*
%TO.C,C1*%
X81800000Y-109975000D03*
X81800000Y-108425000D03*
%TD*%
D17*
%TO.C,R19*%
X87000000Y-124240000D03*
X87000000Y-125260000D03*
%TD*%
D22*
%TO.C,C18*%
X106165000Y-124460000D03*
X106165000Y-125420000D03*
%TD*%
D38*
%TO.C,FB1*%
X90260000Y-96030000D03*
X90260000Y-94455000D03*
%TD*%
D28*
%TO.C,H3*%
X77500000Y-122500000D03*
%TD*%
D39*
%TO.C,J6*%
X108200000Y-68000000D03*
D40*
X110653452Y-68657400D03*
%TD*%
D41*
%TO.C,C11*%
X96550000Y-82505000D03*
X96550000Y-80605000D03*
%TD*%
D12*
%TO.C,R18*%
X93500000Y-125260000D03*
X93500000Y-124240000D03*
%TD*%
D30*
%TO.C,R4*%
X109160000Y-81450000D03*
X108140000Y-81450000D03*
%TD*%
D42*
%TO.C,SW7*%
X95900000Y-68890001D03*
X104100002Y-68889999D03*
D43*
X98000001Y-68890000D03*
D44*
X100000000Y-68890000D03*
X102000002Y-68890000D03*
%TD*%
D11*
%TO.C,SW1*%
X87925000Y-75304165D03*
X84675000Y-69675000D03*
X84027886Y-77554166D03*
X80777885Y-71925000D03*
%TD*%
M02*
